STARTFONT 2.1
COMMENT
COMMENT Converted from OpenType font "IBMPlexSans-Medium.ttf" by "otf2bdf 3.0".
COMMENT
FONT -FreeType-IBM Plex Sans Medm-Medium-R-Normal--30-300-72-72-P-153-ISO10646-1
SIZE 30 72 72
FONTBOUNDINGBOX 45 43 -7 -8
STARTPROPERTIES 19
FOUNDRY "FreeType"
FAMILY_NAME "IBM Plex Sans Medm"
WEIGHT_NAME "Medium"
SLANT "R"
SETWIDTH_NAME "Normal"
ADD_STYLE_NAME ""
PIXEL_SIZE 30
POINT_SIZE 300
RESOLUTION_X 72
RESOLUTION_Y 72
SPACING "P"
AVERAGE_WIDTH 153
CHARSET_REGISTRY "ISO10646"
CHARSET_ENCODING "1"
FONT_ASCENT 30
FONT_DESCENT 8
COPYRIGHT "Copyright 2018 IBM Corp. All rights reserved."
_OTF_FONTFILE "IBMPlexSans-Medium.ttf"
_OTF_PSNAME "IBMPlexSans-Medm"
ENDPROPERTIES
CHARS 844
STARTCHAR 0000
ENCODING 0
SWIDTH 0 0
DWIDTH 0 0
BBX 0 0 0 0
BITMAP
ENDCHAR
STARTCHAR 000D
ENCODING 13
SWIDTH 233 0
DWIDTH 7 0
BBX 0 0 0 0
BITMAP
ENDCHAR
STARTCHAR 0020
ENCODING 32
SWIDTH 233 0
DWIDTH 7 0
BBX 0 0 0 0
BITMAP
ENDCHAR
STARTCHAR 0021
ENCODING 33
SWIDTH 300 0
DWIDTH 9 0
BBX 5 21 2 0
BITMAP
70
70
70
70
70
70
70
70
70
70
70
70
60
20
20
00
00
70
F8
F8
70
ENDCHAR
STARTCHAR 0022
ENCODING 34
SWIDTH 466 0
DWIDTH 14 0
BBX 9 9 2 13
BITMAP
E380
E380
E380
E380
E380
E380
E380
E380
E380
ENDCHAR
STARTCHAR 0023
ENCODING 35
SWIDTH 666 0
DWIDTH 20 0
BBX 18 21 1 0
BITMAP
038700
030600
030600
030600
030600
070E00
7FFFC0
7FFFC0
060C00
060C00
0E0C00
0E1C00
0C1800
FFFF80
FFFF80
0C1800
1C3800
1C3800
183000
183000
183000
ENDCHAR
STARTCHAR 0024
ENCODING 36
SWIDTH 600 0
DWIDTH 18 0
BBX 15 25 1 -2
BITMAP
0180
0180
0180
07F0
1FF8
3FFC
799E
718C
7180
7980
7F80
3FF0
1FFC
03FE
019E
018E
218E
718E
F99E
7FFC
1FF8
0FE0
0180
0180
0180
ENDCHAR
STARTCHAR 0025
ENCODING 37
SWIDTH 933 0
DWIDTH 28 0
BBX 25 21 2 0
BITMAP
3E003800
7F007000
E380E000
E180E000
E1C1C000
E1C38000
E1C78000
E1C70000
E1CE0000
E39C7C00
7F1CFE00
3E39C700
0071C300
0071C380
00E1C380
01C1C380
01C1C380
0381C300
0701C700
0F00FE00
1E007C00
ENDCHAR
STARTCHAR 0026
ENCODING 38
SWIDTH 700 0
DWIDTH 21 0
BBX 19 21 2 0
BITMAP
07C000
1FF000
3FF800
3C7800
383800
383800
387800
3CF000
1FE000
0FC7C0
1F87C0
3FC7C0
71E700
F0F700
E07E00
E03E00
F01E00
F83F00
7FFF80
3FF780
0FC3E0
ENDCHAR
STARTCHAR 0027
ENCODING 39
SWIDTH 266 0
DWIDTH 8 0
BBX 3 9 2 13
BITMAP
E0
E0
E0
E0
E0
E0
E0
E0
E0
ENDCHAR
STARTCHAR 0028
ENCODING 40
SWIDTH 333 0
DWIDTH 10 0
BBX 8 27 2 -4
BITMAP
07
0E
1C
38
38
70
70
70
E0
E0
E0
E0
E0
E0
E0
E0
E0
E0
E0
70
70
70
38
38
1C
0E
07
ENDCHAR
STARTCHAR 0029
ENCODING 41
SWIDTH 333 0
DWIDTH 10 0
BBX 8 27 0 -4
BITMAP
E0
70
38
1C
1C
0E
0E
0E
07
07
07
07
07
07
07
07
07
07
07
0E
0E
0E
1C
1C
38
70
E0
ENDCHAR
STARTCHAR 002A
ENCODING 42
SWIDTH 500 0
DWIDTH 15 0
BBX 13 13 1 9
BITMAP
0700
0700
0700
4708
F778
FFF8
1FE0
0F80
0FC0
1DE0
38E0
3870
1040
ENDCHAR
STARTCHAR 002B
ENCODING 43
SWIDTH 600 0
DWIDTH 18 0
BBX 14 15 2 2
BITMAP
0300
0300
0300
0300
0300
0300
FFFC
FFFC
FFFC
0300
0300
0300
0300
0300
0300
ENDCHAR
STARTCHAR 002C
ENCODING 44
SWIDTH 300 0
DWIDTH 9 0
BBX 6 8 1 -4
BITMAP
38
78
7C
38
18
38
70
E0
ENDCHAR
STARTCHAR 002D
ENCODING 45
SWIDTH 400 0
DWIDTH 12 0
BBX 8 3 2 8
BITMAP
FF
FF
FF
ENDCHAR
STARTCHAR 002E
ENCODING 46
SWIDTH 300 0
DWIDTH 9 0
BBX 5 5 2 0
BITMAP
70
F0
F8
F0
70
ENDCHAR
STARTCHAR 002F
ENCODING 47
SWIDTH 433 0
DWIDTH 13 0
BBX 11 27 0 -5
BITMAP
00E0
00E0
00E0
01C0
01C0
01C0
0180
0380
0380
0300
0700
0700
0700
0E00
0E00
0E00
1C00
1C00
1C00
3800
3800
3800
3000
7000
7000
7000
E000
ENDCHAR
STARTCHAR 0030
ENCODING 48
SWIDTH 600 0
DWIDTH 18 0
BBX 16 21 1 0
BITMAP
07E0
1FF8
3FFC
3C3C
781E
700E
700E
700E
F00E
F00F
F00F
F00F
F00F
700E
700E
701E
781E
3C3C
3FFC
1FF8
07E0
ENDCHAR
STARTCHAR 0031
ENCODING 49
SWIDTH 600 0
DWIDTH 18 0
BBX 16 21 1 0
BITMAP
07E0
0FE0
1EE0
1CE0
38E0
78E0
F0E0
20E0
00E0
00E0
00E0
00E0
00E0
00E0
00E0
00E0
00E0
00E0
3FFF
3FFF
3FFF
ENDCHAR
STARTCHAR 0032
ENCODING 50
SWIDTH 600 0
DWIDTH 18 0
BBX 14 21 2 0
BITMAP
0FC0
3FF0
7FF0
F878
F038
603C
003C
0038
0038
0078
00F0
01E0
03C0
0780
0F00
3E00
7C00
F000
FFFC
FFFC
FFFC
ENDCHAR
STARTCHAR 0033
ENCODING 51
SWIDTH 600 0
DWIDTH 18 0
BBX 15 21 1 0
BITMAP
0FE0
1FF0
3FF8
787C
303C
201C
001C
003C
0078
07F0
07E0
07F8
003C
001C
001E
201E
601C
F83C
7FF8
3FF0
0FE0
ENDCHAR
STARTCHAR 0034
ENCODING 52
SWIDTH 600 0
DWIDTH 18 0
BBX 16 21 1 0
BITMAP
00F8
00F8
01F8
03B8
03B8
0738
0738
0E38
1C38
1C38
3838
7038
7038
E038
FFFF
FFFF
FFFF
0038
0038
0038
0038
ENDCHAR
STARTCHAR 0035
ENCODING 53
SWIDTH 600 0
DWIDTH 18 0
BBX 14 21 2 0
BITMAP
7FF8
7FF8
7FF8
7000
7000
7000
7000
7000
73E0
77F0
6FF8
787C
003C
001C
001C
001C
603C
F87C
7FF8
3FF0
0FC0
ENDCHAR
STARTCHAR 0036
ENCODING 54
SWIDTH 600 0
DWIDTH 18 0
BBX 14 21 2 0
BITMAP
03F0
07C0
0F00
1E00
1C00
3800
7800
73E0
F7F0
EFF8
F87C
F03C
E01C
E01C
E01C
E01C
F03C
7878
7FF8
3FF0
0FC0
ENDCHAR
STARTCHAR 0037
ENCODING 55
SWIDTH 600 0
DWIDTH 18 0
BBX 14 21 2 0
BITMAP
FFFC
FFFC
FFFC
E01C
E03C
E038
E078
0070
00F0
00E0
00E0
01E0
01C0
03C0
0380
0780
0780
0700
0F00
0E00
1E00
ENDCHAR
STARTCHAR 0038
ENCODING 56
SWIDTH 600 0
DWIDTH 18 0
BBX 16 21 1 0
BITMAP
07E0
1FF8
3FFC
7C3E
781E
700E
700E
381C
3C3C
1FF8
07E0
3FFC
7C3E
700E
700E
F00F
700E
781E
3FFC
1FF8
07E0
ENDCHAR
STARTCHAR 0039
ENCODING 57
SWIDTH 600 0
DWIDTH 18 0
BBX 14 21 2 0
BITMAP
0FC0
3FF0
7FF8
7878
F03C
E01C
E01C
E01C
E01C
F03C
F87C
7FDC
3FBC
1F38
0078
0070
00E0
01E0
03C0
0F80
3F00
ENDCHAR
STARTCHAR 003A
ENCODING 58
SWIDTH 300 0
DWIDTH 9 0
BBX 5 17 2 0
BITMAP
70
78
F8
78
70
00
00
00
00
00
00
00
70
78
F8
78
70
ENDCHAR
STARTCHAR 003B
ENCODING 59
SWIDTH 300 0
DWIDTH 9 0
BBX 6 21 1 -4
BITMAP
38
3C
7C
3C
38
00
00
00
00
00
00
00
00
38
7C
7C
3C
18
38
30
E0
ENDCHAR
STARTCHAR 003C
ENCODING 60
SWIDTH 600 0
DWIDTH 18 0
BBX 12 17 3 0
BITMAP
0010
0030
00F0
03F0
07C0
1F00
7C00
F800
E000
F800
7C00
1F00
07C0
03F0
00F0
0030
0010
ENDCHAR
STARTCHAR 003D
ENCODING 61
SWIDTH 600 0
DWIDTH 18 0
BBX 14 10 2 4
BITMAP
FFFC
FFFC
FFFC
0000
0000
0000
0000
FFFC
FFFC
FFFC
ENDCHAR
STARTCHAR 003E
ENCODING 62
SWIDTH 600 0
DWIDTH 18 0
BBX 12 17 3 0
BITMAP
8000
C000
F000
FC00
3E00
0F80
03E0
01F0
0070
01F0
03E0
0F80
3E00
FC00
F000
C000
8000
ENDCHAR
STARTCHAR 003F
ENCODING 63
SWIDTH 500 0
DWIDTH 15 0
BBX 13 21 1 0
BITMAP
1F80
3FE0
7FF0
F0F0
E070
6078
0078
0070
00F0
01E0
0FE0
0F80
0E00
0E00
0E00
0000
0000
0E00
0F00
1F00
0E00
ENDCHAR
STARTCHAR 0040
ENCODING 64
SWIDTH 900 0
DWIDTH 27 0
BBX 23 25 2 -4
BITMAP
00FE00
03FFC0
0F81E0
1C0070
380038
30001C
70FB8C
61FF8E
E3C78E
C38386
C38386
C38386
C38386
C38386
C3838E
C3838C
E3C79C
61FDF8
60F8F0
300000
380000
1C0000
0F0000
07FFC0
00FFC0
ENDCHAR
STARTCHAR 0041
ENCODING 65
SWIDTH 666 0
DWIDTH 20 0
BBX 18 21 1 0
BITMAP
01E000
03F000
03F000
03F000
077800
073800
073800
0E3C00
0E1C00
0E1C00
1C1E00
1C0E00
1FFE00
3FFF00
3FFF00
380700
700780
700380
F00380
F003C0
E003C0
ENDCHAR
STARTCHAR 0042
ENCODING 66
SWIDTH 666 0
DWIDTH 20 0
BBX 15 21 3 0
BITMAP
FFE0
FFF8
FFFC
E03C
E01C
E01C
E01C
E01C
E03C
FFF8
FFF0
FFFC
E01E
E01E
E00E
E00E
E01E
E01E
FFFC
FFF8
FFF0
ENDCHAR
STARTCHAR 0043
ENCODING 67
SWIDTH 633 0
DWIDTH 19 0
BBX 16 21 2 0
BITMAP
07F0
1FF8
3FFE
7C1E
780F
F004
F000
E000
E000
E000
E000
E000
E000
E000
F000
F006
780F
7C1E
3FFC
1FF8
07E0
ENDCHAR
STARTCHAR 0044
ENCODING 68
SWIDTH 666 0
DWIDTH 20 0
BBX 16 21 3 0
BITMAP
FFC0
FFF0
FFF8
E07C
E01E
E01E
E00E
E00F
E00F
E00F
E00F
E00F
E00F
E00F
E00E
E01E
E01E
E07C
FFF8
FFF0
FFC0
ENDCHAR
STARTCHAR 0045
ENCODING 69
SWIDTH 600 0
DWIDTH 18 0
BBX 13 21 3 0
BITMAP
FFF8
FFF8
FFF8
E000
E000
E000
E000
E000
E000
FFF0
FFF0
FFF0
E000
E000
E000
E000
E000
E000
FFF8
FFF8
FFF8
ENDCHAR
STARTCHAR 0046
ENCODING 70
SWIDTH 566 0
DWIDTH 17 0
BBX 13 21 3 0
BITMAP
FFF8
FFF8
FFF8
E000
E000
E000
E000
E000
E000
FFF0
FFF0
FFF0
E000
E000
E000
E000
E000
E000
E000
E000
E000
ENDCHAR
STARTCHAR 0047
ENCODING 71
SWIDTH 700 0
DWIDTH 21 0
BBX 17 21 2 0
BITMAP
03F000
0FFC00
3FFE00
3C1F00
780780
F00600
F00000
E00000
E00000
E00000
E07F80
E07F80
E07F80
E00380
F00380
F00380
780780
7C0F80
3FFF80
1FFB80
07E380
ENDCHAR
STARTCHAR 0048
ENCODING 72
SWIDTH 700 0
DWIDTH 21 0
BBX 16 21 3 0
BITMAP
E00F
E00F
E00F
E00F
E00F
E00F
E00F
E00F
E00F
FFFF
FFFF
FFFF
E00F
E00F
E00F
E00F
E00F
E00F
E00F
E00F
E00F
ENDCHAR
STARTCHAR 0049
ENCODING 73
SWIDTH 400 0
DWIDTH 12 0
BBX 9 21 2 0
BITMAP
FF80
FF80
FF80
1C00
1C00
1C00
1C00
1C00
1C00
1C00
1C00
1C00
1C00
1C00
1C00
1C00
1C00
1C00
FF80
FF80
FF80
ENDCHAR
STARTCHAR 004A
ENCODING 74
SWIDTH 533 0
DWIDTH 16 0
BBX 12 21 1 0
BITMAP
3FF0
3FF0
3FF0
0070
0070
0070
0070
0070
0070
0070
0070
0070
0070
0070
0070
6070
E070
F0F0
7FE0
3FE0
1F80
ENDCHAR
STARTCHAR 004B
ENCODING 75
SWIDTH 666 0
DWIDTH 20 0
BBX 16 21 3 0
BITMAP
E01F
E03C
E03C
E078
E0F0
E1E0
E3C0
E380
E780
EF80
FF80
FFC0
F9E0
F1E0
E0F0
E078
E078
E03C
E01E
E01E
E00F
ENDCHAR
STARTCHAR 004C
ENCODING 76
SWIDTH 500 0
DWIDTH 15 0
BBX 11 21 3 0
BITMAP
E000
E000
E000
E000
E000
E000
E000
E000
E000
E000
E000
E000
E000
E000
E000
E000
E000
E000
FFE0
FFE0
FFE0
ENDCHAR
STARTCHAR 004D
ENCODING 77
SWIDTH 800 0
DWIDTH 24 0
BBX 19 21 3 0
BITMAP
F001E0
F003E0
F803E0
F807E0
FC07E0
FC0EE0
EE0EE0
EE1CE0
E71CE0
E738E0
E3B8E0
E3F0E0
E1F0E0
E1E0E0
E0E0E0
E0C0E0
E080E0
E000E0
E000E0
E000E0
E000E0
ENDCHAR
STARTCHAR 004E
ENCODING 78
SWIDTH 700 0
DWIDTH 21 0
BBX 16 21 3 0
BITMAP
F007
F007
F807
F807
FC07
FE07
EE07
EF07
E707
E787
E3C7
E3C7
E1E7
E0E7
E0F7
E077
E07F
E03F
E01F
E01F
E00F
ENDCHAR
STARTCHAR 004F
ENCODING 79
SWIDTH 700 0
DWIDTH 21 0
BBX 18 21 2 0
BITMAP
07F000
1FFC00
3FFE00
7C1F00
780F00
F00780
F00380
E00380
E003C0
E003C0
E003C0
E003C0
E003C0
E00380
F00380
F00780
780700
7C1F00
3FFE00
1FFC00
07F000
ENDCHAR
STARTCHAR 0050
ENCODING 80
SWIDTH 633 0
DWIDTH 19 0
BBX 15 21 3 0
BITMAP
FFE0
FFF8
FFFC
E03C
E01C
E01E
E01E
E01E
E01C
E03C
FFFC
FFF8
FFE0
E000
E000
E000
E000
E000
E000
E000
E000
ENDCHAR
STARTCHAR 0051
ENCODING 81
SWIDTH 700 0
DWIDTH 21 0
BBX 18 26 2 -5
BITMAP
07F000
1FFC00
3FFE00
7C1F00
780F00
F00780
F00380
E00380
E003C0
E003C0
E003C0
E003C0
E003C0
E00380
F00380
F00780
780700
7C1F00
3FFE00
1FFC00
07F000
01C000
01C000
01FC00
00FC00
007C00
ENDCHAR
STARTCHAR 0052
ENCODING 82
SWIDTH 666 0
DWIDTH 20 0
BBX 15 21 3 0
BITMAP
FFE0
FFF8
FFFC
E03C
E01C
E01E
E01E
E01E
E01C
E03C
FFFC
FFF8
FFE0
E1E0
E0F0
E0F0
E078
E078
E03C
E01C
E01E
ENDCHAR
STARTCHAR 0053
ENCODING 83
SWIDTH 600 0
DWIDTH 18 0
BBX 15 21 1 0
BITMAP
07E0
1FF8
3FFE
7C1E
700C
7000
7000
7800
7F00
3FF0
1FFC
03FE
001E
000E
000E
200E
700E
F81E
7FFC
3FF8
0FE0
ENDCHAR
STARTCHAR 0054
ENCODING 84
SWIDTH 566 0
DWIDTH 17 0
BBX 16 21 1 0
BITMAP
FFFF
FFFF
FFFF
0380
0380
0380
0380
0380
0380
0380
0380
0380
0380
0380
0380
0380
0380
0380
0380
0380
0380
ENDCHAR
STARTCHAR 0055
ENCODING 85
SWIDTH 700 0
DWIDTH 21 0
BBX 16 21 2 0
BITMAP
F007
F007
F007
F007
F007
F007
F007
F007
F007
F007
F007
F007
F007
F007
7007
700F
780F
7C1E
3FFE
1FFC
07F0
ENDCHAR
STARTCHAR 0056
ENCODING 86
SWIDTH 633 0
DWIDTH 19 0
BBX 17 21 1 0
BITMAP
E00380
F00780
F00700
700700
700F00
780E00
380E00
381E00
3C1C00
1C1C00
1C1C00
1E3800
0E3800
0E3800
0F7800
077000
077000
077000
03E000
03E000
03E000
ENDCHAR
STARTCHAR 0057
ENCODING 87
SWIDTH 933 0
DWIDTH 28 0
BBX 26 21 1 0
BITMAP
E01E01C0
E01E03C0
F03E0380
703F0380
703F0380
70370380
78730700
78738700
38738700
38638700
38E18E00
3CE1CE00
1CE1CE00
1CC1CE00
1DC1CE00
1DC0FC00
0FC0FC00
0F80FC00
0F80FC00
0F807800
07807800
ENDCHAR
STARTCHAR 0058
ENCODING 88
SWIDTH 633 0
DWIDTH 19 0
BBX 18 21 1 0
BITMAP
F00780
780700
780F00
3C1E00
1E1C00
1E3C00
0F7800
077000
07F000
03E000
03E000
03E000
07F000
0F7800
0E3800
1E3C00
3C1E00
381E00
780F00
700780
F007C0
ENDCHAR
STARTCHAR 0059
ENCODING 89
SWIDTH 633 0
DWIDTH 19 0
BBX 18 21 0 0
BITMAP
F003C0
780380
3C0780
3C0F00
1E0F00
0E1E00
0F1C00
073C00
07B800
03F800
03F000
01E000
00E000
00E000
00E000
00E000
00E000
00E000
00E000
00E000
00E000
ENDCHAR
STARTCHAR 005A
ENCODING 90
SWIDTH 600 0
DWIDTH 18 0
BBX 16 21 1 0
BITMAP
7FFE
7FFE
7FFE
001E
003C
0038
0078
00F0
01E0
01C0
03C0
0780
0F00
1E00
1E00
3C00
7800
F000
FFFF
FFFF
FFFF
ENDCHAR
STARTCHAR 005B
ENCODING 91
SWIDTH 333 0
DWIDTH 10 0
BBX 5 27 3 -4
BITMAP
F8
F8
E0
E0
E0
E0
E0
E0
E0
E0
E0
E0
E0
E0
E0
E0
E0
E0
E0
E0
E0
E0
E0
E0
E0
F8
F8
ENDCHAR
STARTCHAR 005C
ENCODING 92
SWIDTH 433 0
DWIDTH 13 0
BBX 11 27 1 -5
BITMAP
E000
6000
7000
7000
3000
3800
3800
3800
1C00
1C00
1C00
0E00
0E00
0E00
0600
0700
0700
0300
0380
0380
0380
01C0
01C0
01C0
00E0
00E0
00E0
ENDCHAR
STARTCHAR 005D
ENCODING 93
SWIDTH 333 0
DWIDTH 10 0
BBX 5 27 2 -4
BITMAP
F8
F8
38
38
38
38
38
38
38
38
38
38
38
38
38
38
38
38
38
38
38
38
38
38
38
F8
F8
ENDCHAR
STARTCHAR 005E
ENCODING 94
SWIDTH 600 0
DWIDTH 18 0
BBX 16 12 1 9
BITMAP
03C0
03C0
07E0
07E0
0E70
1E78
1C38
3C3C
381C
701E
700E
E007
ENDCHAR
STARTCHAR 005F
ENCODING 95
SWIDTH 566 0
DWIDTH 17 0
BBX 15 3 1 -5
BITMAP
FFFE
FFFE
FFFE
ENDCHAR
STARTCHAR 0060
ENCODING 96
SWIDTH 600 0
DWIDTH 18 0
BBX 6 6 5 17
BITMAP
60
F0
70
38
18
1C
ENDCHAR
STARTCHAR 0061
ENCODING 97
SWIDTH 533 0
DWIDTH 16 0
BBX 15 15 1 0
BITMAP
0FC0
3FF0
7FF0
3078
0038
0038
1FF8
7FF8
7038
F038
F038
F078
7FBE
7FBE
1F1E
ENDCHAR
STARTCHAR 0062
ENCODING 98
SWIDTH 600 0
DWIDTH 18 0
BBX 14 22 2 0
BITMAP
F000
F000
F000
F000
F000
F000
F000
F3E0
F7F0
FFF8
F87C
F03C
F01C
F01C
F01C
F01C
F01C
F03C
F87C
FFF8
F7F0
F3E0
ENDCHAR
STARTCHAR 0063
ENCODING 99
SWIDTH 500 0
DWIDTH 15 0
BBX 14 15 1 0
BITMAP
0FC0
1FF0
3FF8
7878
7038
F000
F000
F000
F000
F020
7038
787C
3FF8
1FF0
0FC0
ENDCHAR
STARTCHAR 0064
ENCODING 100
SWIDTH 600 0
DWIDTH 18 0
BBX 14 22 1 0
BITMAP
001C
001C
001C
001C
001C
001C
001C
0F9C
3FDC
3FFC
7C3C
701C
701C
F01C
F01C
F01C
701C
701C
783C
3FFC
3FDC
0F9C
ENDCHAR
STARTCHAR 0065
ENCODING 101
SWIDTH 566 0
DWIDTH 17 0
BBX 14 15 1 0
BITMAP
07C0
1FF0
3FF8
783C
701C
F01C
FFFC
FFFC
F000
F000
7010
7838
3FFC
1FF0
07E0
ENDCHAR
STARTCHAR 0066
ENCODING 102
SWIDTH 333 0
DWIDTH 10 0
BBX 9 22 1 0
BITMAP
0F80
1F80
3F80
3800
3800
3800
3800
FF80
FF80
FF80
3800
3800
3800
3800
3800
3800
3800
3800
3800
3800
3800
3800
ENDCHAR
STARTCHAR 0067
ENCODING 103
SWIDTH 533 0
DWIDTH 16 0
BBX 15 24 1 -6
BITMAP
001C
003C
003C
0FE0
3FF0
7FF8
7878
7038
7038
7878
3FF8
1FF0
1FC0
7000
7000
7FF8
7FFC
1FFE
601E
E00E
E01E
FFFC
7FFC
1FE0
ENDCHAR
STARTCHAR 0068
ENCODING 104
SWIDTH 566 0
DWIDTH 17 0
BBX 13 22 2 0
BITMAP
F000
F000
F000
F000
F000
F000
F000
F3E0
F7F0
FFF8
F878
F038
F038
F038
F038
F038
F038
F038
F038
F038
F038
F038
ENDCHAR
STARTCHAR 0069
ENCODING 105
SWIDTH 266 0
DWIDTH 8 0
BBX 4 22 2 0
BITMAP
E0
F0
F0
E0
00
00
00
F0
F0
F0
F0
F0
F0
F0
F0
F0
F0
F0
F0
F0
F0
F0
ENDCHAR
STARTCHAR 006A
ENCODING 106
SWIDTH 266 0
DWIDTH 8 0
BBX 6 28 0 -6
BITMAP
38
3C
3C
38
00
00
00
3C
3C
3C
3C
3C
3C
3C
3C
3C
3C
3C
3C
3C
3C
3C
3C
3C
3C
F8
F8
F0
ENDCHAR
STARTCHAR 006B
ENCODING 107
SWIDTH 533 0
DWIDTH 16 0
BBX 14 22 2 0
BITMAP
F000
F000
F000
F000
F000
F000
F000
F078
F0F0
F1E0
F3C0
F380
F700
FF00
FF80
FBC0
F1C0
F1E0
F0F0
F070
F078
F03C
ENDCHAR
STARTCHAR 006C
ENCODING 108
SWIDTH 300 0
DWIDTH 9 0
BBX 6 22 2 0
BITMAP
F0
F0
F0
F0
F0
F0
F0
F0
F0
F0
F0
F0
F0
F0
F0
F0
F0
F0
F0
FC
7C
3C
ENDCHAR
STARTCHAR 006D
ENCODING 109
SWIDTH 866 0
DWIDTH 26 0
BBX 22 15 2 0
BITMAP
F3C1F0
F7F3F8
FFF7FC
F87C3C
F0781C
F0381C
F0381C
F0381C
F0381C
F0381C
F0381C
F0381C
F0381C
F0381C
F0381C
ENDCHAR
STARTCHAR 006E
ENCODING 110
SWIDTH 566 0
DWIDTH 17 0
BBX 13 15 2 0
BITMAP
F3E0
F7F0
FFF8
F878
F038
F038
F038
F038
F038
F038
F038
F038
F038
F038
F038
ENDCHAR
STARTCHAR 006F
ENCODING 111
SWIDTH 566 0
DWIDTH 17 0
BBX 15 15 1 0
BITMAP
07C0
1FF0
3FF8
783C
701C
F01C
F01E
F01E
F01E
F01C
701C
783C
3FF8
1FF0
07C0
ENDCHAR
STARTCHAR 0070
ENCODING 112
SWIDTH 600 0
DWIDTH 18 0
BBX 14 21 2 -6
BITMAP
F3E0
F7F0
FFF8
F87C
F03C
F01C
F01C
F01C
F01C
F01C
F03C
F87C
FFF8
F7F0
F3E0
F000
F000
F000
F000
F000
F000
ENDCHAR
STARTCHAR 0071
ENCODING 113
SWIDTH 600 0
DWIDTH 18 0
BBX 14 21 1 -6
BITMAP
0F9C
3FDC
3FFC
7C3C
701C
701C
F01C
F01C
F01C
701C
701C
783C
3FFC
3FDC
0F9C
001C
001C
001C
001C
001C
001C
ENDCHAR
STARTCHAR 0072
ENCODING 114
SWIDTH 366 0
DWIDTH 11 0
BBX 9 15 2 0
BITMAP
F380
FF80
FF80
F800
F000
F000
F000
F000
F000
F000
F000
F000
F000
F000
F000
ENDCHAR
STARTCHAR 0073
ENCODING 115
SWIDTH 500 0
DWIDTH 15 0
BBX 12 15 1 0
BITMAP
1F80
3FE0
7FF0
7060
7000
7800
7FC0
3FE0
1FF0
0070
4070
7070
FFF0
7FE0
1F80
ENDCHAR
STARTCHAR 0074
ENCODING 116
SWIDTH 366 0
DWIDTH 11 0
BBX 9 20 1 0
BITMAP
1800
1800
1800
1800
3800
FF80
FF80
FF80
3800
3800
3800
3800
3800
3800
3800
3800
3800
3F80
1F80
1F80
ENDCHAR
STARTCHAR 0075
ENCODING 117
SWIDTH 566 0
DWIDTH 17 0
BBX 13 15 2 0
BITMAP
E038
E038
E038
E038
E038
E038
E038
E038
E038
F038
F038
F878
7FB8
7FB8
1F38
ENDCHAR
STARTCHAR 0076
ENCODING 118
SWIDTH 500 0
DWIDTH 15 0
BBX 15 15 0 0
BITMAP
F00E
701C
781C
381C
3838
3C38
1C78
1C70
1E70
0E70
0EE0
0EE0
07C0
07C0
03C0
ENDCHAR
STARTCHAR 0077
ENCODING 119
SWIDTH 800 0
DWIDTH 24 0
BBX 22 15 1 0
BITMAP
E0781C
E0781C
F0783C
70FC38
70FC38
70FC38
38CE70
39CE70
39CE70
398670
1F87E0
1F87E0
1F03E0
0F03C0
0F03C0
ENDCHAR
STARTCHAR 0078
ENCODING 120
SWIDTH 533 0
DWIDTH 16 0
BBX 14 15 1 0
BITMAP
F03C
7838
3870
3CF0
1EE0
0FC0
0FC0
0780
0FC0
0FC0
1CE0
38F0
7878
7038
E03C
ENDCHAR
STARTCHAR 0079
ENCODING 121
SWIDTH 500 0
DWIDTH 15 0
BBX 15 21 0 -6
BITMAP
F00E
701E
781C
381C
3838
3C38
1C38
1C70
1E70
0EF0
0EE0
07E0
07E0
07C0
03C0
0380
0380
0780
3F00
3F00
3E00
ENDCHAR
STARTCHAR 007A
ENCODING 122
SWIDTH 500 0
DWIDTH 15 0
BBX 13 15 1 0
BITMAP
FFF0
FFF0
FFF0
00F0
01E0
03C0
0780
0F00
1E00
3C00
7800
7000
FFF8
FFF8
FFF8
ENDCHAR
STARTCHAR 007B
ENCODING 123
SWIDTH 366 0
DWIDTH 11 0
BBX 8 27 1 -4
BITMAP
1F
1F
18
18
18
18
18
18
18
38
38
78
F0
C0
F0
78
38
18
18
18
18
18
18
18
18
1F
1F
ENDCHAR
STARTCHAR 007C
ENCODING 124
SWIDTH 366 0
DWIDTH 11 0
BBX 3 27 4 -4
BITMAP
E0
E0
E0
E0
E0
E0
E0
E0
E0
E0
E0
E0
E0
E0
E0
E0
E0
E0
E0
E0
E0
E0
E0
E0
E0
E0
E0
ENDCHAR
STARTCHAR 007D
ENCODING 125
SWIDTH 366 0
DWIDTH 11 0
BBX 8 27 2 -4
BITMAP
F0
F8
38
38
38
38
38
38
38
38
38
1C
0F
07
0F
1C
38
38
38
38
38
38
38
38
38
F8
F0
ENDCHAR
STARTCHAR 007E
ENCODING 126
SWIDTH 600 0
DWIDTH 18 0
BBX 14 5 2 7
BITMAP
7C00
FF08
FFFC
43FC
00F8
ENDCHAR
STARTCHAR 00A0
ENCODING 160
SWIDTH 233 0
DWIDTH 7 0
BBX 0 0 0 0
BITMAP
ENDCHAR
STARTCHAR 00A1
ENCODING 161
SWIDTH 300 0
DWIDTH 9 0
BBX 5 20 2 -5
BITMAP
70
F8
F8
70
00
00
20
20
70
70
70
70
70
70
70
70
70
70
70
70
ENDCHAR
STARTCHAR 00A2
ENCODING 162
SWIDTH 533 0
DWIDTH 16 0
BBX 14 21 1 -3
BITMAP
0380
0380
0380
0FC0
1FF0
3FF8
7BB8
739C
F380
F380
F380
F380
F380
7398
7BBC
3FF8
1FF0
0FC0
0380
0380
0380
ENDCHAR
STARTCHAR 00A3
ENCODING 163
SWIDTH 600 0
DWIDTH 18 0
BBX 16 21 1 0
BITMAP
03F0
0FFC
1FFE
3E1F
3C0C
3800
3800
3800
3C00
FFF0
FFF0
FFF0
0E00
0E00
1E00
1C00
3C00
7800
7FFE
7FFE
7FFE
ENDCHAR
STARTCHAR 00A4
ENCODING 164
SWIDTH 633 0
DWIDTH 19 0
BBX 18 18 0 2
BITMAP
200080
7001C0
FBF3C0
3FFF80
1FFF00
1E1E00
1C0F00
1C0700
3C0700
3C0700
1C0700
1C0F00
1E1E00
1FFF00
3FFF80
7BF3C0
F001C0
200080
ENDCHAR
STARTCHAR 00A5
ENCODING 165
SWIDTH 633 0
DWIDTH 19 0
BBX 17 21 1 0
BITMAP
F00780
700F00
780F00
3C1E00
3C1C00
1E3C00
1E3800
0F7800
0F7000
07F000
7FFE00
7FFE00
01C000
01C000
7FFE00
7FFE00
01C000
01C000
01C000
01C000
01C000
ENDCHAR
STARTCHAR 00A6
ENCODING 166
SWIDTH 366 0
DWIDTH 11 0
BBX 3 27 4 -4
BITMAP
E0
E0
E0
E0
E0
E0
E0
E0
E0
E0
E0
00
00
00
00
00
E0
E0
E0
E0
E0
E0
E0
E0
E0
E0
E0
ENDCHAR
STARTCHAR 00A7
ENCODING 167
SWIDTH 566 0
DWIDTH 17 0
BBX 13 26 2 -5
BITMAP
0FC0
3FF0
3FF8
7870
7000
7000
7800
3F00
3FE0
1FF0
71F8
E078
E038
E038
F038
FC30
7FC0
1FE0
03F0
0070
0070
0070
30F0
7FF0
3FE0
1F80
ENDCHAR
STARTCHAR 00A8
ENCODING 168
SWIDTH 600 0
DWIDTH 18 0
BBX 10 4 4 18
BITMAP
6180
F3C0
F3C0
6180
ENDCHAR
STARTCHAR 00A9
ENCODING 169
SWIDTH 766 0
DWIDTH 23 0
BBX 20 21 2 0
BITMAP
03F800
0FFE00
1E0780
3801C0
7000C0
61F060
C3FC60
C7FC70
C70E30
C70030
CF0030
C70030
C70C30
C7FE70
C3FC60
61F060
7000C0
3801C0
1E0780
0FFE00
03F800
ENDCHAR
STARTCHAR 00AA
ENCODING 170
SWIDTH 433 0
DWIDTH 13 0
BBX 10 11 1 10
BITMAP
3E00
7F80
6380
4180
0180
3F80
7F80
E180
E380
7FC0
3CC0
ENDCHAR
STARTCHAR 00AB
ENCODING 171
SWIDTH 533 0
DWIDTH 16 0
BBX 13 13 1 2
BITMAP
0408
0C18
1E38
38F0
79E0
F1C0
E1C0
F1E0
78E0
3C70
1E38
0C18
0408
ENDCHAR
STARTCHAR 00AC
ENCODING 172
SWIDTH 600 0
DWIDTH 18 0
BBX 15 8 1 3
BITMAP
FFFE
FFFE
FFFE
000E
000E
000E
000E
000E
ENDCHAR
STARTCHAR 00AD
ENCODING 173
SWIDTH 400 0
DWIDTH 12 0
BBX 8 3 2 8
BITMAP
FF
FF
FF
ENDCHAR
STARTCHAR 00AE
ENCODING 174
SWIDTH 466 0
DWIDTH 14 0
BBX 12 12 1 9
BITMAP
0F80
30C0
6060
4F30
C990
C990
8F10
CB10
49B0
6060
30C0
0F80
ENDCHAR
STARTCHAR 00AF
ENCODING 175
SWIDTH 600 0
DWIDTH 18 0
BBX 8 2 5 19
BITMAP
FF
FF
ENDCHAR
STARTCHAR 00B0
ENCODING 176
SWIDTH 466 0
DWIDTH 14 0
BBX 10 11 2 10
BITMAP
1E00
7F80
7FC0
E1C0
E0C0
C0C0
C0C0
E1C0
7FC0
7F80
1E00
ENDCHAR
STARTCHAR 00B1
ENCODING 177
SWIDTH 600 0
DWIDTH 18 0
BBX 14 19 2 0
BITMAP
0300
0300
0300
0300
0300
0300
FFFC
FFFC
FFFC
0300
0300
0300
0300
0300
0000
0000
FFFC
FFFC
FFFC
ENDCHAR
STARTCHAR 00B2
ENCODING 178
SWIDTH 333 0
DWIDTH 10 0
BBX 8 11 1 10
BITMAP
3E
7F
E7
43
07
0E
1C
38
60
FF
FF
ENDCHAR
STARTCHAR 00B3
ENCODING 179
SWIDTH 333 0
DWIDTH 10 0
BBX 9 11 0 10
BITMAP
1F00
7F80
6380
0380
1F00
1F00
0380
4180
6380
FF80
3E00
ENDCHAR
STARTCHAR 00B4
ENCODING 180
SWIDTH 600 0
DWIDTH 18 0
BBX 6 6 7 17
BITMAP
18
3C
38
70
60
E0
ENDCHAR
STARTCHAR 00B5
ENCODING 181
SWIDTH 600 0
DWIDTH 18 0
BBX 13 21 2 -6
BITMAP
F038
F038
F038
F038
F038
F038
F038
F038
F038
F038
F038
F878
FFF8
FFB8
EF38
E000
F000
F000
F000
F000
F000
ENDCHAR
STARTCHAR 00B6
ENCODING 182
SWIDTH 666 0
DWIDTH 20 0
BBX 17 25 1 -4
BITMAP
0FFF80
3FFF80
3FFF80
7F8E00
7F8E00
FF8E00
FF8E00
FF8E00
7F8E00
7F8E00
3F8E00
3F8E00
0F8E00
038E00
038E00
038E00
038E00
038E00
038E00
038E00
038E00
038E00
038E00
038E00
038E00
ENDCHAR
STARTCHAR 00B7
ENCODING 183
SWIDTH 366 0
DWIDTH 11 0
BBX 5 5 3 7
BITMAP
70
F8
F8
F8
70
ENDCHAR
STARTCHAR 00B8
ENCODING 184
SWIDTH 600 0
DWIDTH 18 0
BBX 7 6 6 -6
BITMAP
30
3C
0E
4E
FE
7C
ENDCHAR
STARTCHAR 00B9
ENCODING 185
SWIDTH 366 0
DWIDTH 11 0
BBX 9 11 1 10
BITMAP
3C00
7C00
EC00
CC00
8C00
0C00
0C00
0C00
0C00
7F80
7F80
ENDCHAR
STARTCHAR 00BA
ENCODING 186
SWIDTH 400 0
DWIDTH 12 0
BBX 10 11 1 10
BITMAP
1F00
3F80
71C0
E1C0
E0C0
E0C0
E0C0
E1C0
71C0
3F80
1F00
ENDCHAR
STARTCHAR 00BB
ENCODING 187
SWIDTH 533 0
DWIDTH 16 0
BBX 13 13 2 2
BITMAP
8100
C380
E1C0
79E0
3CF0
1C78
1C38
3C78
78F0
71E0
E3C0
C180
8200
ENDCHAR
STARTCHAR 00BC
ENCODING 188
SWIDTH 833 0
DWIDTH 25 0
BBX 24 21 1 0
BITMAP
3C0038
7C0070
EC0060
CC00E0
8C01C0
0C0180
0C0380
0C0700
0C0E00
7F8C00
7F9C1C
00383C
00303C
00706C
00E0CC
01C0CC
01818C
0381FF
0701FF
0E000C
1C000C
ENDCHAR
STARTCHAR 00BD
ENCODING 189
SWIDTH 866 0
DWIDTH 26 0
BBX 24 21 1 0
BITMAP
3C0038
7C0070
EC00E0
CC00C0
8C01C0
0C0380
0C0700
0C0600
0C0E00
7F9C00
7F987C
0030FE
0071CE
00E086
00C00E
01C00C
03803C
070070
0600E0
0E01FF
1C01FF
ENDCHAR
STARTCHAR 00BE
ENCODING 190
SWIDTH 833 0
DWIDTH 25 0
BBX 24 21 0 0
BITMAP
1F001C
7F8038
638070
0380E0
1F00C0
1F01C0
038380
418300
638700
FF8E00
3E1C1E
00181E
00383E
00707E
00606E
00E0CE
01C18E
0381FF
0301FF
07000E
0E000E
ENDCHAR
STARTCHAR 00BF
ENCODING 191
SWIDTH 466 0
DWIDTH 14 0
BBX 13 21 1 -6
BITMAP
0780
0780
0780
0780
0000
0000
0780
0780
0780
0F80
3F80
7C00
7000
F000
E000
E030
F078
F8F0
7FF0
3FE0
1F80
ENDCHAR
STARTCHAR 00C0
ENCODING 192
SWIDTH 666 0
DWIDTH 20 0
BBX 18 28 1 0
BITMAP
030000
078000
038000
01C000
01C000
00E000
000000
01E000
03F000
03F000
03F000
077800
073800
073800
0E3C00
0E1C00
0E1C00
1C1E00
1C0E00
1FFE00
3FFF00
3FFF00
380700
700780
700380
F00380
F003C0
E003C0
ENDCHAR
STARTCHAR 00C1
ENCODING 193
SWIDTH 666 0
DWIDTH 20 0
BBX 18 28 1 0
BITMAP
007000
007800
00F000
00E000
01C000
00C000
000000
01E000
03F000
03F000
03F000
077800
073800
073800
0E3C00
0E1C00
0E1C00
1C1E00
1C0E00
1FFE00
3FFF00
3FFF00
380700
700780
700380
F00380
F003C0
E003C0
ENDCHAR
STARTCHAR 00C2
ENCODING 194
SWIDTH 666 0
DWIDTH 20 0
BBX 18 28 1 0
BITMAP
01E000
03F000
077800
0E1C00
040800
000000
000000
01E000
03F000
03F000
03F000
077800
073800
073800
0E3C00
0E1C00
0E1C00
1C1E00
1C0E00
1FFE00
3FFF00
3FFF00
380700
700780
700380
F00380
F003C0
E003C0
ENDCHAR
STARTCHAR 00C3
ENCODING 195
SWIDTH 666 0
DWIDTH 20 0
BBX 18 26 1 0
BITMAP
078800
0FFC00
087800
000000
000000
01E000
03F000
03F000
03F000
077800
073800
073800
0E3C00
0E1C00
0E1C00
1C1E00
1C0E00
1FFE00
3FFF00
3FFF00
380700
700780
700380
F00380
F003C0
E003C0
ENDCHAR
STARTCHAR 00C4
ENCODING 196
SWIDTH 666 0
DWIDTH 20 0
BBX 18 27 1 0
BITMAP
0E3800
0F3C00
0F3C00
0E3800
000000
000000
01E000
03F000
03F000
03F000
077800
073800
073800
0E3C00
0E1C00
0E1C00
1C1E00
1C0E00
1FFE00
3FFF00
3FFF00
380700
700780
700380
F00380
F003C0
E003C0
ENDCHAR
STARTCHAR 00C5
ENCODING 197
SWIDTH 666 0
DWIDTH 20 0
BBX 18 30 1 0
BITMAP
01E000
03F000
073800
061800
061800
073800
03F000
01E000
000000
01E000
03F000
03F000
03F000
077800
073800
073800
0E3C00
0E1C00
0E1C00
1C1E00
1C0E00
1FFE00
3FFF00
3FFF00
380700
700780
700380
F00380
F003C0
E003C0
ENDCHAR
STARTCHAR 00C6
ENCODING 198
SWIDTH 933 0
DWIDTH 28 0
BBX 26 21 0 0
BITMAP
003FFFC0
003FFFC0
007FFFC0
00770000
00E70000
00E70000
01C70000
01C70000
03870000
0387FF80
0707FF80
0707FF80
0FFF0000
0FFF0000
1FFF0000
1C070000
3C070000
38070000
7807FFC0
7007FFC0
F007FFC0
ENDCHAR
STARTCHAR 00C7
ENCODING 199
SWIDTH 633 0
DWIDTH 19 0
BBX 16 27 2 -6
BITMAP
07F0
1FF8
3FFE
7C1E
780F
F004
F000
E000
E000
E000
E000
E000
E000
E000
F000
F006
780F
7C1E
3FFC
1FF8
07F0
0180
01E0
0070
0230
07F0
03E0
ENDCHAR
STARTCHAR 00C8
ENCODING 200
SWIDTH 600 0
DWIDTH 18 0
BBX 13 28 3 0
BITMAP
1C00
3C00
1E00
0E00
0700
0200
0000
FFF8
FFF8
FFF8
E000
E000
E000
E000
E000
E000
FFF0
FFF0
FFF0
E000
E000
E000
E000
E000
E000
FFF8
FFF8
FFF8
ENDCHAR
STARTCHAR 00C9
ENCODING 201
SWIDTH 600 0
DWIDTH 18 0
BBX 13 28 3 0
BITMAP
0180
03C0
0380
0700
0700
0200
0000
FFF8
FFF8
FFF8
E000
E000
E000
E000
E000
E000
FFF0
FFF0
FFF0
E000
E000
E000
E000
E000
E000
FFF8
FFF8
FFF8
ENDCHAR
STARTCHAR 00CA
ENCODING 202
SWIDTH 600 0
DWIDTH 18 0
BBX 13 28 3 0
BITMAP
0F00
1F80
3DC0
70E0
2070
0000
0000
FFF8
FFF8
FFF8
E000
E000
E000
E000
E000
E000
FFF0
FFF0
FFF0
E000
E000
E000
E000
E000
E000
FFF8
FFF8
FFF8
ENDCHAR
STARTCHAR 00CB
ENCODING 203
SWIDTH 600 0
DWIDTH 18 0
BBX 13 27 3 0
BITMAP
38E0
79E0
79E0
38E0
0000
0000
FFF8
FFF8
FFF8
E000
E000
E000
E000
E000
E000
FFF0
FFF0
FFF0
E000
E000
E000
E000
E000
E000
FFF8
FFF8
FFF8
ENDCHAR
STARTCHAR 00CC
ENCODING 204
SWIDTH 400 0
DWIDTH 12 0
BBX 9 28 2 0
BITMAP
7000
F000
7800
3800
1C00
0800
0000
FF80
FF80
FF80
1C00
1C00
1C00
1C00
1C00
1C00
1C00
1C00
1C00
1C00
1C00
1C00
1C00
1C00
1C00
FF80
FF80
FF80
ENDCHAR
STARTCHAR 00CD
ENCODING 205
SWIDTH 400 0
DWIDTH 12 0
BBX 9 28 2 0
BITMAP
0600
0F00
0E00
1C00
1C00
1800
0000
FF80
FF80
FF80
1C00
1C00
1C00
1C00
1C00
1C00
1C00
1C00
1C00
1C00
1C00
1C00
1C00
1C00
1C00
FF80
FF80
FF80
ENDCHAR
STARTCHAR 00CE
ENCODING 206
SWIDTH 400 0
DWIDTH 12 0
BBX 10 28 1 0
BITMAP
1E00
3F00
7B80
E1C0
40C0
0000
0000
7FC0
7FC0
7FC0
0E00
0E00
0E00
0E00
0E00
0E00
0E00
0E00
0E00
0E00
0E00
0E00
0E00
0E00
0E00
7FC0
7FC0
7FC0
ENDCHAR
STARTCHAR 00CF
ENCODING 207
SWIDTH 400 0
DWIDTH 12 0
BBX 10 27 1 0
BITMAP
71C0
F3C0
F3C0
71C0
0000
0000
7FC0
7FC0
7FC0
0E00
0E00
0E00
0E00
0E00
0E00
0E00
0E00
0E00
0E00
0E00
0E00
0E00
0E00
0E00
7FC0
7FC0
7FC0
ENDCHAR
STARTCHAR 00D0
ENCODING 208
SWIDTH 700 0
DWIDTH 21 0
BBX 19 21 0 0
BITMAP
1FF800
1FFE00
1FFF00
1C0F80
1C03C0
1C01C0
1C01C0
1C01E0
1C01E0
FFC1E0
FFC1E0
FFC1E0
1C01E0
1C01E0
1C01E0
1C01C0
1C03C0
1C0F80
1FFF00
1FFE00
1FF800
ENDCHAR
STARTCHAR 00D1
ENCODING 209
SWIDTH 700 0
DWIDTH 21 0
BBX 16 26 3 0
BITMAP
0F10
3FF8
10F0
0000
0000
F007
F007
F807
F807
FC07
FE07
EE07
EF07
E707
E787
E3C7
E3C7
E1E7
E0E7
E0F7
E077
E07F
E03F
E01F
E01F
E00F
ENDCHAR
STARTCHAR 00D2
ENCODING 210
SWIDTH 700 0
DWIDTH 21 0
BBX 18 28 2 0
BITMAP
030000
078000
038000
01C000
01C000
008000
000000
07F000
1FFC00
3FFE00
7C1F00
780F00
F00780
F00380
E00380
E003C0
E003C0
E003C0
E003C0
E003C0
E00380
F00380
F00780
780700
7C1F00
3FFE00
1FFC00
07F000
ENDCHAR
STARTCHAR 00D3
ENCODING 211
SWIDTH 700 0
DWIDTH 21 0
BBX 18 28 2 0
BITMAP
007000
007800
00F000
00E000
01C000
008000
000000
07F000
1FFC00
3FFE00
7C1F00
780F00
F00780
F00380
E00380
E003C0
E003C0
E003C0
E003C0
E003C0
E00380
F00380
F00780
780700
7C1F00
3FFE00
1FFC00
07F000
ENDCHAR
STARTCHAR 00D4
ENCODING 212
SWIDTH 700 0
DWIDTH 21 0
BBX 18 28 2 0
BITMAP
01E000
03F000
077800
0E3C00
1C0800
000000
000000
07F000
1FFC00
3FFE00
7C1F00
780F00
F00780
F00380
E00380
E003C0
E003C0
E003C0
E003C0
E003C0
E00380
F00380
F00780
780700
7C1F00
3FFE00
1FFC00
07F000
ENDCHAR
STARTCHAR 00D5
ENCODING 213
SWIDTH 700 0
DWIDTH 21 0
BBX 18 26 2 0
BITMAP
078800
1FFC00
087800
000000
000000
07F000
1FFC00
3FFE00
7C1F00
780F00
F00780
F00380
E00380
E003C0
E003C0
E003C0
E003C0
E003C0
E00380
F00380
F00780
780700
7C1F00
3FFE00
1FFC00
07F000
ENDCHAR
STARTCHAR 00D6
ENCODING 214
SWIDTH 700 0
DWIDTH 21 0
BBX 18 27 2 0
BITMAP
0E3800
0F3C00
0F3C00
0E3800
000000
000000
07F000
1FFC00
3FFE00
7C1F00
780F00
F00780
F00380
E00380
E003C0
E003C0
E003C0
E003C0
E003C0
E00380
F00380
F00780
780700
7C1F00
3FFE00
1FFC00
07F000
ENDCHAR
STARTCHAR 00D7
ENCODING 215
SWIDTH 600 0
DWIDTH 18 0
BBX 12 13 3 2
BITMAP
4020
E070
F0F0
79E0
3FC0
1F80
0F00
1F80
3FC0
79E0
F0F0
E070
4020
ENDCHAR
STARTCHAR 00D8
ENCODING 216
SWIDTH 700 0
DWIDTH 21 0
BBX 18 23 2 -1
BITMAP
000100
07F380
1FFF80
3FFF00
7C1F00
781F00
F01F80
F03B80
E07380
E073C0
E0E3C0
E1C3C0
E383C0
E383C0
E70380
FE0380
FE0780
7C0700
3C1F00
7FFE00
7FFC00
E7F000
600000
ENDCHAR
STARTCHAR 00D9
ENCODING 217
SWIDTH 700 0
DWIDTH 21 0
BBX 16 28 2 0
BITMAP
0700
0F00
0780
0380
01C0
0080
0000
F007
F007
F007
F007
F007
F007
F007
F007
F007
F007
F007
F007
F007
F007
7007
700F
780F
7C1E
3FFE
1FFC
07F0
ENDCHAR
STARTCHAR 00DA
ENCODING 218
SWIDTH 700 0
DWIDTH 21 0
BBX 16 28 2 0
BITMAP
0060
00F0
00E0
01C0
01C0
0080
0000
F007
F007
F007
F007
F007
F007
F007
F007
F007
F007
F007
F007
F007
F007
7007
700F
780F
7C1E
3FFE
1FFC
07F0
ENDCHAR
STARTCHAR 00DB
ENCODING 219
SWIDTH 700 0
DWIDTH 21 0
BBX 16 28 2 0
BITMAP
03C0
07E0
0F70
1E38
081C
0000
0000
F007
F007
F007
F007
F007
F007
F007
F007
F007
F007
F007
F007
F007
F007
7007
700F
780F
7C1E
3FFE
1FFC
07F0
ENDCHAR
STARTCHAR 00DC
ENCODING 220
SWIDTH 700 0
DWIDTH 21 0
BBX 16 27 2 0
BITMAP
0E38
1E78
1E78
0E38
0000
0000
F007
F007
F007
F007
F007
F007
F007
F007
F007
F007
F007
F007
F007
F007
7007
700F
780F
7C1E
3FFE
1FFC
07F0
ENDCHAR
STARTCHAR 00DD
ENCODING 221
SWIDTH 633 0
DWIDTH 19 0
BBX 18 28 0 0
BITMAP
003000
007800
007000
00E000
00E000
004000
000000
F003C0
780380
3C0780
3C0F00
1E0F00
0E1E00
0F1C00
073C00
07B800
03F800
03F000
01E000
00E000
00E000
00E000
00E000
00E000
00E000
00E000
00E000
00E000
ENDCHAR
STARTCHAR 00DE
ENCODING 222
SWIDTH 633 0
DWIDTH 19 0
BBX 15 21 3 0
BITMAP
E000
E000
E000
E000
FFE0
FFF8
FFFC
E03C
E01C
E01E
E01E
E01E
E01C
E03C
FFFC
FFF8
FFE0
E000
E000
E000
E000
ENDCHAR
STARTCHAR 00DF
ENCODING 223
SWIDTH 666 0
DWIDTH 20 0
BBX 18 22 1 0
BITMAP
03F000
0FFC00
1FFE00
1E1E00
3C0F00
3C0700
380700
F81F00
F87F00
F8FF00
38F000
38E000
38F800
387F00
387F80
381FC0
3803C0
3881C0
38E3C0
39FF80
38FF80
383E00
ENDCHAR
STARTCHAR 00E0
ENCODING 224
SWIDTH 533 0
DWIDTH 16 0
BBX 15 23 1 0
BITMAP
0C00
1E00
0E00
0700
0700
0280
0000
0000
0FC0
3FF0
7FF0
3078
0038
0038
1FF8
7FF8
7038
F038
F038
F078
7FBE
7FBE
1F1E
ENDCHAR
STARTCHAR 00E1
ENCODING 225
SWIDTH 533 0
DWIDTH 16 0
BBX 15 23 1 0
BITMAP
01C0
01E0
03C0
0380
0700
0200
0000
0000
0FC0
3FF0
7FF0
3078
0038
0038
1FF8
7FF8
7038
F038
F038
F078
7FBE
7FBE
1F1E
ENDCHAR
STARTCHAR 00E2
ENCODING 226
SWIDTH 533 0
DWIDTH 16 0
BBX 15 24 1 0
BITMAP
0780
0FC0
1DC0
38E0
3870
1020
0000
0000
0000
0FC0
3FF0
7FF0
3078
0038
0038
1FF8
7FF8
7038
F038
F038
F078
7FBE
7FBE
1F1E
ENDCHAR
STARTCHAR 00E3
ENCODING 227
SWIDTH 533 0
DWIDTH 16 0
BBX 15 21 1 0
BITMAP
1E20
3FF0
61E0
0000
0000
0000
0FC0
3FF0
7FF0
3078
0038
0038
1FF8
7FF8
7038
F038
F038
F078
7FBE
7FBE
1F1E
ENDCHAR
STARTCHAR 00E4
ENCODING 228
SWIDTH 533 0
DWIDTH 16 0
BBX 15 22 1 0
BITMAP
38E0
3CF0
3CF0
38E0
0000
0000
0000
0FC0
3FF0
7FF0
3078
0038
0038
1FF8
7FF8
7038
F038
F038
F078
7FBE
7FBE
1F1E
ENDCHAR
STARTCHAR 00E5
ENCODING 229
SWIDTH 533 0
DWIDTH 16 0
BBX 15 25 1 0
BITMAP
0780
0FC0
18C0
18E0
18E0
18C0
0FC0
0780
0000
0000
0FC0
3FF0
7FF0
3078
0038
0038
1FF8
7FF8
7038
F038
F038
F078
7FBE
7FBE
1F1E
ENDCHAR
STARTCHAR 00E6
ENCODING 230
SWIDTH 866 0
DWIDTH 26 0
BBX 24 15 1 0
BITMAP
0F83F0
3FC7F8
7FEFFC
307C1E
20380E
00380F
1FFFFF
7FFFFF
703800
F03800
F03C04
F0FE1E
7FCFFE
7FC7FC
1F03F0
ENDCHAR
STARTCHAR 00E7
ENCODING 231
SWIDTH 500 0
DWIDTH 15 0
BBX 14 21 1 -6
BITMAP
0FC0
1FF0
3FF8
7878
7038
F000
F000
F000
F000
F020
7038
787C
3FF8
1FF0
0FC0
0300
03C0
00E0
0460
0FE0
07C0
ENDCHAR
STARTCHAR 00E8
ENCODING 232
SWIDTH 566 0
DWIDTH 17 0
BBX 14 23 1 0
BITMAP
0600
0E00
0700
0700
0380
0100
0000
0000
07C0
1FF0
3FF8
783C
701C
F01C
FFFC
FFFC
F000
F000
7010
7838
3FFC
1FF0
07E0
ENDCHAR
STARTCHAR 00E9
ENCODING 233
SWIDTH 566 0
DWIDTH 17 0
BBX 14 23 1 0
BITMAP
00C0
00E0
01C0
01C0
0380
0100
0000
0000
07C0
1FF0
3FF8
783C
701C
F01C
FFFC
FFFC
F000
F000
7010
7838
3FFC
1FF0
07E0
ENDCHAR
STARTCHAR 00EA
ENCODING 234
SWIDTH 566 0
DWIDTH 17 0
BBX 14 24 1 0
BITMAP
07C0
07C0
0EE0
1C70
3838
1010
0000
0000
0000
07C0
1FF0
3FF8
783C
701C
F01C
FFFC
FFFC
F000
F000
7010
7838
3FFC
1FF0
07E0
ENDCHAR
STARTCHAR 00EB
ENCODING 235
SWIDTH 566 0
DWIDTH 17 0
BBX 14 22 1 0
BITMAP
1C70
1C70
1C70
1C70
0000
0000
0000
07C0
1FF0
3FF8
783C
701C
F01C
FFFC
FFFC
F000
F000
7010
7838
3FFC
1FF0
07E0
ENDCHAR
STARTCHAR 00EC
ENCODING 236
SWIDTH 266 0
DWIDTH 8 0
BBX 6 23 0 0
BITMAP
60
F0
70
38
18
1C
00
00
3C
3C
3C
3C
3C
3C
3C
3C
3C
3C
3C
3C
3C
3C
3C
ENDCHAR
STARTCHAR 00ED
ENCODING 237
SWIDTH 266 0
DWIDTH 8 0
BBX 6 23 2 0
BITMAP
18
3C
38
70
60
E0
00
00
F0
F0
F0
F0
F0
F0
F0
F0
F0
F0
F0
F0
F0
F0
F0
ENDCHAR
STARTCHAR 00EE
ENCODING 238
SWIDTH 266 0
DWIDTH 8 0
BBX 10 24 -1 0
BITMAP
1E00
3F00
7F80
7380
E1C0
4080
0000
0000
0000
1E00
1E00
1E00
1E00
1E00
1E00
1E00
1E00
1E00
1E00
1E00
1E00
1E00
1E00
1E00
ENDCHAR
STARTCHAR 00EF
ENCODING 239
SWIDTH 266 0
DWIDTH 8 0
BBX 10 22 -1 0
BITMAP
6180
F3C0
F3C0
6180
0000
0000
0000
1E00
1E00
1E00
1E00
1E00
1E00
1E00
1E00
1E00
1E00
1E00
1E00
1E00
1E00
1E00
ENDCHAR
STARTCHAR 00F0
ENCODING 240
SWIDTH 566 0
DWIDTH 17 0
BBX 15 22 1 0
BITMAP
3E30
0FF0
07C0
07E0
0EF0
0870
0078
0FB8
1FDC
3FFC
783C
701E
F01E
F01E
F01E
F01E
701C
701C
783C
3FF8
1FF0
07C0
ENDCHAR
STARTCHAR 00F1
ENCODING 241
SWIDTH 566 0
DWIDTH 17 0
BBX 13 21 2 0
BITMAP
1E20
3FF0
61E0
0000
0000
0000
F3E0
F7F0
FFF8
F878
F038
F038
F038
F038
F038
F038
F038
F038
F038
F038
F038
ENDCHAR
STARTCHAR 00F2
ENCODING 242
SWIDTH 566 0
DWIDTH 17 0
BBX 15 23 1 0
BITMAP
0600
0E00
0700
0700
0380
0100
0000
0000
07C0
1FF0
3FF8
783C
701C
F01C
F01E
F01E
F01E
F01C
701C
783C
3FF8
1FF0
07C0
ENDCHAR
STARTCHAR 00F3
ENCODING 243
SWIDTH 566 0
DWIDTH 17 0
BBX 15 23 1 0
BITMAP
00C0
01E0
01C0
03C0
0380
0100
0000
0000
07C0
1FF0
3FF8
783C
701C
F01C
F01E
F01E
F01E
F01C
701C
783C
3FF8
1FF0
07C0
ENDCHAR
STARTCHAR 00F4
ENCODING 244
SWIDTH 566 0
DWIDTH 17 0
BBX 15 24 1 0
BITMAP
07C0
07C0
0EE0
1C70
3838
1010
0000
0000
0000
07C0
1FF0
3FF8
783C
701C
F01C
F01E
F01E
F01E
F01C
701C
783C
3FF8
1FF0
07C0
ENDCHAR
STARTCHAR 00F5
ENCODING 245
SWIDTH 566 0
DWIDTH 17 0
BBX 15 21 1 0
BITMAP
1F10
3FF8
11F0
0000
0000
0000
07C0
1FF0
3FF8
783C
701C
F01C
F01E
F01E
F01E
F01C
701C
783C
3FF8
1FF0
07C0
ENDCHAR
STARTCHAR 00F6
ENCODING 246
SWIDTH 566 0
DWIDTH 17 0
BBX 15 22 1 0
BITMAP
1C70
1C70
1C70
1C70
0000
0000
0000
07C0
1FF0
3FF8
783C
701C
F01C
F01E
F01E
F01E
F01C
701C
783C
3FF8
1FF0
07C0
ENDCHAR
STARTCHAR 00F7
ENCODING 247
SWIDTH 600 0
DWIDTH 18 0
BBX 14 15 2 2
BITMAP
0780
0780
0780
0780
0000
0000
FFFC
FFFC
FFFC
0000
0000
0780
0780
0780
0780
ENDCHAR
STARTCHAR 00F8
ENCODING 248
SWIDTH 566 0
DWIDTH 17 0
BBX 15 17 1 -1
BITMAP
0004
07CE
1FFC
3FFC
783C
707C
70FC
F1DE
F39E
F71E
7E1E
7C1C
783C
3FF8
7FF0
E7C0
4000
ENDCHAR
STARTCHAR 00F9
ENCODING 249
SWIDTH 566 0
DWIDTH 17 0
BBX 13 23 2 0
BITMAP
0C00
1E00
0E00
0700
0700
0200
0000
0000
E038
E038
E038
E038
E038
E038
E038
E038
E038
F038
F038
F878
7FB8
7FB8
1F38
ENDCHAR
STARTCHAR 00FA
ENCODING 250
SWIDTH 566 0
DWIDTH 17 0
BBX 13 23 2 0
BITMAP
01C0
01E0
0380
0380
0700
0200
0000
0000
E038
E038
E038
E038
E038
E038
E038
E038
E038
F038
F038
F878
7FB8
7FB8
1F38
ENDCHAR
STARTCHAR 00FB
ENCODING 251
SWIDTH 566 0
DWIDTH 17 0
BBX 13 24 2 0
BITMAP
0780
0FC0
1DC0
38E0
3070
7020
0000
0000
0000
E038
E038
E038
E038
E038
E038
E038
E038
E038
F038
F038
F878
7FB8
7FB8
1F38
ENDCHAR
STARTCHAR 00FC
ENCODING 252
SWIDTH 566 0
DWIDTH 17 0
BBX 13 22 2 0
BITMAP
38E0
3CF0
3CF0
38E0
0000
0000
0000
E038
E038
E038
E038
E038
E038
E038
E038
E038
F038
F038
F878
7FB8
7FB8
1F38
ENDCHAR
STARTCHAR 00FD
ENCODING 253
SWIDTH 500 0
DWIDTH 15 0
BBX 15 29 0 -6
BITMAP
00E0
00F0
01E0
01C0
0380
0100
0000
0000
F00E
701E
781C
381C
3838
3C38
1C38
1C70
1E70
0EF0
0EE0
07E0
07E0
07C0
03C0
0380
0380
0780
3F00
3F00
3E00
ENDCHAR
STARTCHAR 00FE
ENCODING 254
SWIDTH 600 0
DWIDTH 18 0
BBX 14 28 2 -6
BITMAP
F000
F000
F000
F000
F000
F000
F000
F3E0
F7F0
FFF8
F87C
F03C
F01C
F01C
F01C
F01C
F01C
F03C
F87C
FFF8
F7F0
F3E0
F000
F000
F000
F000
F000
F000
ENDCHAR
STARTCHAR 00FF
ENCODING 255
SWIDTH 500 0
DWIDTH 15 0
BBX 15 28 0 -6
BITMAP
1C70
1E78
1E78
1C70
0000
0000
0000
F00E
701E
781C
381C
3838
3C38
1C38
1C70
1E70
0EF0
0EE0
07E0
07E0
07C0
03C0
0380
0380
0780
3F00
3F00
3E00
ENDCHAR
STARTCHAR 0100
ENCODING 256
SWIDTH 666 0
DWIDTH 20 0
BBX 18 26 1 0
BITMAP
07F800
07F800
000000
000000
000000
01E000
03F000
03F000
03F000
077800
073800
073800
0E3C00
0E1C00
0E1C00
1C1E00
1C0E00
1FFE00
3FFF00
3FFF00
380700
700780
700380
F00380
F003C0
E003C0
ENDCHAR
STARTCHAR 0101
ENCODING 257
SWIDTH 533 0
DWIDTH 16 0
BBX 15 21 1 0
BITMAP
3FE0
3FE0
0000
0000
0000
0000
0FC0
3FF0
7FF0
3078
0038
0038
1FF8
7FF8
7038
F038
F038
F078
7FBE
7FBE
1F1E
ENDCHAR
STARTCHAR 0102
ENCODING 258
SWIDTH 666 0
DWIDTH 20 0
BBX 18 28 1 0
BITMAP
040800
0E1C00
063800
07F800
01E000
000000
000000
01E000
03F000
03F000
03F000
077800
073800
073800
0E3C00
0E1C00
0E1C00
1C1E00
1C0E00
1FFE00
3FFF00
3FFF00
380700
700780
700380
F00380
F003C0
E003C0
ENDCHAR
STARTCHAR 0103
ENCODING 259
SWIDTH 533 0
DWIDTH 16 0
BBX 15 23 1 0
BITMAP
3020
3070
38E0
1FC0
0F80
0000
0000
0000
0FC0
3FF0
7FF0
3078
0038
0038
1FF8
7FF8
7038
F038
F038
F078
7FBE
7FBE
1F1E
ENDCHAR
STARTCHAR 0104
ENCODING 260
SWIDTH 666 0
DWIDTH 20 0
BBX 19 27 1 -6
BITMAP
01E000
03F000
03F000
03F000
077800
073800
073800
0E3C00
0E1C00
0E1C00
1C1E00
1C0E00
1FFE00
3FFF00
3FFF00
380700
700780
700380
F00380
F003C0
E003C0
000180
000300
000600
000640
0007E0
0003C0
ENDCHAR
STARTCHAR 0105
ENCODING 261
SWIDTH 533 0
DWIDTH 16 0
BBX 15 21 1 -6
BITMAP
0FC0
3FF0
7FF0
3078
0038
0038
1FF8
7FF8
7038
F038
F038
F078
7FBE
7FBE
1F1E
000C
0038
0070
0074
007E
003C
ENDCHAR
STARTCHAR 0106
ENCODING 262
SWIDTH 633 0
DWIDTH 19 0
BBX 16 28 2 0
BITMAP
0060
00F0
00E0
01C0
01C0
0080
0000
07F0
1FF8
3FFE
7C1E
780F
F004
F000
E000
E000
E000
E000
E000
E000
E000
F000
F006
780F
7C1E
3FFC
1FF8
07E0
ENDCHAR
STARTCHAR 0107
ENCODING 263
SWIDTH 500 0
DWIDTH 15 0
BBX 14 23 1 0
BITMAP
00C0
01E0
01C0
0380
0380
0100
0000
0000
0FC0
1FF0
3FF8
7878
7038
F000
F000
F000
F000
F020
7038
787C
3FF8
1FF0
0FC0
ENDCHAR
STARTCHAR 0108
ENCODING 264
SWIDTH 633 0
DWIDTH 19 0
BBX 16 28 2 0
BITMAP
03C0
07E0
0F70
1E38
081C
0000
0000
07F0
1FF8
3FFE
7C1E
780F
F004
F000
E000
E000
E000
E000
E000
E000
E000
F000
F006
780F
7C1E
3FFC
1FF8
07E0
ENDCHAR
STARTCHAR 0109
ENCODING 265
SWIDTH 500 0
DWIDTH 15 0
BBX 14 24 1 0
BITMAP
0780
0FC0
0EE0
1C70
3830
1038
0000
0000
0000
0FC0
1FF0
3FF8
7878
7038
F000
F000
F000
F000
F020
7038
787C
3FF8
1FF0
0FC0
ENDCHAR
STARTCHAR 010A
ENCODING 266
SWIDTH 633 0
DWIDTH 19 0
BBX 16 27 2 0
BITMAP
01C0
03C0
03C0
01C0
0000
0000
07F0
1FF8
3FFE
7C1E
780F
F004
F000
E000
E000
E000
E000
E000
E000
E000
F000
F006
780F
7C1E
3FFC
1FF8
07E0
ENDCHAR
STARTCHAR 010B
ENCODING 267
SWIDTH 500 0
DWIDTH 15 0
BBX 14 22 1 0
BITMAP
0380
0780
0780
0380
0000
0000
0000
0FC0
1FF0
3FF8
7878
7038
F000
F000
F000
F000
F020
7038
787C
3FF8
1FF0
0FC0
ENDCHAR
STARTCHAR 010C
ENCODING 268
SWIDTH 633 0
DWIDTH 19 0
BBX 16 28 2 0
BITMAP
0818
1E3C
0F70
07E0
03C0
0000
0000
07F0
1FF8
3FFE
7C1E
780F
F004
F000
E000
E000
E000
E000
E000
E000
E000
F000
F006
780F
7C1E
3FFC
1FF8
07E0
ENDCHAR
STARTCHAR 010D
ENCODING 269
SWIDTH 500 0
DWIDTH 15 0
BBX 14 23 1 0
BITMAP
1030
3838
1C70
0EE0
0FC0
0780
0000
0000
0FC0
1FF0
3FF8
7878
7038
F000
F000
F000
F000
F020
7038
787C
3FF8
1FF0
0FC0
ENDCHAR
STARTCHAR 010E
ENCODING 270
SWIDTH 666 0
DWIDTH 20 0
BBX 16 28 3 0
BITMAP
2060
78F0
3DC0
1F80
0F80
0000
0000
FFC0
FFF0
FFF8
E07C
E01E
E01E
E00E
E00F
E00F
E00F
E00F
E00F
E00F
E00F
E00E
E01E
E01E
E07C
FFF8
FFF0
FFC0
ENDCHAR
STARTCHAR 010F
ENCODING 271
SWIDTH 633 0
DWIDTH 19 0
BBX 20 22 1 0
BITMAP
001CF0
001CF0
001CE0
001CE0
001CE0
001CC0
001C00
0F9C00
3FDC00
3FFC00
7C3C00
701C00
701C00
F01C00
F01C00
F01C00
701C00
701C00
783C00
3FFC00
3FDC00
0F9C00
ENDCHAR
STARTCHAR 0110
ENCODING 272
SWIDTH 700 0
DWIDTH 21 0
BBX 19 21 0 0
BITMAP
1FF800
1FFE00
1FFF00
1C0F80
1C03C0
1C01C0
1C01C0
1C01E0
1C01E0
FFC1E0
FFC1E0
FFC1E0
1C01E0
1C01E0
1C01E0
1C01C0
1C03C0
1C0F80
1FFF00
1FFE00
1FF800
ENDCHAR
STARTCHAR 0111
ENCODING 273
SWIDTH 600 0
DWIDTH 18 0
BBX 16 22 1 0
BITMAP
001C
001C
001C
01FF
01FF
001C
001C
0F9C
3FDC
3FFC
7C3C
701C
701C
F01C
F01C
F01C
701C
701C
783C
3FFC
3FDC
0F9C
ENDCHAR
STARTCHAR 0112
ENCODING 274
SWIDTH 600 0
DWIDTH 18 0
BBX 13 26 3 0
BITMAP
3FE0
3FE0
0000
0000
0000
FFF8
FFF8
FFF8
E000
E000
E000
E000
E000
E000
FFF0
FFF0
FFF0
E000
E000
E000
E000
E000
E000
FFF8
FFF8
FFF8
ENDCHAR
STARTCHAR 0113
ENCODING 275
SWIDTH 566 0
DWIDTH 17 0
BBX 14 21 1 0
BITMAP
1FF0
1FF0
0000
0000
0000
0000
07C0
1FF0
3FF8
783C
701C
F01C
FFFC
FFFC
F000
F000
7010
7838
3FFC
1FF0
07E0
ENDCHAR
STARTCHAR 0114
ENCODING 276
SWIDTH 600 0
DWIDTH 18 0
BBX 13 28 3 0
BITMAP
2060
7060
38E0
1FC0
0F80
0000
0000
FFF8
FFF8
FFF8
E000
E000
E000
E000
E000
E000
FFF0
FFF0
FFF0
E000
E000
E000
E000
E000
E000
FFF8
FFF8
FFF8
ENDCHAR
STARTCHAR 0115
ENCODING 277
SWIDTH 566 0
DWIDTH 17 0
BBX 14 23 1 0
BITMAP
1830
3838
1C70
0FE0
07C0
0000
0000
0000
07C0
1FF0
3FF8
783C
701C
F01C
FFFC
FFFC
F000
F000
7010
7838
3FFC
1FF0
07E0
ENDCHAR
STARTCHAR 0116
ENCODING 278
SWIDTH 600 0
DWIDTH 18 0
BBX 13 27 3 0
BITMAP
0700
0F00
0F00
0700
0000
0000
FFF8
FFF8
FFF8
E000
E000
E000
E000
E000
E000
FFF0
FFF0
FFF0
E000
E000
E000
E000
E000
E000
FFF8
FFF8
FFF8
ENDCHAR
STARTCHAR 0117
ENCODING 279
SWIDTH 566 0
DWIDTH 17 0
BBX 14 22 1 0
BITMAP
0380
07C0
03C0
0380
0000
0000
0000
07C0
1FF0
3FF8
783C
701C
F01C
FFFC
FFFC
F000
F000
7010
7838
3FFC
1FF0
07E0
ENDCHAR
STARTCHAR 0118
ENCODING 280
SWIDTH 600 0
DWIDTH 18 0
BBX 14 27 3 -6
BITMAP
FFF8
FFF8
FFF8
E000
E000
E000
E000
E000
E000
FFF0
FFF0
FFF0
E000
E000
E000
E000
E000
E000
FFF8
FFF8
FFF8
0030
0060
00C0
01C8
00FC
0078
ENDCHAR
STARTCHAR 0119
ENCODING 281
SWIDTH 566 0
DWIDTH 17 0
BBX 14 21 1 -6
BITMAP
07C0
1FF0
3FF8
783C
701C
F01C
FFFC
FFFC
F000
F000
7010
783C
3FF8
1FF0
0FE0
00C0
0180
0380
0390
03F0
01F0
ENDCHAR
STARTCHAR 011A
ENCODING 282
SWIDTH 600 0
DWIDTH 18 0
BBX 13 28 3 0
BITMAP
2060
78F0
3DC0
1F80
0F00
0000
0000
FFF8
FFF8
FFF8
E000
E000
E000
E000
E000
E000
FFF0
FFF0
FFF0
E000
E000
E000
E000
E000
E000
FFF8
FFF8
FFF8
ENDCHAR
STARTCHAR 011B
ENCODING 283
SWIDTH 566 0
DWIDTH 17 0
BBX 14 23 1 0
BITMAP
1010
3838
1C70
0EE0
07C0
07C0
0000
0000
07C0
1FF0
3FF8
783C
701C
F01C
FFFC
FFFC
F000
F000
7010
7838
3FFC
1FF0
07E0
ENDCHAR
STARTCHAR 011C
ENCODING 284
SWIDTH 700 0
DWIDTH 21 0
BBX 17 28 2 0
BITMAP
01E000
03F000
077800
0E3C00
1C0800
000000
000000
03F000
0FFC00
3FFE00
3C1F00
780780
F00600
F00000
E00000
E00000
E00000
E07F80
E07F80
E07F80
E00380
F00380
F00380
780780
7C0F80
3FFF80
1FFB80
07E380
ENDCHAR
STARTCHAR 011D
ENCODING 285
SWIDTH 533 0
DWIDTH 16 0
BBX 15 30 1 -6
BITMAP
0780
0FC0
1EE0
1CE0
3870
1020
0000
0000
0000
0FFE
3FFE
7FFE
7878
7038
7038
7878
3FF8
1FF0
1FC0
7000
7000
7FF8
7FFC
1FFE
601E
E00E
E01E
FFFC
7FFC
1FE0
ENDCHAR
STARTCHAR 011E
ENCODING 286
SWIDTH 700 0
DWIDTH 21 0
BBX 17 28 2 0
BITMAP
0C0800
0C1C00
0E3800
07F000
03E000
000000
000000
03F000
0FFC00
3FFE00
3C1F00
780780
F00600
F00000
E00000
E00000
E00000
E07F80
E07F80
E07F80
E00380
F00380
F00380
780780
7C0F80
3FFF80
1FFB80
07E380
ENDCHAR
STARTCHAR 011F
ENCODING 287
SWIDTH 533 0
DWIDTH 16 0
BBX 15 29 1 -6
BITMAP
1020
3870
1C60
1FE0
0780
0000
0000
0000
0FFE
3FFE
7FFE
7878
7038
7038
7878
3FF8
1FF0
1FC0
7000
7000
7FF8
7FFC
1FFE
601E
E00E
E01E
FFFC
7FFC
1FE0
ENDCHAR
STARTCHAR 0120
ENCODING 288
SWIDTH 700 0
DWIDTH 21 0
BBX 17 27 2 0
BITMAP
01C000
01E000
01E000
01C000
000000
000000
03F000
0FFC00
3FFE00
3C1F00
780780
F00600
F00000
E00000
E00000
E00000
E07F80
E07F80
E07F80
E00380
F00380
F00380
780780
7C0F80
3FFF80
1FFB80
07E380
ENDCHAR
STARTCHAR 0121
ENCODING 289
SWIDTH 533 0
DWIDTH 16 0
BBX 15 28 1 -6
BITMAP
0380
0780
0780
0380
0000
0000
0000
0FFE
3FFE
7FFE
7878
7038
7038
7878
3FF8
1FF0
1FC0
7000
7000
7FF8
7FFC
1FFE
601E
E00E
E01E
FFFC
7FFC
1FE0
ENDCHAR
STARTCHAR 0122
ENCODING 290
SWIDTH 700 0
DWIDTH 21 0
BBX 17 29 2 -8
BITMAP
03F000
0FFC00
3FFE00
3C1F00
780780
F00600
F00000
E00000
E00000
E00000
E07F80
E07F80
E07F80
E00380
F00380
F00380
780780
7C0F80
3FFF80
1FFB80
07E380
000000
000000
01C000
01C000
01C000
00C000
018000
038000
ENDCHAR
STARTCHAR 0123
ENCODING 291
SWIDTH 533 0
DWIDTH 16 0
BBX 15 30 1 -6
BITMAP
0180
0300
0300
0780
0780
0380
0000
0000
0000
0FFE
3FFE
7FFE
7878
7038
7038
7878
3FF8
1FF0
1FC0
7000
7000
7FF8
7FFC
1FFE
601E
E00E
E01E
FFFC
7FFC
1FE0
ENDCHAR
STARTCHAR 0124
ENCODING 292
SWIDTH 700 0
DWIDTH 21 0
BBX 16 28 3 0
BITMAP
03C0
07E0
0EF0
1C78
3810
0000
0000
E00F
E00F
E00F
E00F
E00F
E00F
E00F
E00F
E00F
FFFF
FFFF
FFFF
E00F
E00F
E00F
E00F
E00F
E00F
E00F
E00F
E00F
ENDCHAR
STARTCHAR 0125
ENCODING 293
SWIDTH 566 0
DWIDTH 17 0
BBX 16 28 -1 0
BITMAP
1E00
3F00
7F80
7380
E1C0
4080
1E00
1E00
1E00
1E00
1E00
1E00
1E00
1E7C
1EFE
1FFF
1F0F
1E07
1E07
1E07
1E07
1E07
1E07
1E07
1E07
1E07
1E07
1E07
ENDCHAR
STARTCHAR 0126
ENCODING 294
SWIDTH 733 0
DWIDTH 22 0
BBX 20 21 1 0
BITMAP
3801C0
3801C0
FFFFF0
FFFFF0
FFFFF0
3801C0
3801C0
3801C0
3801C0
3FFFC0
3FFFC0
3FFFC0
3801C0
3801C0
3801C0
3801C0
3801C0
3801C0
3801C0
3801C0
3801C0
ENDCHAR
STARTCHAR 0127
ENCODING 295
SWIDTH 566 0
DWIDTH 17 0
BBX 15 22 0 0
BITMAP
3C00
3C00
3C00
FFC0
FFC0
3C00
3C00
3CF8
3DFC
3FFE
3E1E
3C0E
3C0E
3C0E
3C0E
3C0E
3C0E
3C0E
3C0E
3C0E
3C0E
3C0E
ENDCHAR
STARTCHAR 0128
ENCODING 296
SWIDTH 400 0
DWIDTH 12 0
BBX 11 26 1 0
BITMAP
7840
FFE0
4780
0000
0000
7FC0
7FC0
7FC0
0E00
0E00
0E00
0E00
0E00
0E00
0E00
0E00
0E00
0E00
0E00
0E00
0E00
0E00
0E00
7FC0
7FC0
7FC0
ENDCHAR
STARTCHAR 0129
ENCODING 297
SWIDTH 266 0
DWIDTH 8 0
BBX 10 21 -1 0
BITMAP
7840
FFC0
8780
0000
0000
0000
1E00
1E00
1E00
1E00
1E00
1E00
1E00
1E00
1E00
1E00
1E00
1E00
1E00
1E00
1E00
ENDCHAR
STARTCHAR 012A
ENCODING 298
SWIDTH 400 0
DWIDTH 12 0
BBX 9 26 2 0
BITMAP
FF80
FF80
0000
0000
0000
FF80
FF80
FF80
1C00
1C00
1C00
1C00
1C00
1C00
1C00
1C00
1C00
1C00
1C00
1C00
1C00
1C00
1C00
FF80
FF80
FF80
ENDCHAR
STARTCHAR 012B
ENCODING 299
SWIDTH 266 0
DWIDTH 8 0
BBX 8 21 0 0
BITMAP
FF
FF
00
00
00
00
3C
3C
3C
3C
3C
3C
3C
3C
3C
3C
3C
3C
3C
3C
3C
ENDCHAR
STARTCHAR 012C
ENCODING 300
SWIDTH 400 0
DWIDTH 12 0
BBX 10 28 1 0
BITMAP
4080
E0C0
71C0
3F80
1F00
0000
0000
7FC0
7FC0
7FC0
0E00
0E00
0E00
0E00
0E00
0E00
0E00
0E00
0E00
0E00
0E00
0E00
0E00
0E00
0E00
7FC0
7FC0
7FC0
ENDCHAR
STARTCHAR 012D
ENCODING 301
SWIDTH 266 0
DWIDTH 8 0
BBX 10 23 -1 0
BITMAP
4080
E1C0
6380
7F80
1E00
0000
0000
0000
1E00
1E00
1E00
1E00
1E00
1E00
1E00
1E00
1E00
1E00
1E00
1E00
1E00
1E00
1E00
ENDCHAR
STARTCHAR 012E
ENCODING 302
SWIDTH 400 0
DWIDTH 12 0
BBX 10 27 2 -6
BITMAP
FF80
FF80
FF80
1C00
1C00
1C00
1C00
1C00
1C00
1C00
1C00
1C00
1C00
1C00
1C00
1C00
1C00
1C00
FF80
FF80
FF80
0300
0E00
0C00
1C80
1FC0
0F80
ENDCHAR
STARTCHAR 012F
ENCODING 303
SWIDTH 266 0
DWIDTH 8 0
BBX 6 28 0 -6
BITMAP
38
3C
3C
38
00
00
00
3C
3C
3C
3C
3C
3C
3C
3C
3C
3C
3C
3C
3C
3C
3C
18
70
E0
E8
FC
78
ENDCHAR
STARTCHAR 0130
ENCODING 304
SWIDTH 400 0
DWIDTH 12 0
BBX 9 27 2 0
BITMAP
1C00
3C00
3C00
1C00
0000
0000
FF80
FF80
FF80
1C00
1C00
1C00
1C00
1C00
1C00
1C00
1C00
1C00
1C00
1C00
1C00
1C00
1C00
1C00
FF80
FF80
FF80
ENDCHAR
STARTCHAR 0131
ENCODING 305
SWIDTH 266 0
DWIDTH 8 0
BBX 4 15 2 0
BITMAP
F0
F0
F0
F0
F0
F0
F0
F0
F0
F0
F0
F0
F0
F0
F0
ENDCHAR
STARTCHAR 0132
ENCODING 306
SWIDTH 666 0
DWIDTH 20 0
BBX 15 21 2 0
BITMAP
F0FE
F0FE
F0FE
F00E
F00E
F00E
F00E
F00E
F00E
F00E
F00E
F00E
000E
000E
000E
700E
701E
7C3C
3FFC
1FF8
07E0
ENDCHAR
STARTCHAR 0133
ENCODING 307
SWIDTH 533 0
DWIDTH 16 0
BBX 12 28 2 -6
BITMAP
E0E0
F0F0
F0F0
E0E0
0000
0000
0000
F0E0
F0E0
F0E0
F0E0
F0E0
F0E0
F0E0
F0E0
F0E0
F0E0
F0E0
F0E0
F0E0
F0E0
F0E0
00E0
00E0
00E0
03E0
03E0
03C0
ENDCHAR
STARTCHAR 0134
ENCODING 308
SWIDTH 533 0
DWIDTH 16 0
BBX 13 28 1 0
BITMAP
07C0
0FC0
1EE0
1C70
3038
0000
0000
3FF0
3FF0
3FF0
0070
0070
0070
0070
0070
0070
0070
0070
0070
0070
0070
0070
6070
E070
F0F0
7FE0
3FE0
1F80
ENDCHAR
STARTCHAR 0135
ENCODING 309
SWIDTH 266 0
DWIDTH 8 0
BBX 10 30 -1 -6
BITMAP
1E00
3F00
7F80
7380
E1C0
4080
0000
0000
0000
1E00
1E00
1E00
1E00
1E00
1E00
1E00
1E00
1E00
1E00
1E00
1E00
1E00
1E00
1E00
1E00
1E00
1E00
7C00
7C00
7800
ENDCHAR
STARTCHAR 0136
ENCODING 310
SWIDTH 666 0
DWIDTH 20 0
BBX 16 29 3 -8
BITMAP
E01F
E03C
E03C
E078
E0F0
E1E0
E3C0
E380
E780
EF80
FF80
FFC0
F9E0
F1E0
E0F0
E078
E078
E03C
E01E
E01E
E00F
0000
0000
0380
0380
0380
0180
0300
0700
ENDCHAR
STARTCHAR 0137
ENCODING 311
SWIDTH 533 0
DWIDTH 16 0
BBX 14 30 2 -8
BITMAP
F000
F000
F000
F000
F000
F000
F000
F078
F0F0
F1E0
F3C0
F380
F700
FF00
FF80
FBC0
F1C0
F1E0
F0F0
F070
F078
F03C
0000
0000
0380
0780
0380
0380
0300
0700
ENDCHAR
STARTCHAR 0138
ENCODING 312
SWIDTH 533 0
DWIDTH 16 0
BBX 14 15 2 0
BITMAP
F03C
F070
F0E0
F1C0
F380
F700
FF80
FF80
FBC0
F1E0
F1E0
F0F0
F070
F078
F03C
ENDCHAR
STARTCHAR 0139
ENCODING 313
SWIDTH 500 0
DWIDTH 15 0
BBX 11 28 3 0
BITMAP
3000
7800
7000
E000
E000
4000
0000
E000
E000
E000
E000
E000
E000
E000
E000
E000
E000
E000
E000
E000
E000
E000
E000
E000
E000
FFE0
FFE0
FFE0
ENDCHAR
STARTCHAR 013A
ENCODING 314
SWIDTH 300 0
DWIDTH 9 0
BBX 6 29 2 0
BITMAP
18
3C
38
70
60
E0
00
F0
F0
F0
F0
F0
F0
F0
F0
F0
F0
F0
F0
F0
F0
F0
F0
F0
F0
F0
FC
7C
3C
ENDCHAR
STARTCHAR 013B
ENCODING 315
SWIDTH 500 0
DWIDTH 15 0
BBX 11 29 3 -8
BITMAP
E000
E000
E000
E000
E000
E000
E000
E000
E000
E000
E000
E000
E000
E000
E000
E000
E000
E000
FFE0
FFE0
FFE0
0000
0000
0E00
0F00
0F00
0600
0600
0C00
ENDCHAR
STARTCHAR 013C
ENCODING 316
SWIDTH 300 0
DWIDTH 9 0
BBX 6 30 2 -8
BITMAP
F0
F0
F0
F0
F0
F0
F0
F0
F0
F0
F0
F0
F0
F0
F0
F0
F0
F0
F0
FC
7C
3C
00
00
30
78
38
38
30
60
ENDCHAR
STARTCHAR 013D
ENCODING 317
SWIDTH 500 0
DWIDTH 15 0
BBX 11 22 3 0
BITMAP
0380
E780
E700
E700
E700
E700
E000
E000
E000
E000
E000
E000
E000
E000
E000
E000
E000
E000
E000
FFE0
FFE0
FFE0
ENDCHAR
STARTCHAR 013E
ENCODING 318
SWIDTH 300 0
DWIDTH 9 0
BBX 9 22 2 0
BITMAP
F380
F780
F700
F700
F700
F700
F000
F000
F000
F000
F000
F000
F000
F000
F000
F000
F000
F000
F000
FC00
7C00
3C00
ENDCHAR
STARTCHAR 013F
ENCODING 319
SWIDTH 500 0
DWIDTH 15 0
BBX 11 21 3 0
BITMAP
E000
E000
E000
E000
E000
E000
E000
E000
E1C0
E1E0
E1E0
E1E0
E000
E000
E000
E000
E000
E000
FFE0
FFE0
FFE0
ENDCHAR
STARTCHAR 0140
ENCODING 320
SWIDTH 400 0
DWIDTH 12 0
BBX 10 22 2 0
BITMAP
F000
F000
F000
F000
F000
F000
F000
F000
F000
F000
F380
F3C0
F3C0
F380
F000
F000
F000
F000
F000
FC00
7C00
3C00
ENDCHAR
STARTCHAR 0141
ENCODING 321
SWIDTH 533 0
DWIDTH 16 0
BBX 15 21 0 0
BITMAP
1C00
1C00
1C00
1C00
1C00
1C00
1C00
1C00
1C60
1FE0
1FE0
FF80
FC00
FC00
9C00
1C00
1C00
1C00
1FFE
1FFE
1FFE
ENDCHAR
STARTCHAR 0142
ENCODING 322
SWIDTH 300 0
DWIDTH 9 0
BBX 9 22 0 0
BITMAP
3C00
3C00
3C00
3C00
3C00
3C00
3C00
3C00
3D80
3F80
7F80
FF00
FC00
BC00
3C00
3C00
3C00
3C00
3C00
3F00
1F00
0F00
ENDCHAR
STARTCHAR 0143
ENCODING 323
SWIDTH 700 0
DWIDTH 21 0
BBX 16 28 3 0
BITMAP
00E0
00F0
01E0
01C0
0380
0100
0000
F007
F007
F807
F807
FC07
FE07
EE07
EF07
E707
E787
E3C7
E3C7
E1E7
E0E7
E0F7
E077
E07F
E03F
E01F
E01F
E00F
ENDCHAR
STARTCHAR 0144
ENCODING 324
SWIDTH 566 0
DWIDTH 17 0
BBX 13 23 2 0
BITMAP
01C0
01E0
03C0
0380
0700
0300
0000
0000
F3E0
F7F0
FFF8
F878
F038
F038
F038
F038
F038
F038
F038
F038
F038
F038
F038
ENDCHAR
STARTCHAR 0145
ENCODING 325
SWIDTH 700 0
DWIDTH 21 0
BBX 16 29 3 -8
BITMAP
F007
F007
F807
F807
FC07
FE07
EE07
EF07
E707
E787
E3C7
E3C7
E1E7
E0E7
E0F7
E077
E07F
E03F
E01F
E01F
E00F
0000
0000
0380
0380
0380
0180
0180
0700
ENDCHAR
STARTCHAR 0146
ENCODING 326
SWIDTH 566 0
DWIDTH 17 0
BBX 13 23 2 -8
BITMAP
F3E0
F7F0
FFF8
F878
F038
F038
F038
F038
F038
F038
F038
F038
F038
F038
F038
0000
0000
0700
0780
0780
0300
0300
0600
ENDCHAR
STARTCHAR 0147
ENCODING 327
SWIDTH 700 0
DWIDTH 21 0
BBX 16 28 3 0
BITMAP
1810
3C78
0EF0
07E0
03C0
0000
0000
F007
F007
F807
F807
FC07
FE07
EE07
EF07
E707
E787
E3C7
E3C7
E1E7
E0E7
E0F7
E077
E07F
E03F
E01F
E01F
E00F
ENDCHAR
STARTCHAR 0148
ENCODING 328
SWIDTH 566 0
DWIDTH 17 0
BBX 13 23 2 0
BITMAP
1020
3870
38E0
1DC0
0FC0
0780
0000
0000
F3E0
F7F0
FFF8
F878
F038
F038
F038
F038
F038
F038
F038
F038
F038
F038
F038
ENDCHAR
STARTCHAR 0149
ENCODING 329
SWIDTH 833 0
DWIDTH 25 0
BBX 22 22 1 0
BITMAP
380000
780000
7C0000
380000
180000
380000
700000
6079E0
807BF8
007FF8
007C3C
00781C
00781C
00781C
00781C
00781C
00781C
00781C
00781C
00781C
00781C
00781C
ENDCHAR
STARTCHAR 014A
ENCODING 330
SWIDTH 700 0
DWIDTH 21 0
BBX 16 27 3 -6
BITMAP
F007
F007
F807
F807
FC07
FE07
EE07
EF07
E707
E787
E3C7
E3C7
E1E7
E0E7
E0F7
E077
E07F
E03F
E01F
E01F
E00F
0007
0007
0007
003F
003E
003C
ENDCHAR
STARTCHAR 014B
ENCODING 331
SWIDTH 566 0
DWIDTH 17 0
BBX 13 21 2 -6
BITMAP
F3E0
F7F0
FFF8
F878
F038
F038
F038
F038
F038
F038
F038
F038
F038
F038
F038
0038
0038
0038
00F8
00F8
00F0
ENDCHAR
STARTCHAR 014C
ENCODING 332
SWIDTH 700 0
DWIDTH 21 0
BBX 18 26 2 0
BITMAP
0FF800
0FF800
000000
000000
000000
07F000
1FFC00
3FFE00
7C1F00
780F00
F00780
F00380
E00380
E003C0
E003C0
E003C0
E003C0
E003C0
E00380
F00380
F00780
780700
7C1F00
3FFE00
1FFC00
07F000
ENDCHAR
STARTCHAR 014D
ENCODING 333
SWIDTH 566 0
DWIDTH 17 0
BBX 15 21 1 0
BITMAP
1FF0
1FF0
0000
0000
0000
0000
07C0
1FF0
3FF8
783C
701C
F01C
F01E
F01E
F01E
F01C
701C
783C
3FF8
1FF0
07C0
ENDCHAR
STARTCHAR 014E
ENCODING 334
SWIDTH 700 0
DWIDTH 21 0
BBX 18 28 2 0
BITMAP
0C0800
0C1C00
0E3800
07F000
03E000
000000
000000
07F000
1FFC00
3FFE00
7C1F00
780F00
F00780
F00380
E00380
E003C0
E003C0
E003C0
E003C0
E003C0
E00380
F00380
F00780
780700
7C1F00
3FFE00
1FFC00
07F000
ENDCHAR
STARTCHAR 014F
ENCODING 335
SWIDTH 566 0
DWIDTH 17 0
BBX 15 23 1 0
BITMAP
1830
3830
1C70
0FE0
07C0
0000
0000
0000
07C0
1FF0
3FF8
783C
701C
F01C
F01E
F01E
F01E
F01C
701C
783C
3FF8
1FF0
07C0
ENDCHAR
STARTCHAR 0150
ENCODING 336
SWIDTH 700 0
DWIDTH 21 0
BBX 18 28 2 0
BITMAP
018C00
03CE00
039C00
071800
063800
0E1000
000000
07F000
1FFC00
3FFE00
7C1F00
780F00
F00780
F00380
E00380
E003C0
E003C0
E003C0
E003C0
E003C0
E00380
F00380
F00780
780700
7C1F00
3FFE00
1FFC00
07F000
ENDCHAR
STARTCHAR 0151
ENCODING 337
SWIDTH 566 0
DWIDTH 17 0
BBX 15 23 1 0
BITMAP
0718
07BC
0F38
0E70
1C70
0860
0000
0000
07C0
1FF0
3FF8
783C
701C
F01C
F01E
F01E
F01E
F01C
701C
783C
3FF8
1FF0
07C0
ENDCHAR
STARTCHAR 0152
ENCODING 338
SWIDTH 1000 0
DWIDTH 30 0
BBX 26 21 2 0
BITMAP
03FFFFC0
1FFFFFC0
3FFFFFC0
7C0F0000
780F0000
F00F0000
F00F0000
E00F0000
E00F0000
E00FFF80
E00FFF80
E00FFF80
E00F0000
E00F0000
F00F0000
F00F0000
780F0000
7C0F0000
3FFFFFC0
1FFFFFC0
07FFFFC0
ENDCHAR
STARTCHAR 0153
ENCODING 339
SWIDTH 933 0
DWIDTH 28 0
BBX 25 15 1 0
BITMAP
07C0F800
1FF3FE00
3FF7FF00
783F0780
701E0380
F01E0380
F01FFF80
F01FFF80
F01E0000
F01E0000
701E0200
783F0700
3FF7FF80
1FF3FE00
07C0FC00
ENDCHAR
STARTCHAR 0154
ENCODING 340
SWIDTH 666 0
DWIDTH 20 0
BBX 15 28 3 0
BITMAP
0180
03C0
0380
0780
0700
0200
0000
FFE0
FFF8
FFFC
E03C
E01C
E01E
E01E
E01E
E01C
E03C
FFFC
FFF8
FFE0
E1E0
E0F0
E0F0
E078
E078
E03C
E01C
E01E
ENDCHAR
STARTCHAR 0155
ENCODING 341
SWIDTH 366 0
DWIDTH 11 0
BBX 9 23 2 0
BITMAP
0700
0780
0E00
0E00
1C00
0800
0000
0000
F380
FF80
FF80
F800
F000
F000
F000
F000
F000
F000
F000
F000
F000
F000
F000
ENDCHAR
STARTCHAR 0156
ENCODING 342
SWIDTH 666 0
DWIDTH 20 0
BBX 15 29 3 -8
BITMAP
FFE0
FFF8
FFFC
E03C
E01C
E01E
E01E
E01E
E01C
E03C
FFFC
FFF8
FFE0
E1E0
E0F0
E0F0
E078
E078
E03C
E01C
E01E
0000
0000
0300
0780
0380
0380
0300
0600
ENDCHAR
STARTCHAR 0157
ENCODING 343
SWIDTH 366 0
DWIDTH 11 0
BBX 9 23 2 -8
BITMAP
F380
FF80
FF80
F800
F000
F000
F000
F000
F000
F000
F000
F000
F000
F000
F000
0000
0000
6000
F000
F000
6000
6000
C000
ENDCHAR
STARTCHAR 0158
ENCODING 344
SWIDTH 666 0
DWIDTH 20 0
BBX 15 28 3 0
BITMAP
2060
78F0
3DC0
1F80
0F80
0000
0000
FFE0
FFF8
FFFC
E03C
E01C
E01E
E01E
E01E
E01C
E03C
FFFC
FFF8
FFE0
E1E0
E0F0
E0F0
E078
E078
E03C
E01C
E01E
ENDCHAR
STARTCHAR 0159
ENCODING 345
SWIDTH 366 0
DWIDTH 11 0
BBX 11 23 1 0
BITMAP
6040
E0E0
71C0
3B80
1F00
0F00
0000
0000
79C0
7FC0
7FC0
7C00
7800
7800
7800
7800
7800
7800
7800
7800
7800
7800
7800
ENDCHAR
STARTCHAR 015A
ENCODING 346
SWIDTH 600 0
DWIDTH 18 0
BBX 15 28 1 0
BITMAP
00E0
00F0
01E0
01C0
0380
0180
0000
07E0
1FF8
3FFE
7C1E
700C
7000
7000
7800
7F00
3FF0
1FFC
03FE
001E
000E
000E
200E
700E
F81E
7FFC
3FF8
0FE0
ENDCHAR
STARTCHAR 015B
ENCODING 347
SWIDTH 500 0
DWIDTH 15 0
BBX 12 23 1 0
BITMAP
0180
03C0
0380
0700
0700
0200
0000
0000
1F80
3FE0
7FF0
7060
7000
7800
7FC0
3FE0
1FF0
0070
4070
7070
FFF0
7FE0
1F80
ENDCHAR
STARTCHAR 015C
ENCODING 348
SWIDTH 600 0
DWIDTH 18 0
BBX 15 28 1 0
BITMAP
03C0
07E0
0EF0
1C38
0810
0000
0000
07E0
1FF8
3FFE
7C1E
700C
7000
7000
7800
7F00
3FF0
1FFC
03FE
001E
000E
000E
200E
700E
F81E
7FFC
3FF8
0FE0
ENDCHAR
STARTCHAR 015D
ENCODING 349
SWIDTH 500 0
DWIDTH 15 0
BBX 12 24 1 0
BITMAP
0F00
1F80
1DC0
38E0
7060
2070
0000
0000
0000
1F80
3FE0
7FF0
7060
7000
7800
7FC0
3FE0
1FF0
0070
4070
7070
FFF0
7FE0
1F80
ENDCHAR
STARTCHAR 015E
ENCODING 350
SWIDTH 600 0
DWIDTH 18 0
BBX 15 27 1 -6
BITMAP
07E0
1FF8
3FFE
7C1E
700C
7000
7000
7800
7F00
3FF0
1FFC
03FE
001E
000E
000E
200E
700E
F81E
7FFC
3FF8
0FE0
0100
01E0
0270
0270
07F0
03C0
ENDCHAR
STARTCHAR 015F
ENCODING 351
SWIDTH 500 0
DWIDTH 15 0
BBX 12 21 1 -6
BITMAP
1F80
3FE0
7FF0
7060
7000
7800
7FC0
3FE0
1FF0
00F0
4070
7070
FFF0
7FE0
1F80
0600
07C0
01C0
08C0
0FC0
1F80
ENDCHAR
STARTCHAR 0160
ENCODING 352
SWIDTH 600 0
DWIDTH 18 0
BBX 15 28 1 0
BITMAP
0810
1C38
0EF0
07E0
03C0
0000
0000
07E0
1FF8
3FFE
7C1E
700C
7000
7000
7800
7F00
3FF0
1FFC
03FE
001E
000E
000E
200E
700E
F81E
7FFC
3FF8
0FE0
ENDCHAR
STARTCHAR 0161
ENCODING 353
SWIDTH 500 0
DWIDTH 15 0
BBX 12 23 1 0
BITMAP
2060
7070
38E0
1DC0
1F80
0F00
0000
0000
1F80
3FE0
7FF0
7060
7000
7800
7FC0
3FE0
1FF0
0070
4070
7070
FFF0
7FE0
1F80
ENDCHAR
STARTCHAR 0162
ENCODING 354
SWIDTH 566 0
DWIDTH 17 0
BBX 16 28 1 -7
BITMAP
FFFF
FFFF
FFFF
0380
0380
0380
0380
0380
0380
0380
0380
0380
0380
0380
0380
0380
0380
0380
0380
0380
0380
0100
0100
03E0
0070
0470
07E0
03C0
ENDCHAR
STARTCHAR 0163
ENCODING 355
SWIDTH 366 0
DWIDTH 11 0
BBX 10 27 1 -7
BITMAP
1800
1800
1800
1800
3800
FF80
FF80
FF80
3800
3800
3800
3800
3800
3800
3800
3800
3800
3F80
1F80
1F80
0400
0C00
0F80
01C0
11C0
1F80
0F00
ENDCHAR
STARTCHAR 0164
ENCODING 356
SWIDTH 566 0
DWIDTH 17 0
BBX 16 28 1 0
BITMAP
1810
3C78
0EF0
07E0
03C0
0000
0000
FFFF
FFFF
FFFF
0380
0380
0380
0380
0380
0380
0380
0380
0380
0380
0380
0380
0380
0380
0380
0380
0380
0380
ENDCHAR
STARTCHAR 0165
ENCODING 357
SWIDTH 366 0
DWIDTH 11 0
BBX 11 23 1 0
BITMAP
00E0
00E0
00E0
18C0
18C0
19C0
1800
3800
FF80
FF80
FF80
3800
3800
3800
3800
3800
3800
3800
3800
3800
3F80
1F80
1F80
ENDCHAR
STARTCHAR 0166
ENCODING 358
SWIDTH 600 0
DWIDTH 18 0
BBX 16 21 1 0
BITMAP
FFFF
FFFF
FFFF
03C0
03C0
03C0
03C0
03C0
03C0
3FFC
3FFC
3FFC
03C0
03C0
03C0
03C0
03C0
03C0
03C0
03C0
03C0
ENDCHAR
STARTCHAR 0167
ENCODING 359
SWIDTH 366 0
DWIDTH 11 0
BBX 9 20 1 0
BITMAP
1C00
1C00
1C00
1C00
3C00
FF80
FF80
FF80
3C00
3C00
3C00
FF00
FF00
3C00
3C00
3C00
3C00
3F80
1F80
0F80
ENDCHAR
STARTCHAR 0168
ENCODING 360
SWIDTH 700 0
DWIDTH 21 0
BBX 16 26 2 0
BITMAP
0F08
1FFC
08F0
0000
0000
F007
F007
F007
F007
F007
F007
F007
F007
F007
F007
F007
F007
F007
F007
7007
700F
780F
7C1E
3FFE
1FFC
07F0
ENDCHAR
STARTCHAR 0169
ENCODING 361
SWIDTH 566 0
DWIDTH 17 0
BBX 13 21 2 0
BITMAP
1E20
7FF0
23E0
0000
0000
0000
E038
E038
E038
E038
E038
E038
E038
E038
E038
F038
F038
F878
7FB8
7FB8
1F38
ENDCHAR
STARTCHAR 016A
ENCODING 362
SWIDTH 700 0
DWIDTH 21 0
BBX 16 26 2 0
BITMAP
0FF8
0FF8
0000
0000
0000
F007
F007
F007
F007
F007
F007
F007
F007
F007
F007
F007
F007
F007
F007
7007
700F
780F
7C1E
3FFE
1FFC
07F0
ENDCHAR
STARTCHAR 016B
ENCODING 363
SWIDTH 566 0
DWIDTH 17 0
BBX 13 21 2 0
BITMAP
3FE0
3FE0
0000
0000
0000
0000
E038
E038
E038
E038
E038
E038
E038
E038
E038
F038
F038
F878
7FB8
7FB8
1F38
ENDCHAR
STARTCHAR 016C
ENCODING 364
SWIDTH 700 0
DWIDTH 21 0
BBX 16 28 2 0
BITMAP
0818
1C18
0E38
07F0
03E0
0000
0000
F007
F007
F007
F007
F007
F007
F007
F007
F007
F007
F007
F007
F007
F007
7007
700F
780F
7C1E
3FFE
1FFC
07F0
ENDCHAR
STARTCHAR 016D
ENCODING 365
SWIDTH 566 0
DWIDTH 17 0
BBX 13 23 2 0
BITMAP
3020
3070
38E0
1FC0
0F80
0000
0000
0000
E038
E038
E038
E038
E038
E038
E038
E038
E038
F038
F038
F878
7FB8
7FB8
1F38
ENDCHAR
STARTCHAR 016E
ENCODING 366
SWIDTH 700 0
DWIDTH 21 0
BBX 16 30 2 0
BITMAP
03C0
07E0
0630
0E30
0E30
0630
07E0
03C0
0000
F007
F007
F007
F007
F007
F007
F007
F007
F007
F007
F007
F007
F007
F007
7007
700F
780F
7C1E
3FFE
1FFC
07F0
ENDCHAR
STARTCHAR 016F
ENCODING 367
SWIDTH 566 0
DWIDTH 17 0
BBX 13 25 2 0
BITMAP
0780
0FC0
18C0
18E0
18E0
18C0
0FC0
0780
0000
0000
E038
E038
E038
E038
E038
E038
E038
E038
E038
F038
F038
F878
7FB8
7FB8
1F38
ENDCHAR
STARTCHAR 0170
ENCODING 368
SWIDTH 700 0
DWIDTH 21 0
BBX 16 28 2 0
BITMAP
030C
039E
071C
0738
0E30
0470
0000
F007
F007
F007
F007
F007
F007
F007
F007
F007
F007
F007
F007
F007
F007
7007
700F
780F
7C1E
3FFE
1FFC
07F0
ENDCHAR
STARTCHAR 0171
ENCODING 369
SWIDTH 566 0
DWIDTH 17 0
BBX 13 23 2 0
BITMAP
0630
0F38
0E70
1C60
18E0
3840
0000
0000
E038
E038
E038
E038
E038
E038
E038
E038
E038
F038
F038
F878
7FB8
7FB8
1F38
ENDCHAR
STARTCHAR 0172
ENCODING 370
SWIDTH 700 0
DWIDTH 21 0
BBX 16 27 2 -6
BITMAP
F007
F007
F007
F007
F007
F007
F007
F007
F007
F007
F007
F007
F007
F007
7007
700F
780F
7C1E
3FFE
1FFC
07F8
0030
00E0
00C0
01C8
00FC
0078
ENDCHAR
STARTCHAR 0173
ENCODING 371
SWIDTH 566 0
DWIDTH 17 0
BBX 14 21 2 -6
BITMAP
E038
E038
E038
E038
E038
E038
E038
E038
E038
F038
F038
F878
7FB8
7FB8
1F38
0030
0060
00C0
00C8
00FC
0078
ENDCHAR
STARTCHAR 0174
ENCODING 372
SWIDTH 933 0
DWIDTH 28 0
BBX 26 28 1 0
BITMAP
001E0000
003F0000
00778000
00E1C000
00408000
00000000
00000000
E01E01C0
E01E03C0
F03E0380
703F0380
703F0380
70370380
78730700
78738700
38738700
38638700
38E18E00
3CE1CE00
1CE1CE00
1CC1CE00
1DC1CE00
1DC0FC00
0FC0FC00
0F80FC00
0F80FC00
0F807800
07807800
ENDCHAR
STARTCHAR 0175
ENCODING 373
SWIDTH 800 0
DWIDTH 24 0
BBX 22 24 1 0
BITMAP
007800
00FC00
01FE00
01CE00
038700
010200
000000
000000
000000
E0781C
E0781C
F0783C
70FC38
70FC38
70FC38
38CE70
39CE70
39CE70
398670
1F87E0
1F87E0
1F03E0
0F03C0
0F03C0
ENDCHAR
STARTCHAR 0176
ENCODING 374
SWIDTH 633 0
DWIDTH 19 0
BBX 18 28 0 0
BITMAP
01E000
03F000
07B800
0E1C00
040E00
000000
000000
F003C0
780380
3C0780
3C0F00
1E0F00
0E1E00
0F1C00
073C00
07B800
03F800
03F000
01E000
00E000
00E000
00E000
00E000
00E000
00E000
00E000
00E000
00E000
ENDCHAR
STARTCHAR 0177
ENCODING 375
SWIDTH 500 0
DWIDTH 15 0
BBX 15 30 0 -6
BITMAP
03C0
07E0
0EE0
1C70
1C38
0810
0000
0000
0000
F00E
701E
781C
381C
3838
3C38
1C38
1C70
1E70
0EF0
0EE0
07E0
07E0
07C0
03C0
0380
0380
0780
3F00
3F00
3E00
ENDCHAR
STARTCHAR 0178
ENCODING 376
SWIDTH 633 0
DWIDTH 19 0
BBX 18 27 0 0
BITMAP
071C00
0F3C00
0F3C00
071C00
000000
000000
F003C0
780380
3C0780
3C0F00
1E0F00
0E1E00
0F1C00
073C00
07B800
03F800
03F000
01E000
00E000
00E000
00E000
00E000
00E000
00E000
00E000
00E000
00E000
ENDCHAR
STARTCHAR 0179
ENCODING 377
SWIDTH 600 0
DWIDTH 18 0
BBX 16 28 1 0
BITMAP
0060
00F0
00E0
01C0
0180
0380
0000
7FFE
7FFE
7FFE
001E
003C
0038
0078
00F0
01E0
01C0
03C0
0780
0F00
1E00
1E00
3C00
7800
F000
FFFF
FFFF
FFFF
ENDCHAR
STARTCHAR 017A
ENCODING 378
SWIDTH 500 0
DWIDTH 15 0
BBX 13 23 1 0
BITMAP
0180
03C0
0380
0700
0700
0200
0000
0000
FFF0
FFF0
FFF0
00F0
01E0
03C0
0780
0F00
1E00
3C00
7800
7000
FFF8
FFF8
FFF8
ENDCHAR
STARTCHAR 017B
ENCODING 379
SWIDTH 600 0
DWIDTH 18 0
BBX 16 27 1 0
BITMAP
03C0
03C0
03C0
03C0
0000
0000
7FFE
7FFE
7FFE
001E
003C
0038
0078
00F0
01E0
01C0
03C0
0780
0F00
1E00
1E00
3C00
7800
F000
FFFF
FFFF
FFFF
ENDCHAR
STARTCHAR 017C
ENCODING 380
SWIDTH 500 0
DWIDTH 15 0
BBX 13 22 1 0
BITMAP
0700
0F00
0F00
0700
0000
0000
0000
FFF0
FFF0
FFF0
00F0
01E0
03C0
0780
0F00
1E00
3C00
7800
7000
FFF8
FFF8
FFF8
ENDCHAR
STARTCHAR 017D
ENCODING 381
SWIDTH 600 0
DWIDTH 18 0
BBX 16 28 1 0
BITMAP
0810
1C38
0E70
07E0
03C0
0000
0000
7FFE
7FFE
7FFE
001E
003C
0038
0078
00F0
01E0
01C0
03C0
0780
0F00
1E00
1E00
3C00
7800
F000
FFFF
FFFF
FFFF
ENDCHAR
STARTCHAR 017E
ENCODING 382
SWIDTH 500 0
DWIDTH 15 0
BBX 13 23 1 0
BITMAP
2060
7070
38E0
1DC0
0F80
0F00
0000
0000
FFF0
FFF0
FFF0
00F0
01E0
03C0
0780
0F00
1E00
3C00
7800
7000
FFF8
FFF8
FFF8
ENDCHAR
STARTCHAR 017F
ENCODING 383
SWIDTH 300 0
DWIDTH 9 0
BBX 9 22 1 0
BITMAP
0F80
1F80
3F80
3800
3800
3800
3800
F800
F800
F800
3800
3800
3800
3800
3800
3800
3800
3800
3800
3800
3800
3800
ENDCHAR
STARTCHAR 018F
ENCODING 399
SWIDTH 700 0
DWIDTH 21 0
BBX 18 21 2 0
BITMAP
07F000
1FFC00
3FFE00
7C1F00
780700
F00780
000380
000380
0003C0
FFFFC0
FFFFC0
FFFFC0
E003C0
E00380
F00380
700780
780F00
3C1F00
3FFE00
1FFC00
07F000
ENDCHAR
STARTCHAR 0192
ENCODING 402
SWIDTH 500 0
DWIDTH 15 0
BBX 14 25 0 -4
BITMAP
00FC
01FC
03FC
0380
0380
0380
0380
0380
0380
0380
3FF8
3FF8
7FF8
0700
0700
0700
0700
0700
0700
0700
0F00
0F00
FE00
FE00
FC00
ENDCHAR
STARTCHAR 01A0
ENCODING 416
SWIDTH 700 0
DWIDTH 21 0
BBX 18 24 2 0
BITMAP
0001C0
0001C0
0001C0
07FFC0
1FFF80
3FFE00
7C1F00
780F80
F00780
F00380
E00380
E003C0
E003C0
E003C0
E003C0
E003C0
E00380
F00380
F00780
780700
7C1F00
3FFE00
1FFC00
07F000
ENDCHAR
STARTCHAR 01A1
ENCODING 417
SWIDTH 566 0
DWIDTH 17 0
BBX 15 18 1 0
BITMAP
000E
000E
000E
07FE
1FFC
3FF8
783C
701C
F01C
F01E
F01E
F01E
F01C
701C
783C
3FF8
1FF0
07C0
ENDCHAR
STARTCHAR 01AF
ENCODING 431
SWIDTH 700 0
DWIDTH 21 0
BBX 18 24 2 0
BITMAP
0001C0
0001C0
0001C0
F007C0
F007C0
F00700
F00700
F00700
F00700
F00700
F00700
F00700
F00700
F00700
F00700
F00700
F00700
700700
700F00
780F00
7C1E00
3FFE00
1FFC00
07F000
ENDCHAR
STARTCHAR 01B0
ENCODING 432
SWIDTH 566 0
DWIDTH 17 0
BBX 15 18 2 0
BITMAP
000E
000E
000E
E03E
E03E
E038
E038
E038
E038
E038
E038
E038
F038
F038
F878
7FB8
7FB8
1F38
ENDCHAR
STARTCHAR 01CD
ENCODING 461
SWIDTH 666 0
DWIDTH 20 0
BBX 18 28 1 0
BITMAP
040800
0E1C00
077800
03F000
01E000
000000
000000
01E000
03F000
03F000
03F000
077800
073800
073800
0E3C00
0E1C00
0E1C00
1C1E00
1C0E00
1FFE00
3FFF00
3FFF00
380700
700780
700380
F00380
F003C0
E003C0
ENDCHAR
STARTCHAR 01CE
ENCODING 462
SWIDTH 533 0
DWIDTH 16 0
BBX 15 23 1 0
BITMAP
1020
3870
38E0
1DC0
0FC0
0780
0000
0000
0FC0
3FF0
7FF0
3078
0038
0038
1FF8
7FF8
7038
F038
F038
F078
7FBE
7FBE
1F1E
ENDCHAR
STARTCHAR 01CF
ENCODING 463
SWIDTH 400 0
DWIDTH 12 0
BBX 10 28 1 0
BITMAP
40C0
E1C0
7B80
3F00
1E00
0000
0000
7FC0
7FC0
7FC0
0E00
0E00
0E00
0E00
0E00
0E00
0E00
0E00
0E00
0E00
0E00
0E00
0E00
0E00
0E00
7FC0
7FC0
7FC0
ENDCHAR
STARTCHAR 01D0
ENCODING 464
SWIDTH 266 0
DWIDTH 8 0
BBX 10 23 -1 0
BITMAP
4080
E1C0
7380
7F80
3F00
1E00
0000
0000
1E00
1E00
1E00
1E00
1E00
1E00
1E00
1E00
1E00
1E00
1E00
1E00
1E00
1E00
1E00
ENDCHAR
STARTCHAR 01D1
ENCODING 465
SWIDTH 700 0
DWIDTH 21 0
BBX 18 28 2 0
BITMAP
0C0800
1E3C00
077800
03F000
01E000
000000
000000
07F000
1FFC00
3FFE00
7C1F00
780F00
F00780
F00380
E00380
E003C0
E003C0
E003C0
E003C0
E003C0
E00380
F00380
F00780
780700
7C1F00
3FFE00
1FFC00
07F000
ENDCHAR
STARTCHAR 01D2
ENCODING 466
SWIDTH 566 0
DWIDTH 17 0
BBX 15 23 1 0
BITMAP
1010
3838
1C70
0EE0
07C0
0780
0000
0000
07C0
1FF0
3FF8
783C
701C
F01C
F01E
F01E
F01E
F01C
701C
783C
3FF8
1FF0
07C0
ENDCHAR
STARTCHAR 01D3
ENCODING 467
SWIDTH 700 0
DWIDTH 21 0
BBX 16 28 2 0
BITMAP
0818
1C38
0F70
07E0
03C0
0000
0000
F007
F007
F007
F007
F007
F007
F007
F007
F007
F007
F007
F007
F007
F007
7007
700F
780F
7C1E
3FFE
1FFC
07F0
ENDCHAR
STARTCHAR 01D4
ENCODING 468
SWIDTH 566 0
DWIDTH 17 0
BBX 13 23 2 0
BITMAP
3020
7070
38E0
1DC0
0F80
0780
0000
0000
E038
E038
E038
E038
E038
E038
E038
E038
E038
F038
F038
F878
7FB8
7FB8
1F38
ENDCHAR
STARTCHAR 01D5
ENCODING 469
SWIDTH 700 0
DWIDTH 21 0
BBX 16 30 2 0
BITMAP
0FF8
0FF8
0000
0E38
1E78
1E78
0E38
0000
0000
F007
F007
F007
F007
F007
F007
F007
F007
F007
F007
F007
F007
F007
F007
7007
700F
780F
7C1E
3FFE
1FFC
07F0
ENDCHAR
STARTCHAR 01D6
ENCODING 470
SWIDTH 566 0
DWIDTH 17 0
BBX 13 25 2 0
BITMAP
3FE0
3FE0
0000
38E0
38F0
38F0
38E0
0000
0000
0000
E038
E038
E038
E038
E038
E038
E038
E038
E038
F038
F038
F878
7FB8
7FB8
1F38
ENDCHAR
STARTCHAR 01D7
ENCODING 471
SWIDTH 700 0
DWIDTH 21 0
BBX 16 33 2 0
BITMAP
0060
00F0
00E0
01C0
01C0
0080
0E38
1E78
1E78
0E38
0000
0000
F007
F007
F007
F007
F007
F007
F007
F007
F007
F007
F007
F007
F007
F007
7007
700F
780F
7C1E
3FFE
1FFC
07F0
ENDCHAR
STARTCHAR 01D8
ENCODING 472
SWIDTH 566 0
DWIDTH 17 0
BBX 13 28 2 0
BITMAP
01C0
01E0
0380
0380
0700
0200
38E0
38F0
38F0
38E0
0000
0000
0000
E038
E038
E038
E038
E038
E038
E038
E038
E038
F038
F038
F878
7FB8
7FB8
1F38
ENDCHAR
STARTCHAR 01D9
ENCODING 473
SWIDTH 700 0
DWIDTH 21 0
BBX 16 33 2 0
BITMAP
0818
1C38
0F70
07E0
03C0
0000
0E38
1E78
1E78
0E38
0000
0000
F007
F007
F007
F007
F007
F007
F007
F007
F007
F007
F007
F007
F007
F007
7007
700F
780F
7C1E
3FFE
1FFC
07F0
ENDCHAR
STARTCHAR 01DA
ENCODING 474
SWIDTH 566 0
DWIDTH 17 0
BBX 13 28 2 0
BITMAP
3020
78F0
1DE0
0FC0
0780
0000
38E0
38F0
38F0
38E0
0000
0000
0000
E038
E038
E038
E038
E038
E038
E038
E038
E038
F038
F038
F878
7FB8
7FB8
1F38
ENDCHAR
STARTCHAR 01DB
ENCODING 475
SWIDTH 700 0
DWIDTH 21 0
BBX 16 33 2 0
BITMAP
0600
0F00
0700
0380
01C0
0080
0E38
1E78
1E78
0E38
0000
0000
F007
F007
F007
F007
F007
F007
F007
F007
F007
F007
F007
F007
F007
F007
7007
700F
780F
7C1E
3FFE
1FFC
07F0
ENDCHAR
STARTCHAR 01DC
ENCODING 476
SWIDTH 566 0
DWIDTH 17 0
BBX 13 28 2 0
BITMAP
0C00
1C00
0E00
0600
0700
0200
38E0
38F0
38F0
38E0
0000
0000
0000
E038
E038
E038
E038
E038
E038
E038
E038
E038
F038
F038
F878
7FB8
7FB8
1F38
ENDCHAR
STARTCHAR 01FA
ENCODING 506
SWIDTH 666 0
DWIDTH 20 0
BBX 18 35 1 0
BITMAP
004000
003000
007800
00E000
00C000
000000
01E000
03F000
073800
061800
063800
03F000
01E000
000000
01E000
03F000
03F000
03F000
077800
073800
073800
0E3C00
0E1C00
0E1C00
1C1E00
1C0E00
1FFE00
3FFF00
3FFF00
380700
700780
700380
F00380
F003C0
E003C0
ENDCHAR
STARTCHAR 01FB
ENCODING 507
SWIDTH 533 0
DWIDTH 16 0
BBX 15 29 1 0
BITMAP
0080
01C0
01C0
0380
0600
0000
0780
1FC0
18E0
18E0
18E0
1FC0
0780
0000
0FC0
3FF0
7FF0
3078
0038
0038
1FF8
7FF8
7038
F038
F038
F078
7FBE
7FBE
1F1E
ENDCHAR
STARTCHAR 01FC
ENCODING 508
SWIDTH 933 0
DWIDTH 28 0
BBX 26 28 0 0
BITMAP
00001800
00003C00
00003800
00007000
00007000
0000E000
00000000
003FFFC0
003FFFC0
007FFFC0
00770000
00E70000
00E70000
01C70000
01C70000
03870000
0387FF80
0707FF80
0707FF80
0FFF0000
0FFF0000
1FFF0000
1C070000
3C070000
38070000
7807FFC0
7007FFC0
F007FFC0
ENDCHAR
STARTCHAR 01FD
ENCODING 509
SWIDTH 866 0
DWIDTH 26 0
BBX 24 23 1 0
BITMAP
000E00
000F00
001C00
001C00
003800
001000
000000
000000
0F83F0
3FC7F8
7FEFFC
307C1E
20380E
00380F
1FFFFF
7FFFFF
703800
F03800
F03C04
F0FE1E
7FCFFE
7FC7FC
1F03F0
ENDCHAR
STARTCHAR 01FE
ENCODING 510
SWIDTH 700 0
DWIDTH 21 0
BBX 18 29 2 -1
BITMAP
007000
007800
00F000
00E000
01C000
008000
000100
07F380
1FFF80
3FFF00
7C1F00
781F00
F01F80
F03B80
E07380
E073C0
E0E3C0
E1C3C0
E383C0
E383C0
E70380
FE0380
FE0780
7C0700
3C1F00
7FFE00
7FFC00
E7F000
600000
ENDCHAR
STARTCHAR 01FF
ENCODING 511
SWIDTH 566 0
DWIDTH 17 0
BBX 15 24 1 -1
BITMAP
00C0
01E0
01C0
03C0
0380
0100
0000
0004
07CE
1FFC
3FFC
783C
707C
70FC
F1DE
F39E
F71E
7E1E
7C1C
783C
3FF8
7FF0
E7C0
4000
ENDCHAR
STARTCHAR 0218
ENCODING 536
SWIDTH 600 0
DWIDTH 18 0
BBX 15 29 1 -8
BITMAP
07E0
1FF8
3FFE
7C1E
700C
7000
7000
7800
7F00
3FF0
1FFC
03FE
001E
000E
000E
200E
700E
F81E
7FFC
3FF8
0FE0
0000
0000
0380
03C0
03C0
0180
0180
0300
ENDCHAR
STARTCHAR 0219
ENCODING 537
SWIDTH 500 0
DWIDTH 15 0
BBX 12 23 1 -8
BITMAP
1F80
3FE0
7FF0
7060
7000
7800
7FC0
3FE0
1FF0
0070
4070
7070
FFF0
7FE0
1F80
0000
0000
0700
0700
0700
0300
0600
0E00
ENDCHAR
STARTCHAR 021A
ENCODING 538
SWIDTH 566 0
DWIDTH 17 0
BBX 16 29 1 -8
BITMAP
FFFF
FFFF
FFFF
0380
0380
0380
0380
0380
0380
0380
0380
0380
0380
0380
0380
0380
0380
0380
0380
0380
0380
0000
0000
0380
0380
0380
0180
0180
0700
ENDCHAR
STARTCHAR 021B
ENCODING 539
SWIDTH 366 0
DWIDTH 11 0
BBX 9 28 1 -8
BITMAP
1800
1800
1800
1800
3800
FF80
FF80
FF80
3800
3800
3800
3800
3800
3800
3800
3800
3800
3F80
1F80
1F80
0000
0000
0E00
0E00
0E00
0600
0E00
1C00
ENDCHAR
STARTCHAR 0237
ENCODING 567
SWIDTH 266 0
DWIDTH 8 0
BBX 6 21 0 -6
BITMAP
3C
3C
3C
3C
3C
3C
3C
3C
3C
3C
3C
3C
3C
3C
3C
3C
3C
3C
F8
F8
F0
ENDCHAR
STARTCHAR 0259
ENCODING 601
SWIDTH 566 0
DWIDTH 17 0
BBX 14 15 1 0
BITMAP
0FC0
3FF0
7FF8
787C
203C
001C
001C
FFFC
FFFC
F01C
701C
787C
3FF8
1FF0
0FC0
ENDCHAR
STARTCHAR 02BB
ENCODING 699
SWIDTH 600 0
DWIDTH 18 0
BBX 4 6 7 18
BITMAP
30
60
E0
F0
F0
60
ENDCHAR
STARTCHAR 02BC
ENCODING 700
SWIDTH 600 0
DWIDTH 18 0
BBX 4 6 7 16
BITMAP
F0
E0
E0
E0
E0
C0
ENDCHAR
STARTCHAR 02C6
ENCODING 710
SWIDTH 600 0
DWIDTH 18 0
BBX 10 6 4 18
BITMAP
1E00
3F00
7F80
7380
E1C0
4080
ENDCHAR
STARTCHAR 02C7
ENCODING 711
SWIDTH 600 0
DWIDTH 18 0
BBX 10 6 4 17
BITMAP
4080
E1C0
7380
7F80
3F00
1E00
ENDCHAR
STARTCHAR 02D8
ENCODING 728
SWIDTH 600 0
DWIDTH 18 0
BBX 10 5 4 18
BITMAP
4080
E1C0
6380
7F80
1E00
ENDCHAR
STARTCHAR 02D9
ENCODING 729
SWIDTH 600 0
DWIDTH 18 0
BBX 4 4 7 18
BITMAP
F0
F0
F0
F0
ENDCHAR
STARTCHAR 02DA
ENCODING 730
SWIDTH 600 0
DWIDTH 18 0
BBX 8 8 5 17
BITMAP
3C
7E
E7
C3
C3
E7
7E
3C
ENDCHAR
STARTCHAR 02DB
ENCODING 731
SWIDTH 600 0
DWIDTH 18 0
BBX 6 7 4 -6
BITMAP
18
38
70
E0
C8
FC
78
ENDCHAR
STARTCHAR 02DC
ENCODING 732
SWIDTH 600 0
DWIDTH 18 0
BBX 10 3 4 18
BITMAP
7840
FFC0
8780
ENDCHAR
STARTCHAR 02DD
ENCODING 733
SWIDTH 600 0
DWIDTH 18 0
BBX 11 6 5 17
BITMAP
31C0
39E0
7380
6380
E700
4200
ENDCHAR
STARTCHAR 0300
ENCODING 768
SWIDTH 0 0
DWIDTH 0 0
BBX 6 6 -4 17
BITMAP
60
F0
70
38
18
1C
ENDCHAR
STARTCHAR 0301
ENCODING 769
SWIDTH 0 0
DWIDTH 0 0
BBX 6 6 -2 17
BITMAP
18
3C
38
70
60
E0
ENDCHAR
STARTCHAR 0302
ENCODING 770
SWIDTH 0 0
DWIDTH 0 0
BBX 10 6 -5 18
BITMAP
1E00
3F00
7F80
7380
E1C0
4080
ENDCHAR
STARTCHAR 0303
ENCODING 771
SWIDTH 0 0
DWIDTH 0 0
BBX 10 3 -5 18
BITMAP
7840
FFC0
8780
ENDCHAR
STARTCHAR 0304
ENCODING 772
SWIDTH 0 0
DWIDTH 0 0
BBX 8 2 -4 19
BITMAP
FF
FF
ENDCHAR
STARTCHAR 0306
ENCODING 774
SWIDTH 0 0
DWIDTH 0 0
BBX 10 5 -5 18
BITMAP
4080
E1C0
6380
7F80
1E00
ENDCHAR
STARTCHAR 0307
ENCODING 775
SWIDTH 0 0
DWIDTH 0 0
BBX 4 4 -2 18
BITMAP
F0
F0
F0
F0
ENDCHAR
STARTCHAR 0308
ENCODING 776
SWIDTH 0 0
DWIDTH 0 0
BBX 10 4 -5 18
BITMAP
6180
F3C0
F3C0
6180
ENDCHAR
STARTCHAR 0309
ENCODING 777
SWIDTH 0 0
DWIDTH 0 0
BBX 6 6 -3 16
BITMAP
FC
FC
1C
1C
38
10
ENDCHAR
STARTCHAR 030A
ENCODING 778
SWIDTH 0 0
DWIDTH 0 0
BBX 8 8 -4 17
BITMAP
3C
7E
E7
C3
C3
E7
7E
3C
ENDCHAR
STARTCHAR 030B
ENCODING 779
SWIDTH 0 0
DWIDTH 0 0
BBX 11 6 -4 17
BITMAP
31C0
39E0
73C0
6380
E700
4200
ENDCHAR
STARTCHAR 030C
ENCODING 780
SWIDTH 0 0
DWIDTH 0 0
BBX 10 6 -5 17
BITMAP
4080
E1C0
7380
7F80
3F00
1E00
ENDCHAR
STARTCHAR 0312
ENCODING 786
SWIDTH 0 0
DWIDTH 0 0
BBX 4 6 -2 18
BITMAP
30
60
E0
F0
F0
60
ENDCHAR
STARTCHAR 0315
ENCODING 789
SWIDTH 0 0
DWIDTH 0 0
BBX 4 6 0 16
BITMAP
F0
F0
E0
E0
E0
C0
ENDCHAR
STARTCHAR 031B
ENCODING 795
SWIDTH 0 0
DWIDTH 0 0
BBX 6 5 -3 13
BITMAP
1C
1C
1C
FC
F8
ENDCHAR
STARTCHAR 0323
ENCODING 803
SWIDTH 0 0
DWIDTH 0 0
BBX 4 4 -2 -6
BITMAP
60
F0
F0
60
ENDCHAR
STARTCHAR 0326
ENCODING 806
SWIDTH 0 0
DWIDTH 0 0
BBX 4 6 -2 -8
BITMAP
60
F0
F0
60
60
C0
ENDCHAR
STARTCHAR 0327
ENCODING 807
SWIDTH 0 0
DWIDTH 0 0
BBX 7 6 -3 -6
BITMAP
30
3C
0E
46
FE
7C
ENDCHAR
STARTCHAR 0328
ENCODING 808
SWIDTH 0 0
DWIDTH 0 0
BBX 7 7 -6 -6
BITMAP
0C
18
30
60
E4
7E
7C
ENDCHAR
STARTCHAR 037E
ENCODING 894
SWIDTH 300 0
DWIDTH 9 0
BBX 6 21 1 -4
BITMAP
38
3C
7C
3C
38
00
00
00
00
00
00
00
00
38
7C
7C
3C
18
38
30
E0
ENDCHAR
STARTCHAR 0384
ENCODING 900
SWIDTH 600 0
DWIDTH 18 0
BBX 4 6 8 17
BITMAP
70
70
60
E0
E0
C0
ENDCHAR
STARTCHAR 0385
ENCODING 901
SWIDTH 600 0
DWIDTH 18 0
BBX 11 6 4 17
BITMAP
0600
E6C0
EEE0
ECE0
ECE0
0C00
ENDCHAR
STARTCHAR 0386
ENCODING 902
SWIDTH 666 0
DWIDTH 20 0
BBX 18 23 1 0
BITMAP
700000
700000
71E000
E3F000
E3F000
E3F000
077800
073800
073800
0E3C00
0E1C00
0E1C00
1C1E00
1C0E00
1FFE00
3FFF00
3FFF00
380700
700780
700380
F00380
F003C0
E003C0
ENDCHAR
STARTCHAR 0387
ENCODING 903
SWIDTH 300 0
DWIDTH 9 0
BBX 5 5 2 12
BITMAP
70
78
F8
78
70
ENDCHAR
STARTCHAR 0388
ENCODING 904
SWIDTH 633 0
DWIDTH 19 0
BBX 19 23 -1 0
BITMAP
700000
700000
77FFE0
67FFE0
67FFE0
E78000
078000
078000
078000
078000
078000
07FFC0
07FFC0
07FFC0
078000
078000
078000
078000
078000
078000
07FFE0
07FFE0
07FFE0
ENDCHAR
STARTCHAR 0389
ENCODING 905
SWIDTH 766 0
DWIDTH 23 0
BBX 22 23 -1 0
BITMAP
700000
700000
77803C
67803C
67803C
E7803C
07803C
07803C
07803C
07803C
07803C
07FFFC
07FFFC
07FFFC
07803C
07803C
07803C
07803C
07803C
07803C
07803C
07803C
07803C
ENDCHAR
STARTCHAR 038A
ENCODING 906
SWIDTH 500 0
DWIDTH 15 0
BBX 14 23 -1 0
BITMAP
7000
7000
77FC
67FC
67FC
E0F0
00F0
00F0
00F0
00F0
00F0
00F0
00F0
00F0
00F0
00F0
00F0
00F0
00F0
00F0
07FC
07FC
07FC
ENDCHAR
STARTCHAR 038C
ENCODING 908
SWIDTH 733 0
DWIDTH 22 0
BBX 21 23 -1 0
BITMAP
700000
700000
707E00
61FF80
63FFE0
E7C1E0
0F00F0
0F0070
0E0078
1E0038
1E0038
1E0038
1E0038
1E0038
1E0038
1E0038
0E0078
0F0070
0F00F0
07C1E0
03FFE0
01FFC0
007E00
ENDCHAR
STARTCHAR 038E
ENCODING 910
SWIDTH 733 0
DWIDTH 22 0
BBX 22 23 -1 0
BITMAP
700000
700000
77803C
67803C
63C078
E1C070
01E0F0
00F0E0
00F1E0
007BC0
003B80
003F80
001F00
001F00
000E00
000E00
000E00
000E00
000E00
000E00
000E00
000E00
000E00
ENDCHAR
STARTCHAR 038F
ENCODING 911
SWIDTH 733 0
DWIDTH 22 0
BBX 22 23 -1 0
BITMAP
700000
700000
707F00
61FFC0
63FFE0
E7C1F0
0F00F0
0F0078
0E0038
1E0038
1E0038
1E0038
1E0038
1E0038
0E0078
0F0078
0700F0
07C1E0
03E3E0
00E380
1FE3FC
1FE3FC
1FE3FC
ENDCHAR
STARTCHAR 0390
ENCODING 912
SWIDTH 300 0
DWIDTH 9 0
BBX 11 23 -1 0
BITMAP
0600
E6C0
EEE0
ECE0
ECC0
0C00
0000
0000
1E00
1E00
1E00
1E00
1E00
1E00
1E00
1E00
1E00
1E00
1E00
1E00
1FC0
0FC0
07C0
ENDCHAR
STARTCHAR 0391
ENCODING 913
SWIDTH 666 0
DWIDTH 20 0
BBX 18 21 1 0
BITMAP
01E000
03F000
03F000
03F000
077800
073800
073800
0E3C00
0E1C00
0E1C00
1C1E00
1C0E00
1FFE00
3FFF00
3FFF00
380700
700780
700380
F00380
F003C0
E003C0
ENDCHAR
STARTCHAR 0392
ENCODING 914
SWIDTH 666 0
DWIDTH 20 0
BBX 15 21 3 0
BITMAP
FFE0
FFF8
FFFC
E03C
E01C
E01C
E01C
E01C
E03C
FFF8
FFF0
FFFC
E01E
E01E
E00E
E00E
E01E
E01E
FFFC
FFF8
FFF0
ENDCHAR
STARTCHAR 0393
ENCODING 915
SWIDTH 500 0
DWIDTH 15 0
BBX 11 21 3 0
BITMAP
FFE0
FFE0
FFE0
E000
E000
E000
E000
E000
E000
E000
E000
E000
E000
E000
E000
E000
E000
E000
E000
E000
E000
ENDCHAR
STARTCHAR 0394
ENCODING 916
SWIDTH 666 0
DWIDTH 20 0
BBX 17 21 1 0
BITMAP
01E000
03F000
03F000
03F000
077800
073800
0F3800
0E3C00
0E1C00
1E1C00
1C1E00
1C0E00
3C0E00
380F00
380700
780700
700780
700380
FFFF80
FFFF80
FFFF80
ENDCHAR
STARTCHAR 0395
ENCODING 917
SWIDTH 600 0
DWIDTH 18 0
BBX 13 21 3 0
BITMAP
FFF8
FFF8
FFF8
E000
E000
E000
E000
E000
E000
FFF0
FFF0
FFF0
E000
E000
E000
E000
E000
E000
FFF8
FFF8
FFF8
ENDCHAR
STARTCHAR 0396
ENCODING 918
SWIDTH 600 0
DWIDTH 18 0
BBX 16 21 1 0
BITMAP
7FFE
7FFE
7FFE
001E
003C
0038
0078
00F0
01E0
01C0
03C0
0780
0F00
1E00
1E00
3C00
7800
F000
FFFF
FFFF
FFFF
ENDCHAR
STARTCHAR 0397
ENCODING 919
SWIDTH 700 0
DWIDTH 21 0
BBX 16 21 3 0
BITMAP
E00F
E00F
E00F
E00F
E00F
E00F
E00F
E00F
E00F
FFFF
FFFF
FFFF
E00F
E00F
E00F
E00F
E00F
E00F
E00F
E00F
E00F
ENDCHAR
STARTCHAR 0398
ENCODING 920
SWIDTH 700 0
DWIDTH 21 0
BBX 18 21 2 0
BITMAP
07F000
1FFC00
3FFE00
7C1F00
780780
F00780
F00380
E003C0
E003C0
E7FBC0
E7FBC0
E7FBC0
E003C0
E003C0
F00380
F00780
780780
7C1F00
3FFE00
1FFC00
07F000
ENDCHAR
STARTCHAR 0399
ENCODING 921
SWIDTH 400 0
DWIDTH 12 0
BBX 9 21 2 0
BITMAP
FF80
FF80
FF80
1C00
1C00
1C00
1C00
1C00
1C00
1C00
1C00
1C00
1C00
1C00
1C00
1C00
1C00
1C00
FF80
FF80
FF80
ENDCHAR
STARTCHAR 039A
ENCODING 922
SWIDTH 666 0
DWIDTH 20 0
BBX 16 21 3 0
BITMAP
E01F
E03C
E03C
E078
E0F0
E1E0
E3C0
E380
E780
EF80
FF80
FFC0
F9E0
F1E0
E0F0
E078
E078
E03C
E01E
E01E
E00F
ENDCHAR
STARTCHAR 039B
ENCODING 923
SWIDTH 633 0
DWIDTH 19 0
BBX 18 21 1 0
BITMAP
03E000
03E000
03F000
077000
077000
077800
0F3800
0E3800
0E3C00
1E1C00
1C1C00
1C1E00
3C1E00
380E00
380F00
780F00
780700
700780
F00780
F00380
E003C0
ENDCHAR
STARTCHAR 039C
ENCODING 924
SWIDTH 800 0
DWIDTH 24 0
BBX 19 21 3 0
BITMAP
F001E0
F003E0
F803E0
F807E0
FC07E0
FC0EE0
EE0EE0
EE1CE0
E71CE0
E738E0
E3B8E0
E3F0E0
E1F0E0
E1E0E0
E0E0E0
E0C0E0
E080E0
E000E0
E000E0
E000E0
E000E0
ENDCHAR
STARTCHAR 039D
ENCODING 925
SWIDTH 700 0
DWIDTH 21 0
BBX 16 21 3 0
BITMAP
F007
F007
F807
F807
FC07
FE07
EE07
EF07
E707
E787
E3C7
E3C7
E1E7
E0E7
E0F7
E077
E07F
E03F
E01F
E01F
E00F
ENDCHAR
STARTCHAR 039E
ENCODING 926
SWIDTH 600 0
DWIDTH 18 0
BBX 14 21 2 0
BITMAP
FFFC
FFFC
FFFC
0000
0000
0000
0000
0000
0000
7FF8
7FF8
7FF8
0000
0000
0000
0000
0000
0000
FFFC
FFFC
FFFC
ENDCHAR
STARTCHAR 039F
ENCODING 927
SWIDTH 700 0
DWIDTH 21 0
BBX 18 21 2 0
BITMAP
07F000
1FFC00
3FFE00
7C1F00
780F00
F00780
F00380
E00380
E003C0
E003C0
E003C0
E003C0
E003C0
E00380
F00380
F00780
780700
7C1F00
3FFE00
1FFC00
07F000
ENDCHAR
STARTCHAR 03A0
ENCODING 928
SWIDTH 700 0
DWIDTH 21 0
BBX 15 21 3 0
BITMAP
FFFE
FFFE
FFFE
E00E
E00E
E00E
E00E
E00E
E00E
E00E
E00E
E00E
E00E
E00E
E00E
E00E
E00E
E00E
E00E
E00E
E00E
ENDCHAR
STARTCHAR 03A1
ENCODING 929
SWIDTH 633 0
DWIDTH 19 0
BBX 15 21 3 0
BITMAP
FFE0
FFF8
FFFC
E03C
E01C
E01E
E01E
E01E
E01C
E03C
FFFC
FFF8
FFE0
E000
E000
E000
E000
E000
E000
E000
E000
ENDCHAR
STARTCHAR 03A3
ENCODING 931
SWIDTH 600 0
DWIDTH 18 0
BBX 15 21 1 0
BITMAP
7FFE
7FFE
7FFE
7800
3C00
1E00
0F00
0780
03C0
01E0
01E0
03C0
0780
0F00
0F00
1E00
3C00
7800
FFFE
FFFE
FFFE
ENDCHAR
STARTCHAR 03A4
ENCODING 932
SWIDTH 566 0
DWIDTH 17 0
BBX 16 21 1 0
BITMAP
FFFF
FFFF
FFFF
0380
0380
0380
0380
0380
0380
0380
0380
0380
0380
0380
0380
0380
0380
0380
0380
0380
0380
ENDCHAR
STARTCHAR 03A5
ENCODING 933
SWIDTH 633 0
DWIDTH 19 0
BBX 18 21 0 0
BITMAP
F003C0
780380
3C0780
3C0F00
1E0F00
0E1E00
0F1C00
073C00
07B800
03F800
03F000
01E000
00E000
00E000
00E000
00E000
00E000
00E000
00E000
00E000
00E000
ENDCHAR
STARTCHAR 03A6
ENCODING 934
SWIDTH 866 0
DWIDTH 26 0
BBX 23 23 1 -1
BITMAP
003800
003800
03FF80
0FFFE0
1FFFF8
3E38F8
3C383C
78381C
70381E
70381E
F0380E
F0380E
F0380E
70381E
70381E
78381C
3C383C
3E38F8
1FFFF8
0FFFE0
03FF80
003800
003800
ENDCHAR
STARTCHAR 03A7
ENCODING 935
SWIDTH 633 0
DWIDTH 19 0
BBX 18 21 1 0
BITMAP
F00780
780700
780F00
3C1E00
1E1C00
1E3C00
0F7800
077000
07F000
03E000
03E000
03E000
07F000
0F7800
0E3800
1E3C00
3C1E00
381E00
780F00
700780
F007C0
ENDCHAR
STARTCHAR 03A8
ENCODING 936
SWIDTH 800 0
DWIDTH 24 0
BBX 20 21 2 0
BITMAP
E0F070
E0F070
E0F070
E0F070
E0F070
E0F070
E0F070
E0F070
F0F070
F0F0F0
78F0F0
7CF3E0
3FFFE0
1FFF80
07FE00
00F000
00F000
00F000
00F000
00F000
00F000
ENDCHAR
STARTCHAR 03A9
ENCODING 937
SWIDTH 733 0
DWIDTH 22 0
BBX 18 21 2 0
BITMAP
03F000
0FFC00
3FFE00
3C1F00
780780
F00780
F00380
E003C0
E003C0
E003C0
E003C0
E003C0
F00380
F00780
780780
3C0F00
1E1E00
0E1C00
FE1FC0
FE1FC0
FE1FC0
ENDCHAR
STARTCHAR 03AA
ENCODING 938
SWIDTH 400 0
DWIDTH 12 0
BBX 10 27 1 0
BITMAP
71C0
F3C0
F3C0
71C0
0000
0000
7FC0
7FC0
7FC0
0E00
0E00
0E00
0E00
0E00
0E00
0E00
0E00
0E00
0E00
0E00
0E00
0E00
0E00
0E00
7FC0
7FC0
7FC0
ENDCHAR
STARTCHAR 03AB
ENCODING 939
SWIDTH 633 0
DWIDTH 19 0
BBX 18 27 0 0
BITMAP
071C00
0F3C00
0F3C00
071C00
000000
000000
F003C0
780380
3C0780
3C0F00
1E0F00
0E1E00
0F1C00
073C00
07B800
03F800
03F000
01E000
00E000
00E000
00E000
00E000
00E000
00E000
00E000
00E000
00E000
ENDCHAR
STARTCHAR 03AC
ENCODING 940
SWIDTH 666 0
DWIDTH 20 0
BBX 18 23 1 0
BITMAP
01C000
01C000
01C000
038000
038000
038000
000000
000000
0F8380
1FE780
3FE700
78F700
707600
703E00
F03C00
F01C00
F03E00
703E00
707E00
78F700
3FE7C0
1FE7C0
0F83C0
ENDCHAR
STARTCHAR 03AD
ENCODING 941
SWIDTH 533 0
DWIDTH 16 0
BBX 13 23 2 0
BITMAP
0380
0380
0300
0700
0700
0600
0000
0000
1F80
7FE0
FFF0
F078
E020
F000
3F80
7F80
F000
E000
E030
F078
FFF0
7FE0
3F80
ENDCHAR
STARTCHAR 03AE
ENCODING 942
SWIDTH 600 0
DWIDTH 18 0
BBX 14 29 1 -6
BITMAP
00E0
00E0
01C0
01C0
01C0
0180
0000
0000
F1F0
F3F8
FFFC
3C3C
381C
381C
381C
381C
381C
381C
381C
381C
381C
381C
381C
001C
001C
001C
001C
001C
001C
ENDCHAR
STARTCHAR 03AF
ENCODING 943
SWIDTH 300 0
DWIDTH 9 0
BBX 7 23 2 0
BITMAP
38
38
30
70
70
60
00
00
F0
F0
F0
F0
F0
F0
F0
F0
F0
F0
F0
F0
FE
7E
3E
ENDCHAR
STARTCHAR 03B0
ENCODING 944
SWIDTH 566 0
DWIDTH 17 0
BBX 13 23 2 0
BITMAP
0380
33B0
7B70
7B70
3330
0600
0000
0000
E038
E038
E038
E038
E038
E038
E038
E038
E038
F038
F078
7878
7FF0
3FE0
0FC0
ENDCHAR
STARTCHAR 03B1
ENCODING 945
SWIDTH 666 0
DWIDTH 20 0
BBX 18 15 1 0
BITMAP
0F8380
1FE780
3FE700
78F700
707600
703E00
F03C00
F01C00
F03E00
703E00
707E00
78F700
3FE7C0
1FE7C0
0F83C0
ENDCHAR
STARTCHAR 03B2
ENCODING 946
SWIDTH 600 0
DWIDTH 18 0
BBX 14 28 2 -6
BITMAP
0FC0
3FF0
3FF8
7878
7038
F038
F038
F038
F070
F3E0
F3C0
F3F0
F078
F01C
F01C
F01C
F01C
F01C
F87C
FFF8
FFF0
F3E0
F000
F000
F000
F000
F000
F000
ENDCHAR
STARTCHAR 03B3
ENCODING 947
SWIDTH 533 0
DWIDTH 16 0
BBX 15 21 0 -6
BITMAP
F00E
F81E
F81C
381C
3C38
1C38
1C38
1E70
0E70
0E70
06E0
07E0
07C0
03C0
03C0
0380
0380
0380
0380
0380
0380
ENDCHAR
STARTCHAR 03B4
ENCODING 948
SWIDTH 566 0
DWIDTH 17 0
BBX 15 22 1 0
BITMAP
3FF8
3FF8
3FF8
3C00
0F00
07C0
03E0
0FF0
3EF8
3878
703C
701C
F01E
F01E
F01E
F01E
701C
701C
783C
3FF8
1FF0
07C0
ENDCHAR
STARTCHAR 03B5
ENCODING 949
SWIDTH 533 0
DWIDTH 16 0
BBX 13 15 2 0
BITMAP
1F80
7FE0
FFF0
F078
E020
F000
3F80
7F80
F000
E000
E030
F078
FFF0
7FE0
3F80
ENDCHAR
STARTCHAR 03B6
ENCODING 950
SWIDTH 433 0
DWIDTH 13 0
BBX 12 27 1 -5
BITMAP
7FF0
7FF0
7FF0
00E0
01C0
0380
0780
0F00
1E00
1C00
3800
7800
7000
F000
F000
F000
F000
7800
7E00
3FC0
1FE0
03E0
00E0
00E0
01E0
01C0
00C0
ENDCHAR
STARTCHAR 03B7
ENCODING 951
SWIDTH 600 0
DWIDTH 18 0
BBX 14 21 1 -6
BITMAP
F1F0
F3F8
FFFC
3C3C
381C
381C
381C
381C
381C
381C
381C
381C
381C
381C
381C
001C
001C
001C
001C
001C
001C
ENDCHAR
STARTCHAR 03B8
ENCODING 952
SWIDTH 566 0
DWIDTH 17 0
BBX 15 22 1 0
BITMAP
07C0
1FF0
3FF8
3838
783C
701C
701C
701C
701C
7FFE
FFFE
FFFE
701E
701C
701C
701C
701C
783C
3C78
3FF8
1FF0
07C0
ENDCHAR
STARTCHAR 03B9
ENCODING 953
SWIDTH 300 0
DWIDTH 9 0
BBX 7 15 2 0
BITMAP
F0
F0
F0
F0
F0
F0
F0
F0
F0
F0
F0
F0
FE
7E
3E
ENDCHAR
STARTCHAR 03BA
ENCODING 954
SWIDTH 566 0
DWIDTH 17 0
BBX 14 15 2 0
BITMAP
F038
F078
F0F8
F1E0
F3C0
F780
FF00
FF80
FB80
F3C0
F1E0
F0E0
F0F0
F078
F03C
ENDCHAR
STARTCHAR 03BB
ENCODING 955
SWIDTH 533 0
DWIDTH 16 0
BBX 15 22 0 0
BITMAP
3E00
3F00
3F00
0700
0780
0380
0380
03C0
07C0
07C0
07E0
0EE0
0EE0
0EF0
1C70
1C70
3878
3838
3838
703E
701E
F00E
ENDCHAR
STARTCHAR 03BC
ENCODING 956
SWIDTH 600 0
DWIDTH 18 0
BBX 15 21 2 -6
BITMAP
F038
F038
F038
F038
F038
F038
F038
F038
F038
F038
F038
F878
FFFE
FFBE
EF1E
E000
E000
F000
F000
F000
F000
ENDCHAR
STARTCHAR 03BD
ENCODING 957
SWIDTH 533 0
DWIDTH 16 0
BBX 15 15 0 0
BITMAP
F00E
F80E
F81C
381C
3C1C
1C38
1C38
1E78
0E70
0E70
0E60
07E0
07E0
07C0
03C0
ENDCHAR
STARTCHAR 03BE
ENCODING 958
SWIDTH 466 0
DWIDTH 14 0
BBX 12 27 1 -5
BITMAP
FFF0
FFF0
FFF0
1C00
3800
3800
7800
3800
3C00
1FC0
0FC0
3FC0
7800
7000
7000
F000
7000
7800
7E00
3FC0
1FE0
03E0
00E0
00E0
00E0
01E0
0040
ENDCHAR
STARTCHAR 03BF
ENCODING 959
SWIDTH 566 0
DWIDTH 17 0
BBX 15 15 1 0
BITMAP
07C0
1FF0
3FF8
783C
701C
F01C
F01E
F01E
F01E
F01C
701C
783C
3FF8
1FF0
07C0
ENDCHAR
STARTCHAR 03C0
ENCODING 960
SWIDTH 633 0
DWIDTH 19 0
BBX 17 15 1 0
BITMAP
FFFF80
FFFF80
FFFF80
3C1C00
3C1C00
3C1C00
3C1C00
3C1C00
3C1C00
3C1C00
3C1C00
3C1C00
3C1F00
3C1F00
3C0F00
ENDCHAR
STARTCHAR 03C1
ENCODING 961
SWIDTH 566 0
DWIDTH 17 0
BBX 13 21 2 -6
BITMAP
0FC0
3FE0
7FF0
F078
E038
E038
E038
E038
E038
E038
E038
F078
FFF0
FFE0
E7C0
E000
E000
E000
E000
E000
E000
ENDCHAR
STARTCHAR 03C2
ENCODING 962
SWIDTH 500 0
DWIDTH 15 0
BBX 13 20 1 -5
BITMAP
0FC0
1FE0
3FF0
7878
7030
F000
F000
F000
F000
7000
7800
7F00
3FE0
0FF0
01F0
0070
00F0
00E0
00E0
0060
ENDCHAR
STARTCHAR 03C3
ENCODING 963
SWIDTH 600 0
DWIDTH 18 0
BBX 16 15 1 0
BITMAP
07FF
1FFF
3FFF
7838
701C
F01C
F01E
F01E
F01E
F01C
701C
783C
3FF8
1FF0
07C0
ENDCHAR
STARTCHAR 03C4
ENCODING 964
SWIDTH 500 0
DWIDTH 15 0
BBX 13 15 1 0
BITMAP
FFF8
FFF8
FFF8
0F00
0F00
0F00
0F00
0F00
0F00
0F00
0F00
0F00
0FE0
07E0
03E0
ENDCHAR
STARTCHAR 03C5
ENCODING 965
SWIDTH 566 0
DWIDTH 17 0
BBX 13 15 2 0
BITMAP
E038
E038
E038
E038
E038
E038
E038
E038
E038
F038
F078
7878
7FF0
3FE0
0FC0
ENDCHAR
STARTCHAR 03C6
ENCODING 966
SWIDTH 733 0
DWIDTH 22 0
BBX 20 21 1 -6
BITMAP
081F80
3C3FC0
3E7FE0
7871E0
70F0F0
70F0F0
F0E0F0
F0E0F0
F0E0F0
70E0F0
78E0E0
7CE3E0
3FFFC0
1FFF80
07FE00
00E000
00E000
00E000
00E000
00E000
00E000
ENDCHAR
STARTCHAR 03C7
ENCODING 967
SWIDTH 533 0
DWIDTH 16 0
BBX 15 21 0 -6
BITMAP
F01E
F81C
FC3C
1C38
1E78
0E70
0EF0
07E0
07E0
07C0
03C0
07C0
07E0
0EE0
0EF0
1C70
1C78
3C38
383E
781E
F01E
ENDCHAR
STARTCHAR 03C8
ENCODING 968
SWIDTH 733 0
DWIDTH 22 0
BBX 18 27 2 -6
BITMAP
01E000
01E000
01E000
01E000
01E000
01E000
E1E1C0
E1E1C0
E1E1C0
E1E1C0
E1E1C0
E1E1C0
E1E1C0
E1E1C0
E1E1C0
F1E1C0
71E3C0
79E780
3FFF80
3FFF00
0FFC00
01E000
01E000
01E000
01E000
01E000
01E000
ENDCHAR
STARTCHAR 03C9
ENCODING 969
SWIDTH 766 0
DWIDTH 23 0
BBX 20 15 1 0
BITMAP
080180
3C03C0
3E01E0
7800E0
7000F0
707070
F07070
F07070
F07070
707070
70F0F0
78F8F0
7FDFE0
3F9FC0
1F0F80
ENDCHAR
STARTCHAR 03CA
ENCODING 970
SWIDTH 300 0
DWIDTH 9 0
BBX 10 22 -1 0
BITMAP
71C0
F3C0
F3C0
71C0
0000
0000
0000
1E00
1E00
1E00
1E00
1E00
1E00
1E00
1E00
1E00
1E00
1E00
1E00
1FC0
0FC0
07C0
ENDCHAR
STARTCHAR 03CB
ENCODING 971
SWIDTH 566 0
DWIDTH 17 0
BBX 13 22 2 0
BITMAP
38E0
3CF0
3CF0
38E0
0000
0000
0000
E038
E038
E038
E038
E038
E038
E038
E038
E038
F038
F078
7878
7FF0
3FE0
0FC0
ENDCHAR
STARTCHAR 03CC
ENCODING 972
SWIDTH 566 0
DWIDTH 17 0
BBX 15 23 1 0
BITMAP
01C0
01C0
01C0
0180
0380
0380
0000
0000
07C0
1FF0
3FF8
783C
701C
F01C
F01E
F01E
F01E
F01C
701C
783C
3FF8
1FF0
07C0
ENDCHAR
STARTCHAR 03CD
ENCODING 973
SWIDTH 566 0
DWIDTH 17 0
BBX 13 23 2 0
BITMAP
03C0
0380
0380
0380
0300
0300
0000
0000
E038
E038
E038
E038
E038
E038
E038
E038
E038
F038
F078
7878
7FF0
3FE0
0FC0
ENDCHAR
STARTCHAR 03CE
ENCODING 974
SWIDTH 766 0
DWIDTH 23 0
BBX 20 23 1 0
BITMAP
003800
003800
003000
007000
007000
006000
000000
000000
080180
3C03C0
3E01E0
7800E0
7000F0
707070
F07070
F07070
F07070
707070
70F0F0
78F8F0
7FDFE0
3F9FC0
1F0F80
ENDCHAR
STARTCHAR 0400
ENCODING 1024
SWIDTH 600 0
DWIDTH 18 0
BBX 13 28 3 0
BITMAP
1C00
3C00
1E00
0E00
0700
0200
0000
FFF8
FFF8
FFF8
E000
E000
E000
E000
E000
E000
FFF0
FFF0
FFF0
E000
E000
E000
E000
E000
E000
FFF8
FFF8
FFF8
ENDCHAR
STARTCHAR 0401
ENCODING 1025
SWIDTH 600 0
DWIDTH 18 0
BBX 13 27 3 0
BITMAP
38E0
79E0
79E0
38E0
0000
0000
FFF8
FFF8
FFF8
E000
E000
E000
E000
E000
E000
FFF0
FFF0
FFF0
E000
E000
E000
E000
E000
E000
FFF8
FFF8
FFF8
ENDCHAR
STARTCHAR 0402
ENCODING 1026
SWIDTH 800 0
DWIDTH 24 0
BBX 21 26 1 -5
BITMAP
FFFF00
FFFF00
FFFF00
038000
038000
038000
038000
038000
03BF80
03FFE0
03FFF0
03C0F0
038078
038038
038038
038038
038038
038038
038038
038038
038038
000078
000078
0003F0
0003E0
0003C0
ENDCHAR
STARTCHAR 0403
ENCODING 1027
SWIDTH 500 0
DWIDTH 15 0
BBX 11 28 3 0
BITMAP
0300
0380
0700
0700
0E00
0400
0000
FFE0
FFE0
FFE0
E000
E000
E000
E000
E000
E000
E000
E000
E000
E000
E000
E000
E000
E000
E000
E000
E000
E000
ENDCHAR
STARTCHAR 0404
ENCODING 1028
SWIDTH 633 0
DWIDTH 19 0
BBX 16 21 2 0
BITMAP
07F0
1FFC
3FFE
7C1F
780F
F006
F000
E000
E000
FFE0
FFE0
FFE0
E000
E000
F000
F006
7807
7C1F
3FFE
1FFC
07F0
ENDCHAR
STARTCHAR 0405
ENCODING 1029
SWIDTH 600 0
DWIDTH 18 0
BBX 15 21 1 0
BITMAP
07E0
1FF8
3FFE
7C1E
700C
7000
7000
7800
7F00
3FF0
1FFC
03FE
001E
000E
000E
200E
700E
F81E
7FFC
3FF8
0FE0
ENDCHAR
STARTCHAR 0406
ENCODING 1030
SWIDTH 400 0
DWIDTH 12 0
BBX 9 21 2 0
BITMAP
FF80
FF80
FF80
1C00
1C00
1C00
1C00
1C00
1C00
1C00
1C00
1C00
1C00
1C00
1C00
1C00
1C00
1C00
FF80
FF80
FF80
ENDCHAR
STARTCHAR 0407
ENCODING 1031
SWIDTH 400 0
DWIDTH 12 0
BBX 10 27 1 0
BITMAP
71C0
F3C0
F3C0
71C0
0000
0000
7FC0
7FC0
7FC0
0E00
0E00
0E00
0E00
0E00
0E00
0E00
0E00
0E00
0E00
0E00
0E00
0E00
0E00
0E00
7FC0
7FC0
7FC0
ENDCHAR
STARTCHAR 0408
ENCODING 1032
SWIDTH 533 0
DWIDTH 16 0
BBX 12 21 1 0
BITMAP
3FF0
3FF0
3FF0
0070
0070
0070
0070
0070
0070
0070
0070
0070
0070
0070
0070
6070
E070
F0F0
7FE0
3FE0
1F80
ENDCHAR
STARTCHAR 0409
ENCODING 1033
SWIDTH 1033 0
DWIDTH 31 0
BBX 30 21 0 0
BITMAP
07FFC000
07FFC000
07FFC000
0701C000
0701C000
0701C000
0701C000
0701C000
0701FFC0
0701FFF0
0701FFF8
0701C078
0701C03C
0701C03C
0F01C03C
0F01C03C
0E01C03C
1E01C078
FC01FFF8
FC01FFF0
F001FFC0
ENDCHAR
STARTCHAR 040A
ENCODING 1034
SWIDTH 1033 0
DWIDTH 31 0
BBX 27 21 3 0
BITMAP
E00E0000
E00E0000
E00E0000
E00E0000
E00E0000
E00E0000
E00E0000
E00E0000
E00FFF00
FFFFFF80
FFFFFFC0
FFFE03E0
E00E01E0
E00E01E0
E00E01E0
E00E01E0
E00E01E0
E00E03E0
E00FFFC0
E00FFF80
E00FFF00
ENDCHAR
STARTCHAR 040B
ENCODING 1035
SWIDTH 800 0
DWIDTH 24 0
BBX 21 21 1 0
BITMAP
FFFF00
FFFF00
FFFF00
038000
038000
038000
038000
038000
03BF80
03FFE0
03FFF0
03C0F8
038078
038038
038038
038038
038038
038038
038038
038038
038038
ENDCHAR
STARTCHAR 040C
ENCODING 1036
SWIDTH 666 0
DWIDTH 20 0
BBX 16 28 3 0
BITMAP
00C0
01E0
01C0
0380
0300
0700
0000
E00E
E01E
E03E
E038
E078
E070
E0E0
E1E0
E1C0
FFC0
FF80
FFC0
E1E0
E1E0
E0F0
E070
E078
E03C
E03F
E01F
E00F
ENDCHAR
STARTCHAR 040D
ENCODING 1037
SWIDTH 700 0
DWIDTH 21 0
BBX 16 28 3 0
BITMAP
0600
0F00
0700
0380
0380
0100
0000
E00F
E00F
E01F
E01F
E03F
E077
E077
E0E7
E1E7
E1C7
E387
E787
E707
EF07
EE07
FC07
FC07
F807
F007
F007
E007
ENDCHAR
STARTCHAR 040E
ENCODING 1038
SWIDTH 600 0
DWIDTH 18 0
BBX 17 28 1 0
BITMAP
041000
1C3800
0E3800
07F000
03E000
000000
000000
E00780
F00700
700F00
780E00
380E00
3C1E00
1C1C00
1E3C00
0E3800
0E3800
0F7800
077000
07F000
03E000
03E000
01E000
01C000
03C000
1F8000
1F8000
1F0000
ENDCHAR
STARTCHAR 040F
ENCODING 1039
SWIDTH 700 0
DWIDTH 21 0
BBX 15 26 3 -5
BITMAP
E00E
E00E
E00E
E00E
E00E
E00E
E00E
E00E
E00E
E00E
E00E
E00E
E00E
E00E
E00E
E00E
E00E
E00E
FFFE
FFFE
FFFE
0380
0380
0380
0380
0380
ENDCHAR
STARTCHAR 0410
ENCODING 1040
SWIDTH 666 0
DWIDTH 20 0
BBX 18 21 1 0
BITMAP
01E000
03F000
03F000
03F000
077800
073800
073800
0E3C00
0E1C00
0E1C00
1C1E00
1C0E00
1FFE00
3FFF00
3FFF00
380700
700780
700380
F00380
F003C0
E003C0
ENDCHAR
STARTCHAR 0411
ENCODING 1041
SWIDTH 633 0
DWIDTH 19 0
BBX 15 21 3 0
BITMAP
FFF8
FFF8
FFF8
E000
E000
E000
E000
E000
FFF0
FFF8
FFFC
E03C
E01E
E01E
E01E
E01E
E01E
E03C
FFFC
FFF8
FFF0
ENDCHAR
STARTCHAR 0412
ENCODING 1042
SWIDTH 666 0
DWIDTH 20 0
BBX 15 21 3 0
BITMAP
FFE0
FFF8
FFFC
E03C
E01C
E01C
E01C
E01C
E03C
FFF8
FFF0
FFFC
E01E
E01E
E00E
E00E
E01E
E01E
FFFC
FFF8
FFF0
ENDCHAR
STARTCHAR 0413
ENCODING 1043
SWIDTH 500 0
DWIDTH 15 0
BBX 11 21 3 0
BITMAP
FFE0
FFE0
FFE0
E000
E000
E000
E000
E000
E000
E000
E000
E000
E000
E000
E000
E000
E000
E000
E000
E000
E000
ENDCHAR
STARTCHAR 0414
ENCODING 1044
SWIDTH 766 0
DWIDTH 23 0
BBX 22 26 0 -5
BITMAP
07FFE0
07FFE0
07FFE0
0780E0
0780E0
0780E0
0780E0
0780E0
0700E0
0700E0
0700E0
0700E0
0700E0
0700E0
0F00E0
0F00E0
0E00E0
1E00E0
FFFFFC
FFFFFC
FFFFFC
F0001C
F0001C
F0001C
F0001C
F0001C
ENDCHAR
STARTCHAR 0415
ENCODING 1045
SWIDTH 600 0
DWIDTH 18 0
BBX 13 21 3 0
BITMAP
FFF8
FFF8
FFF8
E000
E000
E000
E000
E000
E000
FFF0
FFF0
FFF0
E000
E000
E000
E000
E000
E000
FFF8
FFF8
FFF8
ENDCHAR
STARTCHAR 0416
ENCODING 1046
SWIDTH 1000 0
DWIDTH 30 0
BBX 27 21 1 0
BITMAP
700F01E0
780F03E0
7C0F03E0
1C0F0780
1E0F0700
0E0F0F00
0F0F0E00
070F0E00
078F1E00
03FFFC00
01FFF800
03FFFC00
078F1E00
0F0F0E00
0F0F0F00
1E0F0700
1E0F0780
3C0F0380
FC0F03E0
F80F01E0
F00F00E0
ENDCHAR
STARTCHAR 0417
ENCODING 1047
SWIDTH 600 0
DWIDTH 18 0
BBX 15 21 1 0
BITMAP
0FE0
3FF8
7FFC
783E
201E
001E
001E
001E
003C
07F8
07E0
07FC
003E
001E
000E
000E
601E
F83E
7FFC
3FF8
0FE0
ENDCHAR
STARTCHAR 0418
ENCODING 1048
SWIDTH 700 0
DWIDTH 21 0
BBX 16 21 3 0
BITMAP
E00F
E00F
E01F
E01F
E03F
E077
E077
E0E7
E1E7
E1C7
E387
E787
E707
EF07
EE07
FC07
FC07
F807
F007
F007
E007
ENDCHAR
STARTCHAR 0419
ENCODING 1049
SWIDTH 700 0
DWIDTH 21 0
BBX 16 28 3 0
BITMAP
0820
1C38
1C70
0FE0
07C0
0000
0000
E00F
E00F
E01F
E01F
E03F
E077
E077
E0E7
E1E7
E1C7
E387
E787
E707
EF07
EE07
FC07
FC07
F807
F007
F007
E007
ENDCHAR
STARTCHAR 041A
ENCODING 1050
SWIDTH 666 0
DWIDTH 20 0
BBX 16 21 3 0
BITMAP
E00E
E01E
E03E
E038
E078
E070
E0E0
E1E0
E1C0
FFC0
FF80
FFC0
E1E0
E1E0
E0F0
E070
E078
E03C
E03F
E01F
E00F
ENDCHAR
STARTCHAR 041B
ENCODING 1051
SWIDTH 700 0
DWIDTH 21 0
BBX 19 21 0 0
BITMAP
07FFE0
07FFE0
07FFE0
0701E0
0701E0
0701E0
0701E0
0701E0
0701E0
0701E0
0701E0
0701E0
0701E0
0701E0
0F01E0
0F01E0
0E01E0
1E01E0
FC01E0
FC01E0
F001E0
ENDCHAR
STARTCHAR 041C
ENCODING 1052
SWIDTH 800 0
DWIDTH 24 0
BBX 19 21 3 0
BITMAP
F001E0
F003E0
F803E0
F807E0
FC07E0
FC0EE0
EE0EE0
EE1CE0
E71CE0
E738E0
E3B8E0
E3F0E0
E1F0E0
E1E0E0
E0E0E0
E0C0E0
E080E0
E000E0
E000E0
E000E0
E000E0
ENDCHAR
STARTCHAR 041D
ENCODING 1053
SWIDTH 700 0
DWIDTH 21 0
BBX 16 21 3 0
BITMAP
E00F
E00F
E00F
E00F
E00F
E00F
E00F
E00F
E00F
FFFF
FFFF
FFFF
E00F
E00F
E00F
E00F
E00F
E00F
E00F
E00F
E00F
ENDCHAR
STARTCHAR 041E
ENCODING 1054
SWIDTH 700 0
DWIDTH 21 0
BBX 18 21 2 0
BITMAP
07F000
1FFC00
3FFE00
7C1F00
780F00
F00780
F00380
E00380
E003C0
E003C0
E003C0
E003C0
E003C0
E00380
F00380
F00780
780700
7C1F00
3FFE00
1FFC00
07F000
ENDCHAR
STARTCHAR 041F
ENCODING 1055
SWIDTH 700 0
DWIDTH 21 0
BBX 15 21 3 0
BITMAP
FFFE
FFFE
FFFE
E00E
E00E
E00E
E00E
E00E
E00E
E00E
E00E
E00E
E00E
E00E
E00E
E00E
E00E
E00E
E00E
E00E
E00E
ENDCHAR
STARTCHAR 0420
ENCODING 1056
SWIDTH 633 0
DWIDTH 19 0
BBX 15 21 3 0
BITMAP
FFE0
FFF8
FFFC
E03C
E01C
E01E
E01E
E01E
E01C
E03C
FFFC
FFF8
FFE0
E000
E000
E000
E000
E000
E000
E000
E000
ENDCHAR
STARTCHAR 0421
ENCODING 1057
SWIDTH 633 0
DWIDTH 19 0
BBX 16 21 2 0
BITMAP
07F0
1FF8
3FFE
7C1E
780F
F004
F000
E000
E000
E000
E000
E000
E000
E000
F000
F006
780F
7C1E
3FFC
1FF8
07E0
ENDCHAR
STARTCHAR 0422
ENCODING 1058
SWIDTH 566 0
DWIDTH 17 0
BBX 16 21 1 0
BITMAP
FFFF
FFFF
FFFF
0380
0380
0380
0380
0380
0380
0380
0380
0380
0380
0380
0380
0380
0380
0380
0380
0380
0380
ENDCHAR
STARTCHAR 0423
ENCODING 1059
SWIDTH 600 0
DWIDTH 18 0
BBX 17 21 1 0
BITMAP
E00780
F00700
700F00
780E00
380E00
3C1E00
1C1C00
1E3C00
0E3800
0E3800
0F7800
077000
07F000
03E000
03E000
01E000
01C000
03C000
1F8000
1F8000
1F0000
ENDCHAR
STARTCHAR 0424
ENCODING 1060
SWIDTH 866 0
DWIDTH 26 0
BBX 24 23 1 -1
BITMAP
003C00
003C00
003C00
03FFC0
0FFFF0
1FFFF8
3E3C7C
783C1E
703C0E
F03C0F
F03C0F
F03C0F
F03C0F
703C0F
703C0E
783C1E
3E3C7C
1FFFF8
0FFFF0
03FFC0
003C00
003C00
003C00
ENDCHAR
STARTCHAR 0425
ENCODING 1061
SWIDTH 633 0
DWIDTH 19 0
BBX 18 21 1 0
BITMAP
F00780
780700
780F00
3C1E00
1E1C00
1E3C00
0F7800
077000
07F000
03E000
03E000
03E000
07F000
0F7800
0E3800
1E3C00
3C1E00
381E00
780F00
700780
F007C0
ENDCHAR
STARTCHAR 0426
ENCODING 1062
SWIDTH 733 0
DWIDTH 22 0
BBX 19 26 3 -5
BITMAP
E00E00
E00E00
E00E00
E00E00
E00E00
E00E00
E00E00
E00E00
E00E00
E00E00
E00E00
E00E00
E00E00
E00E00
E00E00
E00E00
E00E00
E00E00
FFFFE0
FFFFE0
FFFFE0
0001E0
0001E0
0001E0
0001E0
0001E0
ENDCHAR
STARTCHAR 0427
ENCODING 1063
SWIDTH 666 0
DWIDTH 20 0
BBX 15 21 2 0
BITMAP
E00E
E00E
E00E
E00E
E00E
E00E
E00E
E00E
E00E
F00E
F81E
7FFE
3FFE
0FEE
000E
000E
000E
000E
000E
000E
000E
ENDCHAR
STARTCHAR 0428
ENCODING 1064
SWIDTH 1000 0
DWIDTH 30 0
BBX 24 21 3 0
BITMAP
E03C07
E03C07
E03C07
E03C07
E03C07
E03C07
E03C07
E03C07
E03C07
E03C07
E03C07
E03C07
E03C07
E03C07
E03C07
E03C07
E03C07
E03C07
FFFFFF
FFFFFF
FFFFFF
ENDCHAR
STARTCHAR 0429
ENCODING 1065
SWIDTH 1033 0
DWIDTH 31 0
BBX 27 26 3 -5
BITMAP
E03C0700
E03C0700
E03C0700
E03C0700
E03C0700
E03C0700
E03C0700
E03C0700
E03C0700
E03C0700
E03C0700
E03C0700
E03C0700
E03C0700
E03C0700
E03C0700
E03C0700
E03C0700
FFFFFFE0
FFFFFFE0
FFFFFFE0
000000E0
000000E0
000000E0
000000E0
000000E0
ENDCHAR
STARTCHAR 042A
ENCODING 1066
SWIDTH 733 0
DWIDTH 22 0
BBX 20 21 1 0
BITMAP
FF0000
FF0000
FF0000
070000
070000
070000
070000
070000
07FF80
07FFE0
07FFE0
0700F0
070070
070070
070070
070070
070070
0700F0
07FFE0
07FFE0
07FF80
ENDCHAR
STARTCHAR 042B
ENCODING 1067
SWIDTH 900 0
DWIDTH 27 0
BBX 21 21 3 0
BITMAP
E00038
E00038
E00038
E00038
E00038
E00038
E00038
E00038
FFF038
FFF838
FFFC38
E03C38
E01E38
E01E38
E01E38
E01E38
E01E38
E03C38
FFFC38
FFF838
FFF038
ENDCHAR
STARTCHAR 042C
ENCODING 1068
SWIDTH 633 0
DWIDTH 19 0
BBX 15 21 3 0
BITMAP
E000
E000
E000
E000
E000
E000
E000
E000
FFF0
FFF8
FFFC
E01E
E01E
E00E
E00E
E00E
E01E
E01E
FFFC
FFF8
FFF0
ENDCHAR
STARTCHAR 042D
ENCODING 1069
SWIDTH 633 0
DWIDTH 19 0
BBX 17 21 1 0
BITMAP
07E000
1FF800
3FFC00
783E00
F00F00
200F00
000700
000780
000780
07FF80
07FF80
07FF80
000780
000780
000700
600F00
F00F00
783E00
7FFC00
1FF800
0FE000
ENDCHAR
STARTCHAR 042E
ENCODING 1070
SWIDTH 966 0
DWIDTH 29 0
BBX 25 21 3 0
BITMAP
E007E000
E01FF800
E03FFC00
E07C3E00
E0F00F00
E0F00F00
E0E00700
E1E00780
E1E00780
FFE00780
FFE00780
FFE00780
E1E00780
E1E00780
E0E00700
E0F00F00
E0F00F00
E07C3E00
E03FFC00
E01FF800
E007E000
ENDCHAR
STARTCHAR 042F
ENCODING 1071
SWIDTH 666 0
DWIDTH 20 0
BBX 16 21 1 0
BITMAP
0FFF
1FFF
3FFF
7C07
7807
7807
7807
7807
7807
3C07
3FFF
1FFF
03FF
0787
0F07
0E07
1E07
3C07
FC07
F807
F007
ENDCHAR
STARTCHAR 0430
ENCODING 1072
SWIDTH 533 0
DWIDTH 16 0
BBX 15 15 1 0
BITMAP
0FC0
3FF0
7FF0
3078
0038
0038
1FF8
7FF8
7038
F038
F038
F078
7FBE
7FBE
1F1E
ENDCHAR
STARTCHAR 0431
ENCODING 1073
SWIDTH 566 0
DWIDTH 17 0
BBX 15 22 1 0
BITMAP
00FC
07FC
1FFC
3F00
3C00
7800
7000
73E0
77F8
7FF8
F83C
F01C
F01E
F01E
F01E
701E
701C
701C
383C
3FF8
1FF0
07C0
ENDCHAR
STARTCHAR 0432
ENCODING 1074
SWIDTH 566 0
DWIDTH 17 0
BBX 13 15 2 0
BITMAP
FFE0
FFF0
FFF8
F078
F078
F070
FFE0
FFF0
F038
F038
F038
F038
FFF8
FFF0
FFE0
ENDCHAR
STARTCHAR 0433
ENCODING 1075
SWIDTH 433 0
DWIDTH 13 0
BBX 11 15 2 0
BITMAP
FFE0
FFE0
FFE0
F000
F000
F000
F000
F000
F000
F000
F000
F000
F000
F000
F000
ENDCHAR
STARTCHAR 0434
ENCODING 1076
SWIDTH 633 0
DWIDTH 19 0
BBX 18 19 0 -4
BITMAP
0FFE00
0FFE00
0FFE00
0E0E00
0E0E00
0E0E00
0E0E00
0E0E00
0E0E00
1E0E00
1C0E00
3C0E00
FFFFC0
FFFFC0
FFFFC0
E001C0
E001C0
E001C0
E001C0
ENDCHAR
STARTCHAR 0435
ENCODING 1077
SWIDTH 566 0
DWIDTH 17 0
BBX 14 15 1 0
BITMAP
07C0
1FF0
3FF8
783C
701C
F01C
FFFC
FFFC
F000
F000
7010
7838
3FFC
1FF0
07E0
ENDCHAR
STARTCHAR 0436
ENCODING 1078
SWIDTH 800 0
DWIDTH 24 0
BBX 22 15 1 0
BITMAP
F0383C
F8387C
F8387C
3C38F0
1C38E0
1E39E0
0FFFC0
07FF80
0FFFE0
1E39E0
1C38F0
3C38F0
F8387C
F8383C
F0383C
ENDCHAR
STARTCHAR 0437
ENCODING 1079
SWIDTH 500 0
DWIDTH 15 0
BBX 13 15 1 0
BITMAP
1FC0
7FF0
FFF0
6070
0078
0070
0FE0
0FE0
0070
0078
4078
6078
FFF0
7FE0
1FC0
ENDCHAR
STARTCHAR 0438
ENCODING 1080
SWIDTH 600 0
DWIDTH 18 0
BBX 14 15 2 0
BITMAP
F03C
F03C
F07C
F0FC
F1DC
F1DC
F3BC
F7BC
E73C
EE3C
FE3C
FC3C
F83C
F03C
F03C
ENDCHAR
STARTCHAR 0439
ENCODING 1081
SWIDTH 600 0
DWIDTH 18 0
BBX 14 23 2 0
BITMAP
1860
3870
1860
1FE0
07C0
0000
0000
0000
F03C
F03C
F07C
F0FC
F1DC
F1DC
F3BC
F7BC
E73C
EE3C
FE3C
FC3C
F83C
F03C
F03C
ENDCHAR
STARTCHAR 043A
ENCODING 1082
SWIDTH 566 0
DWIDTH 17 0
BBX 14 15 2 0
BITMAP
F03C
F07C
F07C
F0E0
F1E0
F1C0
FF80
FF00
FFC0
F1E0
F1E0
F0F0
F07C
F07C
F03C
ENDCHAR
STARTCHAR 043B
ENCODING 1083
SWIDTH 600 0
DWIDTH 18 0
BBX 15 15 0 0
BITMAP
0FFE
0FFE
0FFE
0E0E
0E0E
0E0E
0E0E
0E0E
0E0E
1E0E
1E0E
1C0E
FC0E
F80E
F00E
ENDCHAR
STARTCHAR 043C
ENCODING 1084
SWIDTH 700 0
DWIDTH 21 0
BBX 17 15 2 0
BITMAP
F80780
F80F80
FC0F80
FE1F80
FE3B80
F73B80
F77380
F3F380
F3E380
F1C380
F0C380
F08380
F00380
F00380
F00380
ENDCHAR
STARTCHAR 043D
ENCODING 1085
SWIDTH 600 0
DWIDTH 18 0
BBX 14 15 2 0
BITMAP
F03C
F03C
F03C
F03C
F03C
F03C
FFFC
FFFC
FFFC
F03C
F03C
F03C
F03C
F03C
F03C
ENDCHAR
STARTCHAR 043E
ENCODING 1086
SWIDTH 566 0
DWIDTH 17 0
BBX 15 15 1 0
BITMAP
07C0
1FF0
3FF8
783C
701C
F01C
F01E
F01E
F01E
F01C
701C
783C
3FF8
1FF0
07C0
ENDCHAR
STARTCHAR 043F
ENCODING 1087
SWIDTH 566 0
DWIDTH 17 0
BBX 13 15 2 0
BITMAP
FFF8
FFF8
FFF8
F038
F038
F038
F038
F038
F038
F038
F038
F038
F038
F038
F038
ENDCHAR
STARTCHAR 0440
ENCODING 1088
SWIDTH 600 0
DWIDTH 18 0
BBX 14 21 2 -6
BITMAP
F3E0
F7F0
FFF8
F87C
F03C
F01C
F01C
F01C
F01C
F01C
F03C
F87C
FFF8
F7F0
F3E0
F000
F000
F000
F000
F000
F000
ENDCHAR
STARTCHAR 0441
ENCODING 1089
SWIDTH 500 0
DWIDTH 15 0
BBX 14 15 1 0
BITMAP
0FC0
1FF0
3FF8
7878
7038
F000
F000
F000
F000
F020
7038
787C
3FF8
1FF0
0FC0
ENDCHAR
STARTCHAR 0442
ENCODING 1090
SWIDTH 466 0
DWIDTH 14 0
BBX 13 15 1 0
BITMAP
FFF8
FFF8
FFF8
0700
0700
0700
0700
0700
0700
0700
0700
0700
0700
0700
0700
ENDCHAR
STARTCHAR 0443
ENCODING 1091
SWIDTH 500 0
DWIDTH 15 0
BBX 15 21 0 -6
BITMAP
F00E
701E
781C
381C
3838
3C38
1C38
1C70
1E70
0EF0
0EE0
07E0
07E0
07C0
03C0
0380
0380
0780
3F00
3F00
3E00
ENDCHAR
STARTCHAR 0444
ENCODING 1092
SWIDTH 766 0
DWIDTH 23 0
BBX 21 27 1 -6
BITMAP
007000
007000
007000
007000
007000
007000
1E73C0
3F77E0
7FFFF0
78F8F0
707078
F07078
F07078
F07078
F07078
F07078
707078
78F8F0
7FFFF0
3F77E0
1E73C0
007000
007000
007000
007000
007000
007000
ENDCHAR
STARTCHAR 0445
ENCODING 1093
SWIDTH 533 0
DWIDTH 16 0
BBX 14 15 1 0
BITMAP
F03C
7838
3870
3CF0
1EE0
0FC0
0FC0
0780
0FC0
0FC0
1CE0
38F0
7878
7038
E03C
ENDCHAR
STARTCHAR 0446
ENCODING 1094
SWIDTH 600 0
DWIDTH 18 0
BBX 16 19 2 -4
BITMAP
F038
F038
F038
F038
F038
F038
F038
F038
F038
F038
F038
F038
FFFF
FFFF
FFFF
0007
0007
0007
0007
ENDCHAR
STARTCHAR 0447
ENCODING 1095
SWIDTH 566 0
DWIDTH 17 0
BBX 13 15 1 0
BITMAP
F038
F038
F038
F038
F038
F038
7038
7878
7FF8
3FB8
1F38
0038
0038
0038
0038
ENDCHAR
STARTCHAR 0448
ENCODING 1096
SWIDTH 833 0
DWIDTH 25 0
BBX 20 15 2 0
BITMAP
F07070
F07070
F07070
F07070
F07070
F07070
F07070
F07070
F07070
F07070
F07070
F07070
FFFFF0
FFFFF0
FFFFF0
ENDCHAR
STARTCHAR 0449
ENCODING 1097
SWIDTH 833 0
DWIDTH 25 0
BBX 23 19 2 -4
BITMAP
F07070
F07070
F07070
F07070
F07070
F07070
F07070
F07070
F07070
F07070
F07070
F07070
FFFFFE
FFFFFE
FFFFFE
00000E
00000E
00000E
00000E
ENDCHAR
STARTCHAR 044A
ENCODING 1098
SWIDTH 600 0
DWIDTH 18 0
BBX 16 15 1 0
BITMAP
FE00
FE00
FE00
0E00
0FFC
0FFE
0FFF
0E0F
0E07
0E07
0E07
0E0F
0FFF
0FFE
0FFC
ENDCHAR
STARTCHAR 044B
ENCODING 1099
SWIDTH 766 0
DWIDTH 23 0
BBX 18 15 2 0
BITMAP
F001C0
F001C0
F001C0
F001C0
FFC1C0
FFE1C0
FFF1C0
F079C0
F079C0
F079C0
F079C0
F079C0
FFF1C0
FFE1C0
FFC1C0
ENDCHAR
STARTCHAR 044C
ENCODING 1100
SWIDTH 533 0
DWIDTH 16 0
BBX 13 15 2 0
BITMAP
F000
F000
F000
F000
FFC0
FFF0
FFF0
F078
F038
F038
F038
F078
FFF0
FFF0
FFC0
ENDCHAR
STARTCHAR 044D
ENCODING 1101
SWIDTH 533 0
DWIDTH 16 0
BBX 13 15 1 0
BITMAP
1F80
7FE0
FFF0
60F8
0038
0038
0FF8
0FF8
0038
0038
2078
E0F8
FFF0
7FE0
1F80
ENDCHAR
STARTCHAR 044E
ENCODING 1102
SWIDTH 800 0
DWIDTH 24 0
BBX 21 15 2 0
BITMAP
F01F80
F07FC0
F0FFE0
F0F0F0
F1E070
F1C078
FFC078
FFC078
FFC078
F1C078
F1E070
F1F0F0
F0FFE0
F07FC0
F01F80
ENDCHAR
STARTCHAR 044F
ENCODING 1103
SWIDTH 566 0
DWIDTH 17 0
BBX 13 15 1 0
BITMAP
1FF8
3FF8
7FF8
7838
7038
7038
7038
7FF8
3FF8
0FF8
1C38
3C38
F838
F838
F038
ENDCHAR
STARTCHAR 0450
ENCODING 1104
SWIDTH 566 0
DWIDTH 17 0
BBX 14 23 1 0
BITMAP
0600
0E00
0700
0700
0380
0100
0000
0000
07C0
1FF0
3FF8
783C
701C
F01C
FFFC
FFFC
F000
F000
7010
7838
3FFC
1FF0
07E0
ENDCHAR
STARTCHAR 0451
ENCODING 1105
SWIDTH 566 0
DWIDTH 17 0
BBX 14 22 1 0
BITMAP
1C70
1C70
1C70
1C70
0000
0000
0000
07C0
1FF0
3FF8
783C
701C
F01C
FFFC
FFFC
F000
F000
7010
7838
3FFC
1FF0
07E0
ENDCHAR
STARTCHAR 0452
ENCODING 1106
SWIDTH 566 0
DWIDTH 17 0
BBX 15 28 0 -6
BITMAP
3C00
3C00
FFC0
FFC0
3C00
3C00
3C00
3CF8
3DFC
3FFE
3E1E
3C0E
3C0E
3C0E
3C0E
3C0E
3C0E
3C0E
3C0E
3C0E
3C0E
3C0E
000E
000E
000E
003E
003E
003C
ENDCHAR
STARTCHAR 0453
ENCODING 1107
SWIDTH 433 0
DWIDTH 13 0
BBX 11 23 2 0
BITMAP
0300
0780
0700
0E00
0E00
0400
0000
0000
FFE0
FFE0
FFE0
F000
F000
F000
F000
F000
F000
F000
F000
F000
F000
F000
F000
ENDCHAR
STARTCHAR 0454
ENCODING 1108
SWIDTH 533 0
DWIDTH 16 0
BBX 14 15 1 0
BITMAP
0FC0
1FF0
3FF8
783C
7018
F000
FFC0
FFC0
F000
F020
7018
783C
3FF8
1FF0
0FC0
ENDCHAR
STARTCHAR 0455
ENCODING 1109
SWIDTH 500 0
DWIDTH 15 0
BBX 12 15 1 0
BITMAP
1F80
3FE0
7FF0
7060
7000
7800
7FC0
3FE0
1FF0
0070
4070
7070
FFF0
7FE0
1F80
ENDCHAR
STARTCHAR 0456
ENCODING 1110
SWIDTH 266 0
DWIDTH 8 0
BBX 4 22 2 0
BITMAP
E0
F0
F0
E0
00
00
00
F0
F0
F0
F0
F0
F0
F0
F0
F0
F0
F0
F0
F0
F0
F0
ENDCHAR
STARTCHAR 0457
ENCODING 1111
SWIDTH 266 0
DWIDTH 8 0
BBX 10 22 -1 0
BITMAP
6180
F3C0
F3C0
6180
0000
0000
0000
1E00
1E00
1E00
1E00
1E00
1E00
1E00
1E00
1E00
1E00
1E00
1E00
1E00
1E00
1E00
ENDCHAR
STARTCHAR 0458
ENCODING 1112
SWIDTH 266 0
DWIDTH 8 0
BBX 6 28 0 -6
BITMAP
38
3C
3C
38
00
00
00
3C
3C
3C
3C
3C
3C
3C
3C
3C
3C
3C
3C
3C
3C
3C
3C
3C
3C
F8
F8
F0
ENDCHAR
STARTCHAR 0459
ENCODING 1113
SWIDTH 833 0
DWIDTH 25 0
BBX 24 15 0 0
BITMAP
0FFE00
0FFE00
0FFE00
0E1E00
0E1FF8
0E1FFE
0E1FFE
0E1E0F
0E1E0F
1E1E07
1E1E0F
1C1E0F
FC1FFE
F81FFE
F01FF8
ENDCHAR
STARTCHAR 045A
ENCODING 1114
SWIDTH 833 0
DWIDTH 25 0
BBX 22 15 2 0
BITMAP
F03800
F03800
F03800
F03800
F03FF0
F03FF8
FFFFFC
FFF83C
FFF81C
F0381C
F0381C
F0383C
F03FFC
F03FF8
F03FF0
ENDCHAR
STARTCHAR 045B
ENCODING 1115
SWIDTH 566 0
DWIDTH 17 0
BBX 15 22 0 0
BITMAP
3C00
3C00
3C00
FFC0
FFC0
3C00
3C00
3CF8
3DFC
3FFE
3E1E
3C0E
3C0E
3C0E
3C0E
3C0E
3C0E
3C0E
3C0E
3C0E
3C0E
3C0E
ENDCHAR
STARTCHAR 045C
ENCODING 1116
SWIDTH 566 0
DWIDTH 17 0
BBX 14 23 2 0
BITMAP
01C0
01E0
03C0
0380
0700
0200
0000
0000
F03C
F07C
F07C
F0E0
F1E0
F1C0
FF80
FF00
FFC0
F1E0
F1E0
F0F0
F07C
F07C
F03C
ENDCHAR
STARTCHAR 045D
ENCODING 1117
SWIDTH 600 0
DWIDTH 18 0
BBX 14 23 2 0
BITMAP
0C00
1E00
0E00
0700
0300
0380
0000
0000
F03C
F03C
F07C
F0FC
F1DC
F1DC
F3BC
F7BC
E73C
EE3C
FE3C
FC3C
F83C
F03C
F03C
ENDCHAR
STARTCHAR 045E
ENCODING 1118
SWIDTH 500 0
DWIDTH 15 0
BBX 15 29 0 -6
BITMAP
0C30
1C38
1C70
0FF0
07C0
0000
0000
0000
F00E
701E
781C
381C
3838
3C38
1C38
1C70
1E70
0EF0
0EE0
07E0
07E0
07C0
03C0
0380
0380
0780
3F00
3F00
3E00
ENDCHAR
STARTCHAR 045F
ENCODING 1119
SWIDTH 566 0
DWIDTH 17 0
BBX 13 19 2 -4
BITMAP
F038
F038
F038
F038
F038
F038
F038
F038
F038
F038
F038
F038
FFF8
FFF8
FFF8
0700
0700
0700
0700
ENDCHAR
STARTCHAR 0472
ENCODING 1138
SWIDTH 700 0
DWIDTH 21 0
BBX 18 21 2 0
BITMAP
07F000
1FFC00
3FFE00
7C1F00
780700
F00780
E00380
E00380
E003C0
FFFFC0
FFFFC0
FFFFC0
E003C0
E00380
E00380
F00780
780700
7C1F00
3FFE00
1FFC00
07F000
ENDCHAR
STARTCHAR 0473
ENCODING 1139
SWIDTH 566 0
DWIDTH 17 0
BBX 15 15 1 0
BITMAP
07C0
1FF0
3FF8
783C
701C
F01C
FFFE
FFFE
F01E
F01C
701C
783C
3FF8
1FF0
07C0
ENDCHAR
STARTCHAR 0490
ENCODING 1168
SWIDTH 500 0
DWIDTH 15 0
BBX 11 26 3 0
BITMAP
00E0
00E0
00E0
00E0
00E0
FFE0
FFE0
FFE0
E000
E000
E000
E000
E000
E000
E000
E000
E000
E000
E000
E000
E000
E000
E000
E000
E000
E000
ENDCHAR
STARTCHAR 0491
ENCODING 1169
SWIDTH 433 0
DWIDTH 13 0
BBX 11 19 2 0
BITMAP
00E0
00E0
00E0
00E0
FFE0
FFE0
FFE0
F000
F000
F000
F000
F000
F000
F000
F000
F000
F000
F000
F000
ENDCHAR
STARTCHAR 0492
ENCODING 1170
SWIDTH 533 0
DWIDTH 16 0
BBX 14 21 1 0
BITMAP
3FFC
3FFC
3FFC
3C00
3C00
3C00
3C00
3C00
3C00
FFE0
FFE0
FFE0
3C00
3C00
3C00
3C00
3C00
3C00
3C00
3C00
3C00
ENDCHAR
STARTCHAR 0493
ENCODING 1171
SWIDTH 466 0
DWIDTH 14 0
BBX 12 15 1 0
BITMAP
3FF0
3FF0
3FF0
3800
3800
3800
FFC0
FFC0
FFC0
3800
3800
3800
3800
3800
3800
ENDCHAR
STARTCHAR 0494
ENCODING 1172
SWIDTH 633 0
DWIDTH 19 0
BBX 15 26 3 -5
BITMAP
FFE0
FFE0
FFE0
E000
E000
E000
E000
E000
E000
EFE0
FFF8
FFFC
E07C
E01C
E01E
E01E
E01E
E01E
E01E
E01E
E01E
001C
003C
01F8
01F8
01E0
ENDCHAR
STARTCHAR 0495
ENCODING 1173
SWIDTH 566 0
DWIDTH 17 0
BBX 13 21 2 -6
BITMAP
FFE0
FFE0
FFE0
F000
F000
F000
F3E0
FFF0
FFF8
F078
F038
F038
F038
F038
F038
0038
0038
0078
03F8
03F0
03E0
ENDCHAR
STARTCHAR 0496
ENCODING 1174
SWIDTH 1000 0
DWIDTH 30 0
BBX 29 26 1 -5
BITMAP
700F01E0
780F03E0
7C0F03E0
1C0F0780
1E0F0700
0E0F0F00
0F0F0E00
070F0E00
078F1E00
03FFFC00
01FFF800
03FFFC00
078F1E00
0F0F0E00
0F0F0F00
1E0F0700
1E0F0780
3C0F0380
FC0F03F8
F80F01F8
F00F00F8
00000038
00000038
00000038
00000038
00000038
ENDCHAR
STARTCHAR 0497
ENCODING 1175
SWIDTH 833 0
DWIDTH 25 0
BBX 23 19 1 -4
BITMAP
F0383C
F8387C
F8387C
3C38F0
1C38E0
1E39E0
0FFFC0
07FF80
0FFFE0
1E39E0
1C38F0
3C38F0
F8387E
F8383E
F0383E
00000E
00000E
00000E
00000E
ENDCHAR
STARTCHAR 0498
ENCODING 1176
SWIDTH 600 0
DWIDTH 18 0
BBX 15 25 1 -4
BITMAP
0FE0
3FF8
7FFC
783E
201E
001E
001E
001E
003C
07F8
07E0
07FC
003E
001E
000E
000E
601E
F83E
7FFC
3FF8
0FE0
0380
0380
0380
0380
ENDCHAR
STARTCHAR 0499
ENCODING 1177
SWIDTH 500 0
DWIDTH 15 0
BBX 13 19 1 -4
BITMAP
1FC0
7FF0
FFF0
6070
0078
0070
0FE0
0FE0
0070
0078
4078
6078
FFF0
7FF0
1FC0
0700
0700
0700
0700
ENDCHAR
STARTCHAR 049A
ENCODING 1178
SWIDTH 666 0
DWIDTH 20 0
BBX 17 26 3 -5
BITMAP
E00E00
E01E00
E03E00
E03800
E07800
E07000
E0E000
E1E000
E1C000
FFC000
FF8000
FFC000
E1E000
E1E000
E0F000
E07000
E07800
E03C00
E03F80
E01F80
E00F80
000380
000380
000380
000380
000380
ENDCHAR
STARTCHAR 049B
ENCODING 1179
SWIDTH 566 0
DWIDTH 17 0
BBX 15 19 2 -4
BITMAP
F03C
F07C
F07C
F0E0
F1E0
F1C0
FF80
FF00
FFC0
F1E0
F1E0
F0F0
F07E
F07E
F03E
000E
000E
000E
000E
ENDCHAR
STARTCHAR 049C
ENCODING 1180
SWIDTH 733 0
DWIDTH 22 0
BBX 17 21 3 0
BITMAP
E00780
E00F80
E00F80
E01E00
E01C00
EE3C00
EE3800
EE7800
EE7000
FFE000
FFC000
FFF000
EE7800
EE7800
EE3C00
EE3C00
E01E00
E01E00
E00F80
E00780
E00380
ENDCHAR
STARTCHAR 049D
ENCODING 1181
SWIDTH 633 0
DWIDTH 19 0
BBX 15 15 2 0
BITMAP
F00E
F01E
F63E
F638
F670
F6F0
FFE0
FFC0
FFF0
F6F0
F678
F638
F03E
F01E
F00E
ENDCHAR
STARTCHAR 04A0
ENCODING 1184
SWIDTH 766 0
DWIDTH 23 0
BBX 21 21 1 0
BITMAP
FF0070
FF00F0
FF01F0
0701C0
0703C0
070380
070780
070700
070E00
07FE00
07FC00
07FE00
070F00
070700
070780
0703C0
0703C0
0701E0
0700F8
0700F8
070078
ENDCHAR
STARTCHAR 04A1
ENCODING 1185
SWIDTH 633 0
DWIDTH 19 0
BBX 17 15 1 0
BITMAP
FE0780
FE0F80
FE0F80
0E1E00
0E3C00
0E3800
0FF800
0FF000
0FF800
0E3C00
0E3C00
0E1E00
0E0F80
0E0F80
0E0780
ENDCHAR
STARTCHAR 04A2
ENCODING 1186
SWIDTH 766 0
DWIDTH 23 0
BBX 19 26 3 -5
BITMAP
E00F00
E00F00
E00F00
E00F00
E00F00
E00F00
E00F00
E00F00
E00F00
FFFF00
FFFF00
FFFF00
E00F00
E00F00
E00F00
E00F00
E00F00
E00F00
E00FE0
E00FE0
E00FE0
0000E0
0000E0
0000E0
0000E0
0000E0
ENDCHAR
STARTCHAR 04A3
ENCODING 1187
SWIDTH 633 0
DWIDTH 19 0
BBX 16 19 2 -4
BITMAP
F03C
F03C
F03C
F03C
F03C
F03C
FFFC
FFFC
FFFC
F03C
F03C
F03C
F03F
F03F
F03F
0007
0007
0007
0007
ENDCHAR
STARTCHAR 04A4
ENCODING 1188
SWIDTH 900 0
DWIDTH 27 0
BBX 24 21 3 0
BITMAP
E00FFF
E00FFF
E00FFF
E00E00
E00E00
E00E00
E00E00
E00E00
E00E00
FFFE00
FFFE00
FFFE00
E00E00
E00E00
E00E00
E00E00
E00E00
E00E00
E00E00
E00E00
E00E00
ENDCHAR
STARTCHAR 04A5
ENCODING 1189
SWIDTH 766 0
DWIDTH 23 0
BBX 20 15 2 0
BITMAP
F03FF0
F03FF0
F03FF0
F03800
F03800
F03800
FFF800
FFF800
FFF800
F03800
F03800
F03800
F03800
F03800
F03800
ENDCHAR
STARTCHAR 04AA
ENCODING 1194
SWIDTH 633 0
DWIDTH 19 0
BBX 16 25 2 -4
BITMAP
07F0
1FF8
3FFE
7C1E
780F
F004
F000
E000
E000
E000
E000
E000
E000
E000
F000
F006
780F
7C1E
3FFC
1FF8
07F0
01C0
01C0
01C0
01C0
ENDCHAR
STARTCHAR 04AB
ENCODING 1195
SWIDTH 500 0
DWIDTH 15 0
BBX 14 19 1 -4
BITMAP
0FC0
1FF0
3FF8
7878
7038
F000
F000
F000
F000
F020
7038
787C
3FF8
1FF0
0FC0
0380
0380
0380
0380
ENDCHAR
STARTCHAR 04AE
ENCODING 1198
SWIDTH 633 0
DWIDTH 19 0
BBX 18 21 0 0
BITMAP
F003C0
780380
3C0780
3C0F00
1E0F00
0E1E00
0F1C00
073C00
07B800
03F800
03F000
01E000
00E000
00E000
00E000
00E000
00E000
00E000
00E000
00E000
00E000
ENDCHAR
STARTCHAR 04AF
ENCODING 1199
SWIDTH 500 0
DWIDTH 15 0
BBX 15 21 0 -6
BITMAP
F00E
701C
781C
381C
3838
1C38
1C78
1C70
0E70
0EE0
0EE0
07E0
07C0
07C0
03C0
0380
0380
0380
0380
0380
0380
ENDCHAR
STARTCHAR 04B0
ENCODING 1200
SWIDTH 633 0
DWIDTH 19 0
BBX 18 21 0 0
BITMAP
F003C0
780380
3C0780
3C0700
1E0F00
1E0E00
0F1E00
0F1C00
07B800
03F800
03F000
01F000
01E000
1FFF00
1FFF00
1FFF00
00E000
00E000
00E000
00E000
00E000
ENDCHAR
STARTCHAR 04B1
ENCODING 1201
SWIDTH 500 0
DWIDTH 15 0
BBX 15 21 0 -6
BITMAP
F00E
701C
781C
381C
3838
1C38
1C78
1C70
0E70
0EE0
0EE0
07E0
07C0
07C0
03C0
3FF8
3FF8
3FF8
0380
0380
0380
ENDCHAR
STARTCHAR 04B2
ENCODING 1202
SWIDTH 666 0
DWIDTH 20 0
BBX 19 26 1 -5
BITMAP
F00780
780700
780F00
3C1E00
1E1C00
1E3C00
0F7800
077000
07F000
03E000
03E000
03E000
07F000
0F7800
0E3800
1E3C00
3C1E00
381E00
780FE0
7007E0
F007E0
0000E0
0000E0
0000E0
0000E0
0000E0
ENDCHAR
STARTCHAR 04B3
ENCODING 1203
SWIDTH 533 0
DWIDTH 16 0
BBX 15 19 1 -4
BITMAP
F03C
7838
3870
3CF0
1EE0
0FC0
0F80
0780
0FC0
0FE0
1CE0
38F0
787E
703E
E03E
000E
000E
000E
000E
ENDCHAR
STARTCHAR 04B6
ENCODING 1206
SWIDTH 700 0
DWIDTH 21 0
BBX 18 26 2 -5
BITMAP
E00E00
E00E00
E00E00
E00E00
E00E00
E00E00
E00E00
E00E00
E00E00
F00E00
F81E00
7FFE00
3FFE00
0FEE00
000E00
000E00
000E00
000E00
000FC0
000FC0
000FC0
0001C0
0001C0
0001C0
0001C0
0001C0
ENDCHAR
STARTCHAR 04B7
ENCODING 1207
SWIDTH 600 0
DWIDTH 18 0
BBX 16 19 1 -4
BITMAP
F038
F038
F038
F038
F038
F038
7038
7878
7FF8
3FB8
1F38
0038
003F
003F
003F
0007
0007
0007
0007
ENDCHAR
STARTCHAR 04B8
ENCODING 1208
SWIDTH 666 0
DWIDTH 20 0
BBX 15 21 2 0
BITMAP
E00E
E00E
E00E
E00E
E00E
E00E
E38E
E38E
E38E
F38E
FB8E
7FFE
3FFE
0FFE
038E
038E
038E
038E
000E
000E
000E
ENDCHAR
STARTCHAR 04B9
ENCODING 1209
SWIDTH 566 0
DWIDTH 17 0
BBX 14 15 1 0
BITMAP
F03C
F03C
F03C
F33C
F33C
733C
7B3C
7FFC
3FFC
1FBC
033C
033C
033C
003C
003C
ENDCHAR
STARTCHAR 04BA
ENCODING 1210
SWIDTH 666 0
DWIDTH 20 0
BBX 15 21 3 0
BITMAP
E000
E000
E000
E000
E000
E000
E000
EFE0
FFF8
FFFC
F03C
E01E
E01E
E00E
E00E
E00E
E00E
E00E
E00E
E00E
E00E
ENDCHAR
STARTCHAR 04BB
ENCODING 1211
SWIDTH 566 0
DWIDTH 17 0
BBX 13 22 2 0
BITMAP
F000
F000
F000
F000
F000
F000
F000
F3E0
F7F0
FFF8
F878
F038
F038
F038
F038
F038
F038
F038
F038
F038
F038
F038
ENDCHAR
STARTCHAR 04C0
ENCODING 1216
SWIDTH 400 0
DWIDTH 12 0
BBX 9 21 2 0
BITMAP
FF80
FF80
FF80
1C00
1C00
1C00
1C00
1C00
1C00
1C00
1C00
1C00
1C00
1C00
1C00
1C00
1C00
1C00
FF80
FF80
FF80
ENDCHAR
STARTCHAR 04C1
ENCODING 1217
SWIDTH 1000 0
DWIDTH 30 0
BBX 27 28 1 0
BITMAP
0030C000
0070E000
0071C000
003FC000
001F0000
00000000
00000000
700F01E0
780F03E0
7C0F03E0
1C0F0780
1E0F0700
0E0F0F00
0F0F0E00
070F0E00
078F1E00
03FFFC00
01FFF800
03FFFC00
078F1E00
0F0F0E00
0F0F0F00
1E0F0700
1E0F0780
3C0F0380
FC0F03E0
F80F01E0
F00F00E0
ENDCHAR
STARTCHAR 04C2
ENCODING 1218
SWIDTH 800 0
DWIDTH 24 0
BBX 22 23 1 0
BITMAP
018600
038700
01C700
01FE00
007C00
000000
000000
000000
F0383C
F8387C
F8387C
3C38F0
1C38E0
1E39E0
0FFFC0
07FF80
0FFFE0
1E39E0
1C38F0
3C38F0
F8387C
F8383C
F0383C
ENDCHAR
STARTCHAR 04CF
ENCODING 1231
SWIDTH 266 0
DWIDTH 8 0
BBX 4 22 2 0
BITMAP
F0
F0
F0
F0
F0
F0
F0
F0
F0
F0
F0
F0
F0
F0
F0
F0
F0
F0
F0
F0
F0
F0
ENDCHAR
STARTCHAR 04D0
ENCODING 1232
SWIDTH 666 0
DWIDTH 20 0
BBX 18 28 1 0
BITMAP
061800
0E1C00
0E3800
07F800
03E000
000000
000000
01E000
03F000
03F000
03F000
077800
073800
073800
0E3C00
0E1C00
0E1C00
1C1E00
1C0E00
1FFE00
3FFF00
3FFF00
380700
700780
700380
F00380
F003C0
E003C0
ENDCHAR
STARTCHAR 04D1
ENCODING 1233
SWIDTH 533 0
DWIDTH 16 0
BBX 15 23 1 0
BITMAP
1860
3870
38E0
1FE0
0F80
0000
0000
0000
0FC0
3FF0
7FF0
3078
0038
0038
1FF8
7FF8
7038
F038
F038
F078
7FBE
7FBE
1F1E
ENDCHAR
STARTCHAR 04D2
ENCODING 1234
SWIDTH 666 0
DWIDTH 20 0
BBX 18 27 1 0
BITMAP
0E3800
0F3C00
0F3C00
0E3800
000000
000000
01E000
03F000
03F000
03F000
077800
073800
073800
0E3C00
0E1C00
0E1C00
1C1E00
1C0E00
1FFE00
3FFF00
3FFF00
380700
700780
700380
F00380
F003C0
E003C0
ENDCHAR
STARTCHAR 04D3
ENCODING 1235
SWIDTH 533 0
DWIDTH 16 0
BBX 15 22 1 0
BITMAP
38E0
3CF0
3CF0
38E0
0000
0000
0000
0FC0
3FF0
7FF0
3078
0038
0038
1FF8
7FF8
7038
F038
F038
F078
7FBE
7FBE
1F1E
ENDCHAR
STARTCHAR 04D4
ENCODING 1236
SWIDTH 933 0
DWIDTH 28 0
BBX 26 21 0 0
BITMAP
003FFFC0
003FFFC0
007FFFC0
00770000
00E70000
00E70000
01C70000
01C70000
03870000
0387FF80
0707FF80
0707FF80
0FFF0000
0FFF0000
1FFF0000
1C070000
3C070000
38070000
7807FFC0
7007FFC0
F007FFC0
ENDCHAR
STARTCHAR 04D5
ENCODING 1237
SWIDTH 866 0
DWIDTH 26 0
BBX 24 15 1 0
BITMAP
0F83F0
3FC7F8
7FEFFC
307C1E
20380E
00380F
1FFFFF
7FFFFF
703800
F03800
F03C04
F0FE1E
7FCFFE
7FC7FC
1F03F0
ENDCHAR
STARTCHAR 04D6
ENCODING 1238
SWIDTH 600 0
DWIDTH 18 0
BBX 13 28 3 0
BITMAP
3040
70E0
38E0
3FC0
0F80
0000
0000
FFF8
FFF8
FFF8
E000
E000
E000
E000
E000
E000
FFF0
FFF0
FFF0
E000
E000
E000
E000
E000
E000
FFF8
FFF8
FFF8
ENDCHAR
STARTCHAR 04D7
ENCODING 1239
SWIDTH 566 0
DWIDTH 17 0
BBX 14 23 1 0
BITMAP
0820
3C78
1C70
0FE0
07C0
0000
0000
0000
07C0
1FF0
3FF8
783C
701C
F01C
FFFC
FFFC
F000
F000
7010
7838
3FFC
1FF0
07E0
ENDCHAR
STARTCHAR 04D8
ENCODING 1240
SWIDTH 700 0
DWIDTH 21 0
BBX 18 21 2 0
BITMAP
07F000
1FFC00
3FFE00
7C1F00
780700
F00780
000380
000380
0003C0
FFFFC0
FFFFC0
FFFFC0
E003C0
E00380
F00380
700780
780F00
3C1F00
3FFE00
1FFC00
07F000
ENDCHAR
STARTCHAR 04D9
ENCODING 1241
SWIDTH 566 0
DWIDTH 17 0
BBX 14 15 1 0
BITMAP
0FC0
3FF0
7FF8
787C
203C
001C
001C
FFFC
FFFC
F01C
701C
787C
3FF8
1FF0
0FC0
ENDCHAR
STARTCHAR 04DC
ENCODING 1244
SWIDTH 1000 0
DWIDTH 30 0
BBX 27 27 1 0
BITMAP
0071C000
0079E000
0079E000
0071C000
00000000
00000000
700F01E0
780F03E0
7C0F03E0
1C0F0780
1E0F0700
0E0F0F00
0F0F0E00
070F0E00
078F1E00
03FFFC00
01FFF800
03FFFC00
078F1E00
0F0F0E00
0F0F0F00
1E0F0700
1E0F0780
3C0F0380
FC0F03E0
F80F01E0
F00F00E0
ENDCHAR
STARTCHAR 04DD
ENCODING 1245
SWIDTH 800 0
DWIDTH 24 0
BBX 22 22 1 0
BITMAP
01C700
03CF00
03CF00
01C700
000000
000000
000000
F0383C
F8387C
F8387C
3C38F0
1C38E0
1E39E0
0FFFC0
07FF80
0FFFE0
1E39E0
1C38F0
3C38F0
F8387C
F8383C
F0383C
ENDCHAR
STARTCHAR 04DE
ENCODING 1246
SWIDTH 600 0
DWIDTH 18 0
BBX 15 27 1 0
BITMAP
1C70
1E78
1E78
1C70
0000
0000
0FE0
3FF8
7FFC
783E
201E
001E
001E
001E
003C
07F8
07E0
07FC
003E
001E
000E
000E
601E
F83E
7FFC
3FF8
0FE0
ENDCHAR
STARTCHAR 04DF
ENCODING 1247
SWIDTH 500 0
DWIDTH 15 0
BBX 13 22 1 0
BITMAP
38E0
79E0
79E0
38E0
0000
0000
0000
1FC0
7FF0
FFF0
6070
0078
0070
0FE0
0FE0
0070
0078
4078
6078
FFF0
7FE0
1FC0
ENDCHAR
STARTCHAR 04E2
ENCODING 1250
SWIDTH 700 0
DWIDTH 21 0
BBX 16 26 3 0
BITMAP
1FF0
1FF0
0000
0000
0000
E00F
E00F
E01F
E01F
E03F
E077
E077
E0E7
E1E7
E1C7
E387
E787
E707
EF07
EE07
FC07
FC07
F807
F007
F007
E007
ENDCHAR
STARTCHAR 04E3
ENCODING 1251
SWIDTH 600 0
DWIDTH 18 0
BBX 14 21 2 0
BITMAP
1FE0
1FE0
0000
0000
0000
0000
F03C
F03C
F07C
F0FC
F1DC
F1DC
F3BC
F7BC
E73C
EE3C
FE3C
FC3C
F83C
F03C
F03C
ENDCHAR
STARTCHAR 04E4
ENCODING 1252
SWIDTH 700 0
DWIDTH 21 0
BBX 16 27 3 0
BITMAP
1C70
1E78
1E78
1C70
0000
0000
E00F
E00F
E01F
E01F
E03F
E077
E077
E0E7
E1E7
E1C7
E387
E787
E707
EF07
EE07
FC07
FC07
F807
F007
F007
E007
ENDCHAR
STARTCHAR 04E5
ENCODING 1253
SWIDTH 600 0
DWIDTH 18 0
BBX 14 22 2 0
BITMAP
1860
3CF0
3CF0
1860
0000
0000
0000
F03C
F03C
F07C
F0FC
F1DC
F1DC
F3BC
F7BC
E73C
EE3C
FE3C
FC3C
F83C
F03C
F03C
ENDCHAR
STARTCHAR 04E6
ENCODING 1254
SWIDTH 700 0
DWIDTH 21 0
BBX 18 27 2 0
BITMAP
0E3800
0F3C00
0F3C00
0E3800
000000
000000
07F000
1FFC00
3FFE00
7C1F00
780F00
F00780
F00380
E00380
E003C0
E003C0
E003C0
E003C0
E003C0
E00380
F00380
F00780
780700
7C1F00
3FFE00
1FFC00
07F000
ENDCHAR
STARTCHAR 04E7
ENCODING 1255
SWIDTH 566 0
DWIDTH 17 0
BBX 15 22 1 0
BITMAP
1C70
1C70
1C70
1C70
0000
0000
0000
07C0
1FF0
3FF8
783C
701C
F01C
F01E
F01E
F01E
F01C
701C
783C
3FF8
1FF0
07C0
ENDCHAR
STARTCHAR 04E8
ENCODING 1256
SWIDTH 700 0
DWIDTH 21 0
BBX 18 21 2 0
BITMAP
07F000
1FFC00
3FFE00
7C1F00
780700
F00780
E00380
E00380
E003C0
FFFFC0
FFFFC0
FFFFC0
E003C0
E00380
E00380
F00780
780700
7C1F00
3FFE00
1FFC00
07F000
ENDCHAR
STARTCHAR 04E9
ENCODING 1257
SWIDTH 566 0
DWIDTH 17 0
BBX 15 15 1 0
BITMAP
07C0
1FF0
3FF8
783C
701C
F01C
FFFE
FFFE
F01E
F01C
701C
783C
3FF8
1FF0
07C0
ENDCHAR
STARTCHAR 04EE
ENCODING 1262
SWIDTH 600 0
DWIDTH 18 0
BBX 17 26 1 0
BITMAP
0FF800
0FF800
000000
000000
000000
E00780
F00700
700F00
780E00
380E00
3C1E00
1C1C00
1E3C00
0E3800
0E3800
0F7800
077000
07F000
03E000
03E000
01E000
01C000
03C000
1F8000
1F8000
1F0000
ENDCHAR
STARTCHAR 04EF
ENCODING 1263
SWIDTH 500 0
DWIDTH 15 0
BBX 15 27 0 -6
BITMAP
1FF0
1FF0
0000
0000
0000
0000
F00E
701E
781C
381C
3838
3C38
1C38
1C70
1E70
0EF0
0EE0
07E0
07E0
07C0
03C0
0380
0380
0780
3F00
3F00
3E00
ENDCHAR
STARTCHAR 04F0
ENCODING 1264
SWIDTH 600 0
DWIDTH 18 0
BBX 17 27 1 0
BITMAP
0E3800
1E7800
1E7800
0E3800
000000
000000
E00780
F00700
700F00
780E00
380E00
3C1E00
1C1C00
1E3C00
0E3800
0E3800
0F7800
077000
07F000
03E000
03E000
01E000
01C000
03C000
1F8000
1F8000
1F0000
ENDCHAR
STARTCHAR 04F1
ENCODING 1265
SWIDTH 500 0
DWIDTH 15 0
BBX 15 28 0 -6
BITMAP
1C70
1E78
1E78
1C70
0000
0000
0000
F00E
701E
781C
381C
3838
3C38
1C38
1C70
1E70
0EF0
0EE0
07E0
07E0
07C0
03C0
0380
0380
0780
3F00
3F00
3E00
ENDCHAR
STARTCHAR 04F2
ENCODING 1266
SWIDTH 600 0
DWIDTH 18 0
BBX 17 28 1 0
BITMAP
030C00
03DE00
071C00
073800
0E3000
047000
000000
E00780
F00700
700F00
780E00
380E00
3C1E00
1C1C00
1E3C00
0E3800
0E3800
0F7800
077000
07F000
03E000
03E000
01E000
01C000
03C000
1F8000
1F8000
1F0000
ENDCHAR
STARTCHAR 04F3
ENCODING 1267
SWIDTH 500 0
DWIDTH 15 0
BBX 15 29 0 -6
BITMAP
0318
079C
0738
0E38
0C70
0C20
0000
0000
F00E
701E
781C
381C
3838
3C38
1C38
1C70
1E70
0EF0
0EE0
07E0
07E0
07C0
03C0
0380
0380
0780
3F00
3F00
3E00
ENDCHAR
STARTCHAR 04F4
ENCODING 1268
SWIDTH 666 0
DWIDTH 20 0
BBX 15 27 2 0
BITMAP
1C70
1C70
1C70
1C70
0000
0000
E00E
E00E
E00E
E00E
E00E
E00E
E00E
E00E
E00E
F00E
F81E
7FFE
3FFE
0FEE
000E
000E
000E
000E
000E
000E
000E
ENDCHAR
STARTCHAR 04F5
ENCODING 1269
SWIDTH 566 0
DWIDTH 17 0
BBX 13 22 1 0
BITMAP
38E0
3CF0
3CF0
38E0
0000
0000
0000
F038
F038
F038
F038
F038
F038
7038
7878
7FF8
3FB8
1F38
0038
0038
0038
0038
ENDCHAR
STARTCHAR 04F8
ENCODING 1272
SWIDTH 900 0
DWIDTH 27 0
BBX 21 27 3 0
BITMAP
038E00
038E00
038E00
038E00
000000
000000
E00038
E00038
E00038
E00038
E00038
E00038
E00038
E00038
FFF038
FFF838
FFFC38
E03C38
E01E38
E01E38
E01E38
E01E38
E01E38
E03C38
FFFC38
FFF838
FFF038
ENDCHAR
STARTCHAR 04F9
ENCODING 1273
SWIDTH 766 0
DWIDTH 23 0
BBX 18 22 2 0
BITMAP
071C00
071C00
071C00
071C00
000000
000000
000000
F001C0
F001C0
F001C0
F001C0
FFC1C0
FFE1C0
FFF1C0
F079C0
F079C0
F079C0
F079C0
F079C0
FFF1C0
FFE1C0
FFC1C0
ENDCHAR
STARTCHAR 0E3F
ENCODING 3647
SWIDTH 666 0
DWIDTH 20 0
BBX 15 25 3 -2
BITMAP
0700
0700
0700
FFE0
FFF8
FFFC
E33C
E31C
E31C
E31C
E33C
FFF0
FFF0
FFFC
E31E
E31E
E30E
E31E
E31E
FFFC
FFF8
FFF0
0700
0700
0700
ENDCHAR
STARTCHAR 1E80
ENCODING 7808
SWIDTH 933 0
DWIDTH 28 0
BBX 26 28 1 0
BITMAP
00300000
00780000
00380000
001C0000
000C0000
000E0000
00000000
E01E01C0
E01E03C0
F03E0380
703F0380
703F0380
70370380
78730700
78738700
38738700
38638700
38E18E00
3CE1CE00
1CE1CE00
1CC1CE00
1DC1CE00
1DC0FC00
0FC0FC00
0F80FC00
0F80FC00
0F807800
07807800
ENDCHAR
STARTCHAR 1E81
ENCODING 7809
SWIDTH 800 0
DWIDTH 24 0
BBX 22 23 1 0
BITMAP
00C000
01E000
00E000
007000
003000
003800
000000
000000
E0781C
E0781C
F0783C
70FC38
70FC38
70FC38
38CE70
39CE70
39CE70
398670
1F87E0
1F87E0
1F03E0
0F03C0
0F03C0
ENDCHAR
STARTCHAR 1E82
ENCODING 7810
SWIDTH 933 0
DWIDTH 28 0
BBX 26 28 1 0
BITMAP
00070000
00078000
000F0000
000E0000
001C0000
000C0000
00000000
E01E01C0
E01E03C0
F03E0380
703F0380
703F0380
70370380
78730700
78738700
38738700
38638700
38E18E00
3CE1CE00
1CE1CE00
1CC1CE00
1DC1CE00
1DC0FC00
0FC0FC00
0F80FC00
0F80FC00
0F807800
07807800
ENDCHAR
STARTCHAR 1E83
ENCODING 7811
SWIDTH 800 0
DWIDTH 24 0
BBX 22 23 1 0
BITMAP
000C00
001E00
001C00
003800
003000
007000
000000
000000
E0781C
E0781C
F0783C
70FC38
70FC38
70FC38
38CE70
39CE70
39CE70
398670
1F87E0
1F87E0
1F03E0
0F03C0
0F03C0
ENDCHAR
STARTCHAR 1E84
ENCODING 7812
SWIDTH 933 0
DWIDTH 28 0
BBX 26 27 1 0
BITMAP
00E38000
00F3C000
00F3C000
00E38000
00000000
00000000
E01E01C0
E01E03C0
F03E0380
703F0380
703F0380
70370380
78730700
78738700
38738700
38638700
38E18E00
3CE1CE00
1CE1CE00
1CC1CE00
1DC1CE00
1DC0FC00
0FC0FC00
0F80FC00
0F80FC00
0F807800
07807800
ENDCHAR
STARTCHAR 1E85
ENCODING 7813
SWIDTH 800 0
DWIDTH 24 0
BBX 22 22 1 0
BITMAP
018600
03CF00
03CF00
018600
000000
000000
000000
E0781C
E0781C
F0783C
70FC38
70FC38
70FC38
38CE70
39CE70
39CE70
398670
1F87E0
1F87E0
1F03E0
0F03C0
0F03C0
ENDCHAR
STARTCHAR 1E9E
ENCODING 7838
SWIDTH 700 0
DWIDTH 21 0
BBX 17 21 3 0
BITMAP
FFFF00
FFFF00
FFFF00
E00E00
E01C00
E03800
E07000
E0E000
E1F000
E1FE00
E1FF00
E00F80
E00780
E00380
E00380
E00380
E20780
E70F00
EFFF00
E3FE00
E1F800
ENDCHAR
STARTCHAR 1EA0
ENCODING 7840
SWIDTH 666 0
DWIDTH 20 0
BBX 18 27 1 -6
BITMAP
01E000
03F000
03F000
03F000
077800
073800
073800
0E3C00
0E1C00
0E1C00
1C1E00
1C0E00
1FFE00
3FFF00
3FFF00
380700
700780
700380
F00380
F003C0
E003C0
000000
000000
01C000
01E000
01E000
01C000
ENDCHAR
STARTCHAR 1EA1
ENCODING 7841
SWIDTH 533 0
DWIDTH 16 0
BBX 15 21 1 -6
BITMAP
0FC0
3FF0
7FF0
3078
0038
0038
1FF8
7FF8
7038
F038
F038
F078
7FBE
7FBE
1F1E
0000
0000
0700
0780
0780
0700
ENDCHAR
STARTCHAR 1EA2
ENCODING 7842
SWIDTH 666 0
DWIDTH 20 0
BBX 18 28 1 0
BITMAP
03F000
03F000
007000
007000
00E000
004000
000000
01E000
03F000
03F000
03F000
077800
073800
073800
0E3C00
0E1C00
0E1C00
1C1E00
1C0E00
1FFE00
3FFF00
3FFF00
380700
700780
700380
F00380
F003C0
E003C0
ENDCHAR
STARTCHAR 1EA3
ENCODING 7843
SWIDTH 533 0
DWIDTH 16 0
BBX 15 22 1 0
BITMAP
0F80
0FC0
01C0
0180
0380
0100
0000
0FC0
3FF0
7FF0
3078
0038
0038
1FF8
7FF8
7038
F038
F038
F078
7FBE
7FBE
1F1E
ENDCHAR
STARTCHAR 1EA4
ENCODING 7844
SWIDTH 666 0
DWIDTH 20 0
BBX 18 32 1 0
BITMAP
000300
000380
000700
000700
000E00
01E400
03F000
077800
0E1C00
040800
000000
01E000
03F000
03F000
03F000
077800
073800
073800
0E3C00
0E1C00
0E1C00
1C1E00
1C0E00
1FFE00
3FFF00
3FFF00
380700
700780
700380
F00380
F003C0
E003C0
ENDCHAR
STARTCHAR 1EA5
ENCODING 7845
SWIDTH 533 0
DWIDTH 16 0
BBX 15 26 1 0
BITMAP
000C
000E
001C
0018
0038
0790
0FC0
1DE0
3870
3020
0000
0FC0
3FF0
7FF0
3078
0038
0038
1FF8
7FF8
7038
F038
F038
F078
7FBE
7FBE
1F1E
ENDCHAR
STARTCHAR 1EA6
ENCODING 7846
SWIDTH 666 0
DWIDTH 20 0
BBX 18 32 1 0
BITMAP
300000
F00000
380000
380000
1C0000
09E000
03F000
077800
0E1C00
040800
000000
01E000
03F000
03F000
03F000
077800
073800
073800
0E3C00
0E1C00
0E1C00
1C1E00
1C0E00
1FFE00
3FFF00
3FFF00
380700
700780
700380
F00380
F003C0
E003C0
ENDCHAR
STARTCHAR 1EA7
ENCODING 7847
SWIDTH 533 0
DWIDTH 16 0
BBX 17 26 -1 0
BITMAP
600000
F00000
700000
380000
180000
0DE000
03F000
077800
0E1C00
0C0800
000000
03F000
0FFC00
1FFC00
0C1E00
000E00
000E00
07FE00
1FFE00
1C0E00
3C0E00
3C0E00
3C1E00
1FEF80
1FEF80
07C780
ENDCHAR
STARTCHAR 1EA8
ENCODING 7848
SWIDTH 666 0
DWIDTH 20 0
BBX 18 32 1 0
BITMAP
003F00
003F00
000300
000700
000600
01EC00
03F000
077800
0E1C00
040800
000000
01E000
03F000
03F000
03F000
077800
073800
073800
0E3C00
0E1C00
0E1C00
1C1E00
1C0E00
1FFE00
3FFF00
3FFF00
380700
700780
700380
F00380
F003C0
E003C0
ENDCHAR
STARTCHAR 1EA9
ENCODING 7849
SWIDTH 533 0
DWIDTH 16 0
BBX 15 26 1 0
BITMAP
00FC
00FC
001C
001C
0038
0790
0FC0
1DE0
3870
3020
0000
0FC0
3FF0
7FF0
3078
0038
0038
1FF8
7FF8
7038
F038
F038
F078
7FBE
7FBE
1F1E
ENDCHAR
STARTCHAR 1EAA
ENCODING 7850
SWIDTH 666 0
DWIDTH 20 0
BBX 18 31 1 0
BITMAP
078800
0FFC00
087800
000000
01E000
03F000
077800
0E1C00
040800
000000
01E000
03F000
03F000
03F000
077800
073800
073800
0E3C00
0E1C00
0E1C00
1C1E00
1C0E00
1FFE00
3FFF00
3FFF00
380700
700780
700380
F00380
F003C0
E003C0
ENDCHAR
STARTCHAR 1EAB
ENCODING 7851
SWIDTH 533 0
DWIDTH 16 0
BBX 15 25 1 0
BITMAP
1E20
3FF0
61E0
0000
0780
0FC0
1DE0
3870
1020
0000
0FC0
3FF0
7FF0
3078
0038
0038
1FF8
7FF8
7038
F038
F038
F078
7FBE
7FBE
1F1E
ENDCHAR
STARTCHAR 1EAC
ENCODING 7852
SWIDTH 666 0
DWIDTH 20 0
BBX 18 34 1 -6
BITMAP
01E000
03F000
077800
0E1C00
040800
000000
000000
01E000
03F000
03F000
03F000
077800
073800
073800
0E3C00
0E1C00
0E1C00
1C1E00
1C0E00
1FFE00
3FFF00
3FFF00
380700
700780
700380
F00380
F003C0
E003C0
000000
000000
01C000
01E000
01E000
01C000
ENDCHAR
STARTCHAR 1EAD
ENCODING 7853
SWIDTH 533 0
DWIDTH 16 0
BBX 15 30 1 -6
BITMAP
0780
0FC0
1DC0
38E0
3870
1020
0000
0000
0000
0FC0
3FF0
7FF0
3078
0038
0038
1FF8
7FF8
7038
F038
F038
F078
7FBE
7FBE
1F1E
0000
0000
0700
0780
0780
0700
ENDCHAR
STARTCHAR 1EAE
ENCODING 7854
SWIDTH 666 0
DWIDTH 20 0
BBX 18 32 1 0
BITMAP
003000
007800
007000
00E000
00C000
05C800
0C1C00
0E1800
07F800
03E000
000000
01E000
03F000
03F000
03F000
077800
073800
073800
0E3C00
0E1C00
0E1C00
1C1E00
1C0E00
1FFE00
3FFF00
3FFF00
380700
700780
700380
F00380
F003C0
E003C0
ENDCHAR
STARTCHAR 1EAF
ENCODING 7855
SWIDTH 533 0
DWIDTH 16 0
BBX 15 26 1 0
BITMAP
00C0
01E0
01C0
0380
0300
3620
3070
38E0
1FC0
0F80
0000
0FC0
3FF0
7FF0
3078
0038
0038
1FF8
7FF8
7038
F038
F038
F078
7FBE
7FBE
1F1E
ENDCHAR
STARTCHAR 1EB0
ENCODING 7856
SWIDTH 666 0
DWIDTH 20 0
BBX 18 32 1 0
BITMAP
030000
078000
038000
01C000
00C000
04C800
0C1C00
0E1800
07F800
03E000
000000
01E000
03F000
03F000
03F000
077800
073800
073800
0E3C00
0E1C00
0E1C00
1C1E00
1C0E00
1FFE00
3FFF00
3FFF00
380700
700780
700380
F00380
F003C0
E003C0
ENDCHAR
STARTCHAR 1EB1
ENCODING 7857
SWIDTH 533 0
DWIDTH 16 0
BBX 15 26 1 0
BITMAP
0C00
1E00
0E00
0700
0700
3220
3070
38E0
1FC0
0F80
0000
0FC0
3FF0
7FF0
3078
0038
0038
1FF8
7FF8
7038
F038
F038
F078
7FBE
7FBE
1F1E
ENDCHAR
STARTCHAR 1EB2
ENCODING 7858
SWIDTH 666 0
DWIDTH 20 0
BBX 18 32 1 0
BITMAP
03E000
03E000
007000
00E000
00C000
04C800
0C1C00
0E1800
07F800
03E000
000000
01E000
03F000
03F000
03F000
077800
073800
073800
0E3C00
0E1C00
0E1C00
1C1E00
1C0E00
1FFE00
3FFF00
3FFF00
380700
700780
700380
F00380
F003C0
E003C0
ENDCHAR
STARTCHAR 1EB3
ENCODING 7859
SWIDTH 533 0
DWIDTH 16 0
BBX 15 26 1 0
BITMAP
0F80
0F80
0180
0380
0300
3620
3070
38E0
1FC0
0F80
0000
0FC0
3FF0
7FF0
3078
0038
0038
1FF8
7FF8
7038
F038
F038
F078
7FBE
7FBE
1F1E
ENDCHAR
STARTCHAR 1EB4
ENCODING 7860
SWIDTH 666 0
DWIDTH 20 0
BBX 18 31 1 0
BITMAP
078800
0FFC00
087800
000000
040800
0C1C00
0E1800
07F800
03E000
000000
01E000
03F000
03F000
03F000
077800
073800
073800
0E3C00
0E1C00
0E1C00
1C1E00
1C0E00
1FFE00
3FFF00
3FFF00
380700
700780
700380
F00380
F003C0
E003C0
ENDCHAR
STARTCHAR 1EB5
ENCODING 7861
SWIDTH 533 0
DWIDTH 16 0
BBX 15 25 1 0
BITMAP
1E20
3FF0
21E0
0000
3020
3070
38E0
1FC0
0F80
0000
0FC0
3FF0
7FF0
3078
0038
0038
1FF8
7FF8
7038
F038
F038
F078
7FBE
7FBE
1F1E
ENDCHAR
STARTCHAR 1EB6
ENCODING 7862
SWIDTH 666 0
DWIDTH 20 0
BBX 18 34 1 -6
BITMAP
040800
0E1C00
063800
07F800
01E000
000000
000000
01E000
03F000
03F000
03F000
077800
073800
073800
0E3C00
0E1C00
0E1C00
1C1E00
1C0E00
1FFE00
3FFF00
3FFF00
380700
700780
700380
F00380
F003C0
E003C0
000000
000000
01C000
01E000
01E000
01C000
ENDCHAR
STARTCHAR 1EB7
ENCODING 7863
SWIDTH 533 0
DWIDTH 16 0
BBX 15 29 1 -6
BITMAP
3020
3070
38E0
1FC0
0F80
0000
0000
0000
0FC0
3FF0
7FF0
3078
0038
0038
1FF8
7FF8
7038
F038
F038
F078
7FBE
7FBE
1F1E
0000
0000
0700
0780
0780
0700
ENDCHAR
STARTCHAR 1EB8
ENCODING 7864
SWIDTH 600 0
DWIDTH 18 0
BBX 13 27 3 -6
BITMAP
FFF8
FFF8
FFF8
E000
E000
E000
E000
E000
E000
FFF0
FFF0
FFF0
E000
E000
E000
E000
E000
E000
FFF8
FFF8
FFF8
0000
0000
0700
0F00
0F00
0700
ENDCHAR
STARTCHAR 1EB9
ENCODING 7865
SWIDTH 566 0
DWIDTH 17 0
BBX 14 21 1 -6
BITMAP
07C0
1FF0
3FF8
783C
701C
F01C
FFFC
FFFC
F000
F000
7010
7838
3FFC
1FF0
07E0
0000
0000
0380
0380
0380
0380
ENDCHAR
STARTCHAR 1EBA
ENCODING 7866
SWIDTH 600 0
DWIDTH 18 0
BBX 13 28 3 0
BITMAP
1F80
1F80
0180
0380
0300
0700
0000
FFF8
FFF8
FFF8
E000
E000
E000
E000
E000
E000
FFF0
FFF0
FFF0
E000
E000
E000
E000
E000
E000
FFF8
FFF8
FFF8
ENDCHAR
STARTCHAR 1EBB
ENCODING 7867
SWIDTH 566 0
DWIDTH 17 0
BBX 14 22 1 0
BITMAP
07C0
07E0
00E0
01C0
01C0
0180
0000
07C0
1FF0
3FF8
783C
701C
F01C
FFFC
FFFC
F000
F000
7010
7838
3FFC
1FF0
07E0
ENDCHAR
STARTCHAR 1EBC
ENCODING 7868
SWIDTH 600 0
DWIDTH 18 0
BBX 13 26 3 0
BITMAP
3C20
7FF0
23C0
0000
0000
FFF8
FFF8
FFF8
E000
E000
E000
E000
E000
E000
FFF0
FFF0
FFF0
E000
E000
E000
E000
E000
E000
FFF8
FFF8
FFF8
ENDCHAR
STARTCHAR 1EBD
ENCODING 7869
SWIDTH 566 0
DWIDTH 17 0
BBX 14 21 1 0
BITMAP
1F10
3FF8
11F0
0000
0000
0000
07C0
1FF0
3FF8
783C
701C
F01C
FFFC
FFFC
F000
F000
7010
7838
3FFC
1FF0
07E0
ENDCHAR
STARTCHAR 1EBE
ENCODING 7870
SWIDTH 600 0
DWIDTH 18 0
BBX 15 32 3 0
BITMAP
000C
001E
001C
0038
0030
0F70
1F80
3DC0
70E0
2060
0000
FFF8
FFF8
FFF8
E000
E000
E000
E000
E000
E000
FFF0
FFF0
FFF0
E000
E000
E000
E000
E000
E000
FFF8
FFF8
FFF8
ENDCHAR
STARTCHAR 1EBF
ENCODING 7871
SWIDTH 566 0
DWIDTH 17 0
BBX 16 26 1 0
BITMAP
0006
000F
000E
001C
0018
03B8
07C0
0EE0
1C70
3038
0000
07C0
1FF0
3FF8
783C
701C
F01C
FFFC
FFFC
F000
F000
7010
7838
3FFC
1FF0
07E0
ENDCHAR
STARTCHAR 1EC0
ENCODING 7872
SWIDTH 600 0
DWIDTH 18 0
BBX 15 32 1 0
BITMAP
6000
E000
7000
3000
3800
13C0
07E0
0F70
1C38
0818
0000
3FFE
3FFE
3FFE
3800
3800
3800
3800
3800
3800
3FFC
3FFC
3FFC
3800
3800
3800
3800
3800
3800
3FFE
3FFE
3FFE
ENDCHAR
STARTCHAR 1EC1
ENCODING 7873
SWIDTH 566 0
DWIDTH 17 0
BBX 15 26 0 0
BITMAP
6000
F000
7000
3800
1800
19C0
03E0
0770
0E38
181C
0000
03E0
0FF8
1FFC
3C1E
380E
780E
7FFE
7FFE
7800
7800
3808
3C1C
1FFE
0FF8
03F0
ENDCHAR
STARTCHAR 1EC2
ENCODING 7874
SWIDTH 600 0
DWIDTH 18 0
BBX 14 32 3 0
BITMAP
00F8
00FC
001C
0038
0030
0F30
1F80
3DC0
70E0
2060
0000
FFF8
FFF8
FFF8
E000
E000
E000
E000
E000
E000
FFF0
FFF0
FFF0
E000
E000
E000
E000
E000
E000
FFF8
FFF8
FFF8
ENDCHAR
STARTCHAR 1EC3
ENCODING 7875
SWIDTH 566 0
DWIDTH 17 0
BBX 15 26 1 0
BITMAP
007C
007E
000E
000C
001C
0388
07C0
0EE0
1C70
3038
0000
07C0
1FF0
3FF8
783C
701C
F01C
FFFC
FFFC
F000
F000
7010
7838
3FFC
1FF0
07E0
ENDCHAR
STARTCHAR 1EC4
ENCODING 7876
SWIDTH 600 0
DWIDTH 18 0
BBX 13 31 3 0
BITMAP
3C20
7FF0
23C0
0000
0F00
1F80
3DC0
70E0
2060
0000
FFF8
FFF8
FFF8
E000
E000
E000
E000
E000
E000
FFF0
FFF0
FFF0
E000
E000
E000
E000
E000
E000
FFF8
FFF8
FFF8
ENDCHAR
STARTCHAR 1EC5
ENCODING 7877
SWIDTH 566 0
DWIDTH 17 0
BBX 14 25 1 0
BITMAP
1F10
3FF8
11F0
0000
0380
07C0
0EE0
1C70
3038
0000
07C0
1FF0
3FF8
783C
701C
F01C
FFFC
FFFC
F000
F000
7010
7838
3FFC
1FF0
07E0
ENDCHAR
STARTCHAR 1EC6
ENCODING 7878
SWIDTH 600 0
DWIDTH 18 0
BBX 13 34 3 -6
BITMAP
0F00
1F80
3DC0
70E0
2070
0000
0000
FFF8
FFF8
FFF8
E000
E000
E000
E000
E000
E000
FFF0
FFF0
FFF0
E000
E000
E000
E000
E000
E000
FFF8
FFF8
FFF8
0000
0000
0700
0F00
0F00
0700
ENDCHAR
STARTCHAR 1EC7
ENCODING 7879
SWIDTH 566 0
DWIDTH 17 0
BBX 14 30 1 -6
BITMAP
07C0
07C0
0EE0
1C70
3838
1010
0000
0000
0000
07C0
1FF0
3FF8
783C
701C
F01C
FFFC
FFFC
F000
F000
7010
7838
3FFC
1FF0
07E0
0000
0000
0380
0380
0380
0380
ENDCHAR
STARTCHAR 1EC8
ENCODING 7880
SWIDTH 400 0
DWIDTH 12 0
BBX 9 28 2 0
BITMAP
7E00
7E00
0600
0E00
0C00
1800
0000
FF80
FF80
FF80
1C00
1C00
1C00
1C00
1C00
1C00
1C00
1C00
1C00
1C00
1C00
1C00
1C00
1C00
1C00
FF80
FF80
FF80
ENDCHAR
STARTCHAR 1EC9
ENCODING 7881
SWIDTH 266 0
DWIDTH 8 0
BBX 6 22 1 0
BITMAP
FC
FC
1C
1C
38
10
00
78
78
78
78
78
78
78
78
78
78
78
78
78
78
78
ENDCHAR
STARTCHAR 1ECA
ENCODING 7882
SWIDTH 400 0
DWIDTH 12 0
BBX 9 27 2 -6
BITMAP
FF80
FF80
FF80
1C00
1C00
1C00
1C00
1C00
1C00
1C00
1C00
1C00
1C00
1C00
1C00
1C00
1C00
1C00
FF80
FF80
FF80
0000
0000
1C00
3C00
3C00
1C00
ENDCHAR
STARTCHAR 1ECB
ENCODING 7883
SWIDTH 266 0
DWIDTH 8 0
BBX 4 28 2 -6
BITMAP
E0
F0
F0
E0
00
00
00
F0
F0
F0
F0
F0
F0
F0
F0
F0
F0
F0
F0
F0
F0
F0
00
00
E0
F0
F0
60
ENDCHAR
STARTCHAR 1ECC
ENCODING 7884
SWIDTH 700 0
DWIDTH 21 0
BBX 18 27 2 -6
BITMAP
07F000
1FFC00
3FFE00
7C1F00
780F00
F00780
F00380
E00380
E003C0
E003C0
E003C0
E003C0
E003C0
E00380
F00380
F00780
780700
7C1F00
3FFE00
1FFC00
07F000
000000
000000
01C000
01E000
01E000
01C000
ENDCHAR
STARTCHAR 1ECD
ENCODING 7885
SWIDTH 566 0
DWIDTH 17 0
BBX 15 21 1 -6
BITMAP
07C0
1FF0
3FF8
783C
701C
F01C
F01E
F01E
F01E
F01C
701C
783C
3FF8
1FF0
07C0
0000
0000
0380
0380
0380
0380
ENDCHAR
STARTCHAR 1ECE
ENCODING 7886
SWIDTH 700 0
DWIDTH 21 0
BBX 18 28 2 0
BITMAP
03E000
03F000
007000
006000
00E000
004000
000000
07F000
1FFC00
3FFE00
7C1F00
780F00
F00780
F00380
E00380
E003C0
E003C0
E003C0
E003C0
E003C0
E00380
F00380
F00780
780700
7C1F00
3FFE00
1FFC00
07F000
ENDCHAR
STARTCHAR 1ECF
ENCODING 7887
SWIDTH 566 0
DWIDTH 17 0
BBX 15 22 1 0
BITMAP
0FC0
0FE0
00E0
01C0
01C0
0180
0000
07C0
1FF0
3FF8
783C
701C
F01C
F01E
F01E
F01E
F01C
701C
783C
3FF8
1FF0
07C0
ENDCHAR
STARTCHAR 1ED0
ENCODING 7888
SWIDTH 700 0
DWIDTH 21 0
BBX 18 32 2 0
BITMAP
000300
000380
000700
000E00
000E00
01EC00
03F000
077800
0E3C00
1C0800
000000
07F000
1FFC00
3FFE00
7C1F00
780F00
F00780
F00380
E00380
E003C0
E003C0
E003C0
E003C0
E003C0
E00380
F00380
F00780
780700
7C1F00
3FFE00
1FFC00
07F000
ENDCHAR
STARTCHAR 1ED1
ENCODING 7889
SWIDTH 566 0
DWIDTH 17 0
BBX 16 26 1 0
BITMAP
0006
000F
000E
001C
0018
07B8
0FC0
1EE0
3C70
1038
0000
07C0
1FF0
3FF8
783C
701C
F01C
F01E
F01E
F01E
F01C
701C
783C
3FF8
1FF0
07C0
ENDCHAR
STARTCHAR 1ED2
ENCODING 7890
SWIDTH 700 0
DWIDTH 21 0
BBX 18 32 2 0
BITMAP
600000
F00000
700000
380000
180000
1DE000
03F000
077800
0E3C00
1C0800
000000
07F000
1FFC00
3FFE00
7C1F00
780F00
F00780
F00380
E00380
E003C0
E003C0
E003C0
E003C0
E003C0
E00380
F00380
F00780
780700
7C1F00
3FFE00
1FFC00
07F000
ENDCHAR
STARTCHAR 1ED3
ENCODING 7891
SWIDTH 566 0
DWIDTH 17 0
BBX 16 26 0 0
BITMAP
6000
F000
7000
3800
3800
1BC0
07E0
0F70
1E38
081C
0000
03E0
0FF8
1FFC
3C1E
380E
780E
780F
780F
780F
780E
380E
3C1E
1FFC
0FF8
03E0
ENDCHAR
STARTCHAR 1ED4
ENCODING 7892
SWIDTH 700 0
DWIDTH 21 0
BBX 18 32 2 0
BITMAP
003E00
003F00
000700
000700
000E00
01E400
03F000
077800
0E3C00
1C0800
000000
07F000
1FFC00
3FFE00
7C1F00
780F00
F00780
F00380
E00380
E003C0
E003C0
E003C0
E003C0
E003C0
E00380
F00380
F00780
780700
7C1F00
3FFE00
1FFC00
07F000
ENDCHAR
STARTCHAR 1ED5
ENCODING 7893
SWIDTH 566 0
DWIDTH 17 0
BBX 15 26 1 0
BITMAP
007C
007E
000E
000C
001C
0798
0FC0
1EE0
3C70
1038
0000
07C0
1FF0
3FF8
783C
701C
F01C
F01E
F01E
F01E
F01C
701C
783C
3FF8
1FF0
07C0
ENDCHAR
STARTCHAR 1ED6
ENCODING 7894
SWIDTH 700 0
DWIDTH 21 0
BBX 18 31 2 0
BITMAP
078800
1FFC00
08F800
000000
01E000
03F000
077800
0E3C00
1C0800
000000
07F000
1FFC00
3FFE00
7C1F00
780F00
F00780
F00380
E00380
E003C0
E003C0
E003C0
E003C0
E003C0
E00380
F00380
F00780
780700
7C1F00
3FFE00
1FFC00
07F000
ENDCHAR
STARTCHAR 1ED7
ENCODING 7895
SWIDTH 566 0
DWIDTH 17 0
BBX 15 25 1 0
BITMAP
1F10
3FF8
11F0
0000
0780
0FC0
1EE0
3C70
1038
0000
07C0
1FF0
3FF8
783C
701C
F01C
F01E
F01E
F01E
F01C
701C
783C
3FF8
1FF0
07C0
ENDCHAR
STARTCHAR 1ED8
ENCODING 7896
SWIDTH 700 0
DWIDTH 21 0
BBX 18 34 2 -6
BITMAP
01E000
03F000
077800
0E3C00
1C0800
000000
000000
07F000
1FFC00
3FFE00
7C1F00
780F00
F00780
F00380
E00380
E003C0
E003C0
E003C0
E003C0
E003C0
E00380
F00380
F00780
780700
7C1F00
3FFE00
1FFC00
07F000
000000
000000
01C000
01E000
01E000
01C000
ENDCHAR
STARTCHAR 1ED9
ENCODING 7897
SWIDTH 566 0
DWIDTH 17 0
BBX 15 30 1 -6
BITMAP
07C0
07C0
0EE0
1C70
3838
1010
0000
0000
0000
07C0
1FF0
3FF8
783C
701C
F01C
F01E
F01E
F01E
F01C
701C
783C
3FF8
1FF0
07C0
0000
0000
0380
0380
0380
0380
ENDCHAR
STARTCHAR 1EDA
ENCODING 7898
SWIDTH 700 0
DWIDTH 21 0
BBX 18 28 2 0
BITMAP
007000
007800
00F000
00E000
01C1C0
0081C0
0001C0
07FFC0
1FFF80
3FFE00
7C1F00
780F80
F00780
F00380
E00380
E003C0
E003C0
E003C0
E003C0
E003C0
E00380
F00380
F00780
780700
7C1F00
3FFE00
1FFC00
07F000
ENDCHAR
STARTCHAR 1EDB
ENCODING 7899
SWIDTH 566 0
DWIDTH 17 0
BBX 15 23 1 0
BITMAP
00C0
01E0
01C0
03C0
0380
010E
000E
000E
07FE
1FFC
3FF8
783C
701C
F01C
F01E
F01E
F01E
F01C
701C
783C
3FF8
1FF0
07C0
ENDCHAR
STARTCHAR 1EDC
ENCODING 7900
SWIDTH 700 0
DWIDTH 21 0
BBX 18 28 2 0
BITMAP
030000
078000
038000
01C000
01C1C0
0081C0
0001C0
07FFC0
1FFF80
3FFE00
7C1F00
780F80
F00780
F00380
E00380
E003C0
E003C0
E003C0
E003C0
E003C0
E00380
F00380
F00780
780700
7C1F00
3FFE00
1FFC00
07F000
ENDCHAR
STARTCHAR 1EDD
ENCODING 7901
SWIDTH 566 0
DWIDTH 17 0
BBX 15 23 1 0
BITMAP
0600
0E00
0700
0700
0380
010E
000E
000E
07FE
1FFC
3FF8
783C
701C
F01C
F01E
F01E
F01E
F01C
701C
783C
3FF8
1FF0
07C0
ENDCHAR
STARTCHAR 1EDE
ENCODING 7902
SWIDTH 700 0
DWIDTH 21 0
BBX 18 28 2 0
BITMAP
03E000
03F000
007000
006000
00E1C0
0041C0
0001C0
07FFC0
1FFF80
3FFE00
7C1F00
780F80
F00780
F00380
E00380
E003C0
E003C0
E003C0
E003C0
E003C0
E00380
F00380
F00780
780700
7C1F00
3FFE00
1FFC00
07F000
ENDCHAR
STARTCHAR 1EDF
ENCODING 7903
SWIDTH 566 0
DWIDTH 17 0
BBX 15 22 1 0
BITMAP
0FC0
0FE0
00E0
01C0
01CE
018E
000E
07FE
1FFC
3FF8
783C
701C
F01C
F01E
F01E
F01E
F01C
701C
783C
3FF8
1FF0
07C0
ENDCHAR
STARTCHAR 1EE0
ENCODING 7904
SWIDTH 700 0
DWIDTH 21 0
BBX 18 26 2 0
BITMAP
078800
0FF800
0471C0
0001C0
0001C0
07FFC0
1FFF80
3FFE00
7C1F00
780F80
F00780
F00380
E00380
E003C0
E003C0
E003C0
E003C0
E003C0
E00380
F00380
F00780
780700
7C1F00
3FFE00
1FFC00
07F000
ENDCHAR
STARTCHAR 1EE1
ENCODING 7905
SWIDTH 566 0
DWIDTH 17 0
BBX 15 21 1 0
BITMAP
0F20
1FF0
11E0
000E
000E
000E
07FE
1FFC
3FF8
783C
701C
F01C
F01E
F01E
F01E
F01C
701C
783C
3FF8
1FF0
07C0
ENDCHAR
STARTCHAR 1EE2
ENCODING 7906
SWIDTH 700 0
DWIDTH 21 0
BBX 18 30 2 -6
BITMAP
0001C0
0001C0
0001C0
07FFC0
1FFF80
3FFE00
7C1F00
780F80
F00780
F00380
E00380
E003C0
E003C0
E003C0
E003C0
E003C0
E00380
F00380
F00780
780700
7C1F00
3FFE00
1FFC00
07F000
000000
000000
01C000
01E000
01E000
01C000
ENDCHAR
STARTCHAR 1EE3
ENCODING 7907
SWIDTH 566 0
DWIDTH 17 0
BBX 15 24 1 -6
BITMAP
000E
000E
000E
07FE
1FFC
3FF8
783C
701C
F01C
F01E
F01E
F01E
F01C
701C
783C
3FF8
1FF0
07C0
0000
0000
0380
0380
0380
0380
ENDCHAR
STARTCHAR 1EE4
ENCODING 7908
SWIDTH 700 0
DWIDTH 21 0
BBX 16 27 2 -6
BITMAP
F007
F007
F007
F007
F007
F007
F007
F007
F007
F007
F007
F007
F007
F007
7007
700F
780F
7C1E
3FFE
1FFC
07F0
0000
0000
01C0
03C0
03C0
01C0
ENDCHAR
STARTCHAR 1EE5
ENCODING 7909
SWIDTH 566 0
DWIDTH 17 0
BBX 13 21 2 -6
BITMAP
E038
E038
E038
E038
E038
E038
E038
E038
E038
F038
F038
F878
7FB8
7FB8
1F38
0000
0000
0700
0700
0780
0700
ENDCHAR
STARTCHAR 1EE6
ENCODING 7910
SWIDTH 700 0
DWIDTH 21 0
BBX 16 28 2 0
BITMAP
07E0
07E0
0060
00E0
00C0
01C0
0000
F007
F007
F007
F007
F007
F007
F007
F007
F007
F007
F007
F007
F007
F007
7007
700F
780F
7C1E
3FFE
1FFC
07F0
ENDCHAR
STARTCHAR 1EE7
ENCODING 7911
SWIDTH 566 0
DWIDTH 17 0
BBX 13 22 2 0
BITMAP
0F80
0FC0
01C0
0380
0380
0300
0000
E038
E038
E038
E038
E038
E038
E038
E038
E038
F038
F038
F878
7FB8
7FB8
1F38
ENDCHAR
STARTCHAR 1EE8
ENCODING 7912
SWIDTH 700 0
DWIDTH 21 0
BBX 18 28 2 0
BITMAP
006000
00F000
00E000
01C000
01C1C0
0081C0
0001C0
F007C0
F007C0
F00700
F00700
F00700
F00700
F00700
F00700
F00700
F00700
F00700
F00700
F00700
F00700
700700
700F00
780F00
7C1E00
3FFE00
1FFC00
07F000
ENDCHAR
STARTCHAR 1EE9
ENCODING 7913
SWIDTH 566 0
DWIDTH 17 0
BBX 15 23 2 0
BITMAP
01C0
01E0
0380
0380
0700
020E
000E
000E
E03E
E03E
E038
E038
E038
E038
E038
E038
E038
F038
F038
F878
7FB8
7FB8
1F38
ENDCHAR
STARTCHAR 1EEA
ENCODING 7914
SWIDTH 700 0
DWIDTH 21 0
BBX 18 28 2 0
BITMAP
070000
0F0000
078000
038000
01C1C0
0081C0
0001C0
F007C0
F007C0
F00700
F00700
F00700
F00700
F00700
F00700
F00700
F00700
F00700
F00700
F00700
F00700
700700
700F00
780F00
7C1E00
3FFE00
1FFC00
07F000
ENDCHAR
STARTCHAR 1EEB
ENCODING 7915
SWIDTH 566 0
DWIDTH 17 0
BBX 15 23 2 0
BITMAP
0C00
1E00
0E00
0700
0700
020E
000E
000E
E03E
E03E
E038
E038
E038
E038
E038
E038
E038
F038
F038
F878
7FB8
7FB8
1F38
ENDCHAR
STARTCHAR 1EEC
ENCODING 7916
SWIDTH 700 0
DWIDTH 21 0
BBX 18 28 2 0
BITMAP
07E000
07E000
006000
00E000
00C1C0
01C1C0
0001C0
F007C0
F007C0
F00700
F00700
F00700
F00700
F00700
F00700
F00700
F00700
F00700
F00700
F00700
F00700
700700
700F00
780F00
7C1E00
3FFE00
1FFC00
07F000
ENDCHAR
STARTCHAR 1EED
ENCODING 7917
SWIDTH 566 0
DWIDTH 17 0
BBX 15 22 2 0
BITMAP
0F80
0FC0
01C0
0380
038E
030E
000E
E03E
E03E
E038
E038
E038
E038
E038
E038
E038
F038
F038
F878
7FB8
7FB8
1F38
ENDCHAR
STARTCHAR 1EEE
ENCODING 7918
SWIDTH 700 0
DWIDTH 21 0
BBX 18 26 2 0
BITMAP
0F1000
1FF800
08F1C0
0001C0
0001C0
F007C0
F007C0
F00700
F00700
F00700
F00700
F00700
F00700
F00700
F00700
F00700
F00700
F00700
F00700
700700
700F00
780F00
7C1E00
3FFE00
1FFC00
07F000
ENDCHAR
STARTCHAR 1EEF
ENCODING 7919
SWIDTH 566 0
DWIDTH 17 0
BBX 15 21 2 0
BITMAP
1E20
3FF0
11C0
000E
000E
000E
E03E
E03E
E038
E038
E038
E038
E038
E038
E038
F038
F038
F878
7FB8
7FB8
1F38
ENDCHAR
STARTCHAR 1EF0
ENCODING 7920
SWIDTH 700 0
DWIDTH 21 0
BBX 18 30 2 -6
BITMAP
0001C0
0001C0
0001C0
F007C0
F007C0
F00700
F00700
F00700
F00700
F00700
F00700
F00700
F00700
F00700
F00700
F00700
F00700
700700
700F00
780F00
7C1E00
3FFE00
1FFC00
07F000
000000
000000
01C000
03C000
03C000
01C000
ENDCHAR
STARTCHAR 1EF1
ENCODING 7921
SWIDTH 566 0
DWIDTH 17 0
BBX 15 24 2 -6
BITMAP
000E
000E
000E
E03E
E03E
E038
E038
E038
E038
E038
E038
E038
F038
F038
F878
7FB8
7FB8
1F38
0000
0000
0700
0700
0700
0700
ENDCHAR
STARTCHAR 1EF2
ENCODING 7922
SWIDTH 633 0
DWIDTH 19 0
BBX 18 28 0 0
BITMAP
038000
078000
03C000
01C000
00E000
004000
000000
F003C0
780380
3C0780
3C0F00
1E0F00
0E1E00
0F1C00
073C00
07B800
03F800
03F000
01E000
00E000
00E000
00E000
00E000
00E000
00E000
00E000
00E000
00E000
ENDCHAR
STARTCHAR 1EF3
ENCODING 7923
SWIDTH 500 0
DWIDTH 15 0
BBX 15 29 0 -6
BITMAP
0600
0F00
0700
0380
0380
0140
0000
0000
F00E
701E
781C
381C
3838
3C38
1C38
1C70
1E70
0EF0
0EE0
07E0
07E0
07C0
03C0
0380
0380
0780
3F00
3F00
3E00
ENDCHAR
STARTCHAR 1EF4
ENCODING 7924
SWIDTH 633 0
DWIDTH 19 0
BBX 18 27 0 -6
BITMAP
F003C0
780380
3C0780
3C0F00
1E0F00
0E1E00
0F1C00
073C00
07B800
03F800
03F000
01E000
00E000
00E000
00E000
00E000
00E000
00E000
00E000
00E000
00E000
000000
000000
00E000
01E000
01E000
00E000
ENDCHAR
STARTCHAR 1EF5
ENCODING 7925
SWIDTH 500 0
DWIDTH 15 0
BBX 15 21 0 -6
BITMAP
F00E
701E
781C
381C
3838
3C38
1C38
1C70
1E70
0EF0
0EE0
07E0
07E0
07C0
03C0
0380
0380
079C
3F3C
3F3C
3E1C
ENDCHAR
STARTCHAR 1EF6
ENCODING 7926
SWIDTH 633 0
DWIDTH 19 0
BBX 18 28 0 0
BITMAP
03F000
03F000
003000
007000
006000
00E000
000000
F003C0
780380
3C0780
3C0F00
1E0F00
0E1E00
0F1C00
073C00
07B800
03F800
03F000
01E000
00E000
00E000
00E000
00E000
00E000
00E000
00E000
00E000
00E000
ENDCHAR
STARTCHAR 1EF7
ENCODING 7927
SWIDTH 500 0
DWIDTH 15 0
BBX 15 28 0 -6
BITMAP
07C0
07E0
00E0
00C0
01C0
0080
0000
F00E
701E
781C
381C
3838
3C38
1C38
1C70
1E70
0EF0
0EE0
07E0
07E0
07C0
03C0
0380
0380
0780
3F00
3F00
3E00
ENDCHAR
STARTCHAR 1EF8
ENCODING 7928
SWIDTH 633 0
DWIDTH 19 0
BBX 18 26 0 0
BITMAP
078400
0FFE00
047800
000000
000000
F003C0
780380
3C0780
3C0F00
1E0F00
0E1E00
0F1C00
073C00
07B800
03F800
03F000
01E000
00E000
00E000
00E000
00E000
00E000
00E000
00E000
00E000
00E000
ENDCHAR
STARTCHAR 1EF9
ENCODING 7929
SWIDTH 500 0
DWIDTH 15 0
BBX 15 27 0 -6
BITMAP
0F10
1FF8
30F0
0000
0000
0000
F00E
701E
781C
381C
3838
3C38
1C38
1C70
1E70
0EF0
0EE0
07E0
07E0
07C0
03C0
0380
0380
0780
3F00
3F00
3E00
ENDCHAR
STARTCHAR 2013
ENCODING 8211
SWIDTH 600 0
DWIDTH 18 0
BBX 16 3 1 8
BITMAP
FFFF
FFFF
FFFF
ENDCHAR
STARTCHAR 2014
ENCODING 8212
SWIDTH 766 0
DWIDTH 23 0
BBX 21 3 1 8
BITMAP
FFFFF8
FFFFF8
FFFFF8
ENDCHAR
STARTCHAR 2018
ENCODING 8216
SWIDTH 300 0
DWIDTH 9 0
BBX 5 8 2 14
BITMAP
38
30
60
E0
F0
F0
F0
70
ENDCHAR
STARTCHAR 2019
ENCODING 8217
SWIDTH 300 0
DWIDTH 9 0
BBX 6 8 1 14
BITMAP
38
78
7C
38
18
38
70
E0
ENDCHAR
STARTCHAR 201A
ENCODING 8218
SWIDTH 300 0
DWIDTH 9 0
BBX 5 8 1 -3
BITMAP
38
78
78
38
38
30
70
E0
ENDCHAR
STARTCHAR 201C
ENCODING 8220
SWIDTH 500 0
DWIDTH 15 0
BBX 12 8 2 14
BITMAP
3870
30E0
61C0
E180
F1C0
F1E0
F1E0
71C0
ENDCHAR
STARTCHAR 201D
ENCODING 8221
SWIDTH 500 0
DWIDTH 15 0
BBX 12 8 1 14
BITMAP
38E0
78F0
7CF0
38F0
1870
3860
70C0
E1C0
ENDCHAR
STARTCHAR 201E
ENCODING 8222
SWIDTH 500 0
DWIDTH 15 0
BBX 12 8 1 -3
BITMAP
38E0
78F0
78F0
38F0
3860
30E0
70C0
E180
ENDCHAR
STARTCHAR 2020
ENCODING 8224
SWIDTH 533 0
DWIDTH 16 0
BBX 14 28 1 -6
BITMAP
0380
0380
0380
0380
0380
0380
0380
FFFC
FFFC
0380
0380
0380
0380
0380
0380
0380
0380
0380
0380
0380
0380
0380
0380
0380
0380
0380
0380
0380
ENDCHAR
STARTCHAR 2021
ENCODING 8225
SWIDTH 533 0
DWIDTH 16 0
BBX 14 28 1 -6
BITMAP
0380
0380
0380
0380
0380
0380
0380
FFFC
FFFC
0380
0380
0380
0380
0380
0380
0380
0380
0380
0380
FFFC
FFFC
0380
0380
0380
0380
0380
0380
0380
ENDCHAR
STARTCHAR 2022
ENCODING 8226
SWIDTH 400 0
DWIDTH 12 0
BBX 8 8 2 5
BITMAP
3E
7F
FF
FF
FF
FF
7F
3E
ENDCHAR
STARTCHAR 2026
ENCODING 8230
SWIDTH 833 0
DWIDTH 25 0
BBX 21 5 2 0
BITMAP
707038
F07878
F8F878
F07878
707030
ENDCHAR
STARTCHAR 2030
ENCODING 8240
SWIDTH 1333 0
DWIDTH 40 0
BBX 36 21 2 0
BITMAP
3E00380000
7F00700000
E380E00000
E180E00000
E1C1C00000
E1C3800000
E1C7800000
E1C7000000
E1CE000000
E39C7C07C0
7F1CFE0FE0
3E39C71C70
0071C31870
0071C3B870
00E1C3B830
01C1C3B830
01C1C3B870
0381C31C70
0701C71C70
0F00FE0FE0
1E007C07C0
ENDCHAR
STARTCHAR 2032
ENCODING 8242
SWIDTH 266 0
DWIDTH 8 0
BBX 5 10 1 11
BITMAP
38
38
38
38
70
70
70
70
70
F0
ENDCHAR
STARTCHAR 2033
ENCODING 8243
SWIDTH 466 0
DWIDTH 14 0
BBX 11 10 1 11
BITMAP
38E0
38E0
38E0
39E0
71C0
71C0
71C0
71C0
71C0
F380
ENDCHAR
STARTCHAR 2039
ENCODING 8249
SWIDTH 300 0
DWIDTH 9 0
BBX 7 13 1 2
BITMAP
04
0C
1E
38
78
F0
E0
F0
78
3C
1E
0C
04
ENDCHAR
STARTCHAR 203A
ENCODING 8250
SWIDTH 300 0
DWIDTH 9 0
BBX 6 13 2 2
BITMAP
80
C0
E0
78
3C
1C
1C
3C
78
70
E0
C0
80
ENDCHAR
STARTCHAR 2044
ENCODING 8260
SWIDTH 166 0
DWIDTH 5 0
BBX 18 21 -7 0
BITMAP
0001C0
000380
000300
000700
000E00
000C00
001800
003800
007000
006000
00E000
01C000
038000
030000
070000
0E0000
0C0000
1C0000
380000
700000
E00000
ENDCHAR
STARTCHAR 2070
ENCODING 8304
SWIDTH 366 0
DWIDTH 11 0
BBX 9 11 1 10
BITMAP
3E00
7F00
6380
E380
E180
E180
E180
E380
6380
7F00
3E00
ENDCHAR
STARTCHAR 2074
ENCODING 8308
SWIDTH 333 0
DWIDTH 10 0
BBX 9 11 1 10
BITMAP
0E00
1E00
1E00
3600
6600
6600
C600
FF80
FF80
0600
0600
ENDCHAR
STARTCHAR 2075
ENCODING 8309
SWIDTH 366 0
DWIDTH 11 0
BBX 9 11 1 10
BITMAP
7F00
7F00
6000
4000
DE00
DF00
6380
0380
4300
FF00
3E00
ENDCHAR
STARTCHAR 2076
ENCODING 8310
SWIDTH 366 0
DWIDTH 11 0
BBX 9 11 1 10
BITMAP
0F00
3C00
7000
7000
EE00
FF00
E380
C380
E380
7F00
3E00
ENDCHAR
STARTCHAR 2077
ENCODING 8311
SWIDTH 333 0
DWIDTH 10 0
BBX 8 11 1 10
BITMAP
FF
FF
C3
C6
06
0E
0C
1C
18
38
30
ENDCHAR
STARTCHAR 2078
ENCODING 8312
SWIDTH 366 0
DWIDTH 11 0
BBX 9 11 1 10
BITMAP
3E00
7F00
E380
6300
3E00
7F00
E380
E380
E380
7F00
3E00
ENDCHAR
STARTCHAR 2079
ENCODING 8313
SWIDTH 366 0
DWIDTH 11 0
BBX 9 11 1 10
BITMAP
3E00
7F00
E300
C380
E380
FF80
7B00
0700
0E00
1C00
7800
ENDCHAR
STARTCHAR 2080
ENCODING 8320
SWIDTH 366 0
DWIDTH 11 0
BBX 9 11 1 0
BITMAP
3E00
7F00
6380
E380
E180
E180
E180
E380
6380
7F00
3E00
ENDCHAR
STARTCHAR 2081
ENCODING 8321
SWIDTH 366 0
DWIDTH 11 0
BBX 9 11 1 0
BITMAP
3C00
7C00
EC00
CC00
8C00
0C00
0C00
0C00
0C00
7F80
7F80
ENDCHAR
STARTCHAR 2082
ENCODING 8322
SWIDTH 333 0
DWIDTH 10 0
BBX 8 11 1 0
BITMAP
3E
7F
E7
43
07
0E
1C
38
60
FF
FF
ENDCHAR
STARTCHAR 2083
ENCODING 8323
SWIDTH 333 0
DWIDTH 10 0
BBX 9 11 0 0
BITMAP
1F00
7F80
6380
0380
1F00
1F00
0380
4180
6380
FF80
3E00
ENDCHAR
STARTCHAR 2084
ENCODING 8324
SWIDTH 333 0
DWIDTH 10 0
BBX 9 11 1 0
BITMAP
0E00
1E00
1E00
3600
6600
6600
C600
FF80
FF80
0600
0600
ENDCHAR
STARTCHAR 2085
ENCODING 8325
SWIDTH 366 0
DWIDTH 11 0
BBX 9 11 1 0
BITMAP
7F00
7F00
6000
4000
DE00
DF00
6380
0380
4300
FF00
3E00
ENDCHAR
STARTCHAR 2086
ENCODING 8326
SWIDTH 366 0
DWIDTH 11 0
BBX 9 11 1 0
BITMAP
0F00
3C00
7000
7000
EE00
FF00
E380
C380
E380
7F00
3E00
ENDCHAR
STARTCHAR 2087
ENCODING 8327
SWIDTH 333 0
DWIDTH 10 0
BBX 8 11 1 0
BITMAP
FF
FF
C3
C6
06
0E
0C
1C
18
38
30
ENDCHAR
STARTCHAR 2088
ENCODING 8328
SWIDTH 366 0
DWIDTH 11 0
BBX 9 11 1 0
BITMAP
3E00
7F00
E380
6300
3E00
7F00
E380
E380
E380
7F00
3E00
ENDCHAR
STARTCHAR 2089
ENCODING 8329
SWIDTH 366 0
DWIDTH 11 0
BBX 9 11 1 0
BITMAP
3E00
7F00
E300
C380
E380
FF80
7B00
0700
0E00
1C00
7800
ENDCHAR
STARTCHAR 20A1
ENCODING 8353
SWIDTH 633 0
DWIDTH 19 0
BBX 16 25 2 -2
BITMAP
03B0
0330
0330
07F0
1FF8
3FFC
7B7E
736E
F368
E360
E660
E660
E660
E660
E6C0
E6C0
F6C4
76CE
7CDF
3FFC
1FF8
0FE0
0CC0
0D80
0D80
ENDCHAR
STARTCHAR 20A4
ENCODING 8356
SWIDTH 600 0
DWIDTH 18 0
BBX 16 21 1 0
BITMAP
03F0
0FFC
1FFE
3E1F
3C0C
3800
3800
3800
FFF0
FFF0
1C00
1C00
FFF0
FFF0
1E00
1C00
1C00
7800
7FFE
7FFE
7FFE
ENDCHAR
STARTCHAR 20A6
ENCODING 8358
SWIDTH 733 0
DWIDTH 22 0
BBX 21 21 0 0
BITMAP
1E00E0
1F00E0
1F00E0
1F80E0
1F80E0
1D80E0
1DC0E0
1CC0E0
FCFFF8
FC7FF8
1C70E0
1C38E0
FFF8F8
FFFCF8
1C1CE0
1C0EE0
1C0FE0
1C07E0
1C03E0
1C03E0
1C01E0
ENDCHAR
STARTCHAR 20A8
ENCODING 8360
SWIDTH 800 0
DWIDTH 24 0
BBX 20 21 3 0
BITMAP
FF0000
FFC000
FFE000
E1E000
E0E000
E0E000
E0E3E0
E0E7F0
E1EFE0
FFCE20
FFCE00
FF8F00
E38780
E3C3C0
E1C1E0
E1E0E0
E0F0F0
E0F8F0
E07FE0
E07FE0
E01F80
ENDCHAR
STARTCHAR 20A9
ENCODING 8361
SWIDTH 966 0
DWIDTH 29 0
BBX 27 21 1 0
BITMAP
700F01E0
701F01E0
701F01C0
781F01C0
381B81C0
383B83C0
383B8380
FFF9FFE0
FFF1FFE0
1C71C780
1C70C700
FC7FC7E0
FE7FE7E0
0E60E600
0EE06E00
0EE06E00
06C07E00
07C07E00
07C07C00
07C03C00
07803C00
ENDCHAR
STARTCHAR 20AA
ENCODING 8362
SWIDTH 833 0
DWIDTH 25 0
BBX 19 21 3 0
BITMAP
FFE0E0
FFF0E0
FFF8E0
E038E0
E03CE0
E71CE0
E71CE0
E71CE0
E71CE0
E71CE0
E71CE0
E71CE0
E71CE0
E71CE0
E71CE0
E71CE0
E700E0
E701E0
E7FFE0
E7FFC0
E7FF00
ENDCHAR
STARTCHAR 20AB
ENCODING 8363
SWIDTH 566 0
DWIDTH 17 0
BBX 14 22 2 0
BITMAP
0070
0070
07FC
07FC
0070
0070
3E70
7F70
FFF0
F0F0
E070
E070
E070
F0F0
FFF0
7F70
3E70
0000
0000
FFF8
FFF8
FFF8
ENDCHAR
STARTCHAR 20AC
ENCODING 8364
SWIDTH 633 0
DWIDTH 19 0
BBX 16 21 2 0
BITMAP
07F0
1FF8
3FFC
7C1E
780E
F008
F000
FFE0
FFE0
E000
E000
FFE0
FFE0
E000
F008
F006
780F
7C1E
3FFC
1FF8
07E0
ENDCHAR
STARTCHAR 20AD
ENCODING 8365
SWIDTH 633 0
DWIDTH 19 0
BBX 19 21 0 0
BITMAP
1C03C0
1C0780
1C0700
1C0F00
1C1E00
1C3C00
1C3800
1C7800
1CF000
FFFFC0
FFFFC0
FFFFC0
1CF000
1C7800
1C3C00
1C1E00
1C1E00
1C0F00
1C0780
1C03C0
1C03E0
ENDCHAR
STARTCHAR 20AE
ENCODING 8366
SWIDTH 600 0
DWIDTH 18 0
BBX 16 21 1 0
BITMAP
FFFF
FFFF
FFFF
03C0
03C0
03C0
03CC
03FC
03F8
03E0
0FC4
1FDC
13FC
03F0
07C0
1FC0
1FC0
13C0
03C0
03C0
03C0
ENDCHAR
STARTCHAR 20B1
ENCODING 8369
SWIDTH 666 0
DWIDTH 20 0
BBX 18 21 1 0
BITMAP
3FF000
3FFC00
3FFC00
3C1E00
3C0E00
FFFFC0
FFFFC0
3C0F00
3C0F00
FFFFC0
FFFFC0
3C0E00
3C1E00
3FFC00
3FFC00
3FF000
3C0000
3C0000
3C0000
3C0000
3C0000
ENDCHAR
STARTCHAR 20B2
ENCODING 8370
SWIDTH 666 0
DWIDTH 20 0
BBX 16 25 2 -2
BITMAP
0070
0060
0060
07E0
1FF8
3FFC
7CDE
70CF
F0C6
E1C0
E1C0
E180
E1FF
E1FF
E3FF
E387
F307
7307
7F1E
3FFE
1FFC
07F0
0600
0600
0E00
ENDCHAR
STARTCHAR 20B4
ENCODING 8372
SWIDTH 633 0
DWIDTH 19 0
BBX 17 21 1 0
BITMAP
03E000
0FF800
1FFC00
3C3C00
081E00
000E00
001E00
FFFF80
FFFF80
01F000
07C000
FFFF80
FFFF80
3C0000
380000
380000
3C0400
1E1E00
1FFE00
0FFC00
03F000
ENDCHAR
STARTCHAR 20B5
ENCODING 8373
SWIDTH 633 0
DWIDTH 19 0
BBX 15 25 2 -2
BITMAP
0070
0060
0060
07E0
1FF8
3FFC
7CDE
70CE
F0C4
E1C0
E1C0
E180
E180
E180
E380
E300
F304
730E
7F1E
3FFC
1FF8
07E0
0600
0600
0E00
ENDCHAR
STARTCHAR 20B8
ENCODING 8376
SWIDTH 600 0
DWIDTH 18 0
BBX 16 21 1 0
BITMAP
FFFF
FFFF
FFFF
0000
0000
0000
FFFF
FFFF
FFFF
03C0
03C0
03C0
03C0
03C0
03C0
03C0
03C0
03C0
03C0
03C0
03C0
ENDCHAR
STARTCHAR 20B9
ENCODING 8377
SWIDTH 600 0
DWIDTH 18 0
BBX 15 21 2 0
BITMAP
FFFE
FFFE
FFFE
00E0
00F0
0070
FFFE
FFFE
0070
00F0
00E0
FFE0
FFC0
FF00
0F00
0780
0780
03C0
01E0
00F0
0078
ENDCHAR
STARTCHAR 20BA
ENCODING 8378
SWIDTH 600 0
DWIDTH 18 0
BBX 17 21 0 0
BITMAP
1E0000
1E0000
1E1000
1E3000
1EF000
1FE000
1F8000
3E1000
FE3000
DEF000
1FC000
1F0000
7E0380
FE0380
DE0380
1E0780
1E0700
1E1F00
1FFE00
1FFC00
1FF000
ENDCHAR
STARTCHAR 20BD
ENCODING 8381
SWIDTH 633 0
DWIDTH 19 0
BBX 17 21 1 0
BITMAP
3FFC00
3FFE00
3FFF00
3C0F80
3C0780
3C0780
3C0780
3C0780
3C0780
3C0F80
FFFF00
FFFE00
FFFC00
3C0000
3C0000
FFF800
FFF800
3C0000
3C0000
3C0000
3C0000
ENDCHAR
STARTCHAR 20BF
ENCODING 8383
SWIDTH 666 0
DWIDTH 20 0
BBX 15 25 3 -2
BITMAP
19C0
19C0
19C0
FFF0
FFF8
FFFC
E03C
E01C
E01C
E01C
E03C
FFF0
FFF0
FFFC
E01E
E01E
E00E
E01E
E01E
FFFC
FFF8
FFF0
19C0
19C0
19C0
ENDCHAR
STARTCHAR 2113
ENCODING 8467
SWIDTH 500 0
DWIDTH 15 0
BBX 14 22 1 0
BITMAP
07C0
0FE0
1FE0
1CF0
1C70
1C70
1C70
1C70
1CE0
1CE0
1DC0
1F80
1F80
1F00
7E00
FC00
FC10
5C3C
1C78
1FF0
0FF0
07C0
ENDCHAR
STARTCHAR 2116
ENCODING 8470
SWIDTH 1033 0
DWIDTH 31 0
BBX 27 21 3 0
BITMAP
F00E0F00
F00E3FC0
F80E38C0
F80E70E0
FC0E70E0
FC0E70E0
EE0E70E0
EE0E38C0
EF0E3FC0
E70E0F00
E38E0000
E38E0000
E1CE3FE0
E1CE3FE0
E0EE0000
E0EE0000
E07E0000
E07E0000
E03E0000
E03E0000
E01E0000
ENDCHAR
STARTCHAR 2122
ENCODING 8482
SWIDTH 633 0
DWIDTH 19 0
BBX 16 8 1 13
BITMAP
FEC7
30E7
30EF
30BF
30BB
309B
3093
3083
ENDCHAR
STARTCHAR 2126
ENCODING 8486
SWIDTH 733 0
DWIDTH 22 0
BBX 18 21 2 0
BITMAP
03F000
0FFC00
3FFE00
3C1F00
780780
F00780
F00380
E003C0
E003C0
E003C0
E003C0
E003C0
F00380
F00780
780780
3C0F00
1E1E00
0E1C00
FE1FC0
FE1FC0
FE1FC0
ENDCHAR
STARTCHAR 212E
ENCODING 8494
SWIDTH 733 0
DWIDTH 22 0
BBX 20 21 1 0
BITMAP
01F800
0FFE00
1E0700
380180
3801C0
7801C0
7801E0
F801E0
F801E0
FFFFF0
FFFFF0
F80000
F80000
F80000
780000
780040
7800E0
3801C0
1E0780
0FFE00
03F800
ENDCHAR
STARTCHAR 2150
ENCODING 8528
SWIDTH 866 0
DWIDTH 26 0
BBX 24 21 1 0
BITMAP
3C0038
7C0070
EC0060
CC00E0
8C01C0
0C0180
0C0380
0C0700
0C0E00
7F8C00
7F9CFF
0038FF
0030C7
0070C6
00E006
01C00E
01800C
03801C
070018
0E0038
1C0030
ENDCHAR
STARTCHAR 2151
ENCODING 8529
SWIDTH 866 0
DWIDTH 26 0
BBX 24 21 1 0
BITMAP
3C0038
7C0070
EC0060
CC00E0
8C01C0
0C0180
0C0380
0C0700
0C0E00
7F8C00
7F9C3C
0038FE
0030C7
0070C3
00E0C7
01C0FF
01807F
038006
07000E
0E001C
1C0078
ENDCHAR
STARTCHAR 2153
ENCODING 8531
SWIDTH 866 0
DWIDTH 26 0
BBX 24 21 1 0
BITMAP
3C0038
7C0070
EC0060
CC00E0
8C01C0
0C0180
0C0380
0C0700
0C0E00
7F8C00
7F9C7C
0038FF
0030C7
007007
00E03E
01C03E
018007
038083
0700C7
0E01FE
1C007C
ENDCHAR
STARTCHAR 2154
ENCODING 8532
SWIDTH 833 0
DWIDTH 25 0
BBX 23 21 1 0
BITMAP
3E0038
7F0060
E700E0
4301C0
070180
0E0380
1C0700
380E00
600C00
FF1C00
FF38F8
0031FE
00718E
00E00E
01C07C
01807C
03800E
070106
06018E
0E03FE
1C00F8
ENDCHAR
STARTCHAR 2155
ENCODING 8533
SWIDTH 866 0
DWIDTH 26 0
BBX 24 21 1 0
BITMAP
3C0038
7C0070
EC0060
CC00E0
8C01C0
0C0180
0C0380
0C0700
0C0E00
7F8C00
7F9CFF
0038FF
0030C0
0070C0
00E0DE
01C0FF
018047
038003
0700C7
0E00FF
1C007C
ENDCHAR
STARTCHAR 2156
ENCODING 8534
SWIDTH 833 0
DWIDTH 25 0
BBX 24 21 1 0
BITMAP
3E0038
7F0060
E700E0
4301C0
070180
0E0380
1C0700
380E00
600C00
FF1C00
FF38FE
0030FE
007180
00E180
01C1BC
0181FE
038086
070007
060186
0E01FE
1C00F8
ENDCHAR
STARTCHAR 2157
ENCODING 8535
SWIDTH 866 0
DWIDTH 26 0
BBX 25 21 0 0
BITMAP
1F001C00
7F803800
63807000
0380E000
1F00C000
1F01C000
03838000
41830000
63870000
FF8E0000
3E1C7F00
00187F00
00386000
00706000
00605E00
00E0DF00
01C06380
03800380
03006380
0700FF00
0E003E00
ENDCHAR
STARTCHAR 2158
ENCODING 8536
SWIDTH 866 0
DWIDTH 26 0
BBX 24 21 1 0
BITMAP
0E0038
1E0070
1E00E0
3600C0
6601C0
660380
C60300
FF8600
FF8E00
061C00
0618FE
0038FE
0070C0
00E0C0
00C0DC
01C0FE
0380C7
030007
0700C7
0E01FE
1C007C
ENDCHAR
STARTCHAR 2159
ENCODING 8537
SWIDTH 866 0
DWIDTH 26 0
BBX 24 21 1 0
BITMAP
3C0038
7C0070
EC0060
CC00E0
8C01C0
0C0180
0C0380
0C0700
0C0E00
7F8C00
7F9C3C
003870
0030E0
0070C0
00E1FC
01C1BE
0181C7
038187
0701C6
0E00FE
1C007C
ENDCHAR
STARTCHAR 215A
ENCODING 8538
SWIDTH 833 0
DWIDTH 25 0
BBX 23 21 1 0
BITMAP
7F0038
7F0070
6000E0
4000C0
DE01C0
DF0380
638300
038600
430E00
FF1C00
3E183C
003870
0070E0
00E1C0
00C1BC
01C1FE
03838E
030386
07018E
0E01FE
1C00F8
ENDCHAR
STARTCHAR 215B
ENCODING 8539
SWIDTH 900 0
DWIDTH 27 0
BBX 25 21 1 0
BITMAP
3C003800
7C007000
EC006000
CC00E000
8C01C000
0C018000
0C038000
0C070000
0C0E0000
7F8C0000
7F9C7E00
0038FF00
0030C300
0070C300
00E07E00
01C07E00
0180E300
0380C380
0700E300
0E00FF00
1C007E00
ENDCHAR
STARTCHAR 215C
ENCODING 8540
SWIDTH 866 0
DWIDTH 26 0
BBX 25 21 0 0
BITMAP
1F001C00
7F803800
63807000
0380E000
1F00C000
1F01C000
03838000
41830000
63870000
FF8E0000
3E1C3E00
00187F00
0038E380
00706300
00603E00
00E07F00
01C0E380
0380E380
0300E380
07007F00
0E003E00
ENDCHAR
STARTCHAR 215D
ENCODING 8541
SWIDTH 866 0
DWIDTH 26 0
BBX 24 21 1 0
BITMAP
7F0038
7F0070
6000E0
4000C0
DE01C0
DF0380
638300
038600
430E00
FF1C00
3E187C
0038FF
0070C7
00E0C7
00C07E
01C0FE
0380C7
0301C3
0701C7
0E00FF
1C007C
ENDCHAR
STARTCHAR 215E
ENCODING 8542
SWIDTH 833 0
DWIDTH 25 0
BBX 23 21 1 0
BITMAP
FF0070
FF00E0
C301C0
C60180
060300
0E0700
0C0E00
1C0C00
181C00
383800
3070F8
0061FC
00E18E
01C18C
0180F8
0381FC
07038E
0E038E
0C038E
1C01FC
3800F8
ENDCHAR
STARTCHAR 2190
ENCODING 8592
SWIDTH 866 0
DWIDTH 26 0
BBX 21 13 2 4
BITMAP
030000
078000
0F0000
1E0000
3C0000
7FFFF8
FFFFF8
7FFFF8
3C0000
1E0000
0F0000
078000
030000
ENDCHAR
STARTCHAR 2191
ENCODING 8593
SWIDTH 866 0
DWIDTH 26 0
BBX 13 21 6 0
BITMAP
0200
0700
0F80
1FC0
3FE0
7B70
F738
6710
0700
0700
0700
0700
0700
0700
0700
0700
0700
0700
0700
0700
0700
ENDCHAR
STARTCHAR 2192
ENCODING 8594
SWIDTH 866 0
DWIDTH 26 0
BBX 21 13 2 4
BITMAP
000300
000780
0003C0
0001E0
0000F0
FFFFF0
FFFFF8
FFFFF0
0000F0
0001E0
0003C0
000780
000300
ENDCHAR
STARTCHAR 2193
ENCODING 8595
SWIDTH 866 0
DWIDTH 26 0
BBX 13 21 6 0
BITMAP
0700
0700
0700
0700
0700
0700
0700
0700
0700
0700
0700
0700
0700
6710
F338
7B70
3FE0
1FC0
0F80
0700
0200
ENDCHAR
STARTCHAR 2194
ENCODING 8596
SWIDTH 866 0
DWIDTH 26 0
BBX 22 13 2 4
BITMAP
020300
070780
0F03C0
1E01E0
3800F0
7FFFF8
FFFFFC
7FFFF8
3800F0
1E01E0
0F03C0
070780
020300
ENDCHAR
STARTCHAR 2195
ENCODING 8597
SWIDTH 866 0
DWIDTH 26 0
BBX 13 21 6 0
BITMAP
0200
0700
0F80
1FC0
3FE0
7B70
F738
6710
0700
0700
0700
0700
0700
6710
F338
7B70
3FE0
1FC0
0F80
0700
0200
ENDCHAR
STARTCHAR 2196
ENCODING 8598
SWIDTH 866 0
DWIDTH 26 0
BBX 16 16 5 3
BITMAP
FFC0
FFC0
FFC0
F800
FC00
EE00
E700
E380
E1C0
E0E0
0070
0038
001C
000E
0007
0002
ENDCHAR
STARTCHAR 2197
ENCODING 8599
SWIDTH 866 0
DWIDTH 26 0
BBX 16 16 4 3
BITMAP
01FF
01FF
01FF
001F
003F
007B
00F3
01E3
03C3
0783
0F00
1E00
3C00
7800
F000
6000
ENDCHAR
STARTCHAR 2198
ENCODING 8600
SWIDTH 866 0
DWIDTH 26 0
BBX 16 16 4 3
BITMAP
6000
F000
7800
3C00
1E00
0F00
0783
03C3
01E3
00F3
007B
003F
001F
01FF
01FF
01FF
ENDCHAR
STARTCHAR 2199
ENCODING 8601
SWIDTH 866 0
DWIDTH 26 0
BBX 16 16 5 3
BITMAP
0002
0007
000E
001C
0038
0070
E0E0
E1C0
E380
E700
EE00
FC00
F800
FFC0
FFC0
FFC0
ENDCHAR
STARTCHAR 21A9
ENCODING 8617
SWIDTH 866 0
DWIDTH 26 0
BBX 21 17 2 2
BITMAP
0001C0
0001F0
000070
000038
030038
078038
0F0038
1E0038
3C0078
7FFFF0
FFFFF0
7FFFC0
3C0000
1E0000
0F0000
078000
030000
ENDCHAR
STARTCHAR 21AA
ENCODING 8618
SWIDTH 866 0
DWIDTH 26 0
BBX 21 17 2 2
BITMAP
0E0000
3E0000
780000
700000
E00300
E00780
E003C0
F001E0
7800F0
7FFFF0
3FFFF8
0FFFF0
0000F0
0001E0
0003C0
000780
000300
ENDCHAR
STARTCHAR 21B0
ENCODING 8624
SWIDTH 866 0
DWIDTH 26 0
BBX 15 21 5 0
BITMAP
0200
0700
0E00
1C00
3800
7FFE
FFFE
FFFE
780E
3C0E
1E0E
0F0E
060E
000E
000E
000E
000E
000E
000E
000E
000E
ENDCHAR
STARTCHAR 21B1
ENCODING 8625
SWIDTH 866 0
DWIDTH 26 0
BBX 15 21 6 0
BITMAP
0080
01C0
01E0
00F0
0038
FFFC
FFFE
FFFC
C038
C0F0
C1E0
C1C0
C080
C000
C000
C000
C000
C000
C000
C000
C000
ENDCHAR
STARTCHAR 21B2
ENCODING 8626
SWIDTH 866 0
DWIDTH 26 0
BBX 15 21 5 0
BITMAP
000E
000E
000E
000E
000E
000E
000E
000E
060E
0F0E
1E0E
3C0E
780E
FFFE
FFFE
7FFE
3800
1C00
0E00
0700
0200
ENDCHAR
STARTCHAR 21B3
ENCODING 8627
SWIDTH 866 0
DWIDTH 26 0
BBX 15 21 6 0
BITMAP
C000
C000
C000
C000
C000
C000
C000
C000
C080
C1C0
C1E0
C0F0
C038
FFFC
FFFE
FFFC
0038
00F0
01E0
01C0
0080
ENDCHAR
STARTCHAR 21B6
ENCODING 8630
SWIDTH 866 0
DWIDTH 26 0
BBX 24 19 1 1
BITMAP
001FC0
007FF0
00FFF8
01F07C
03C01E
03800E
070007
070007
070007
070007
870000
C73000
E77800
76F000
3FE000
1FC000
0F8000
070000
020000
ENDCHAR
STARTCHAR 21B7
ENCODING 8631
SWIDTH 866 0
DWIDTH 26 0
BBX 24 19 1 1
BITMAP
03F800
0FFE00
3FFF00
3C0F80
780380
F001C0
E001C0
E000C0
C000E0
C000E0
0000E4
000CE6
001EEF
000EFE
0007FC
0003F8
0001F0
0000E0
000040
ENDCHAR
STARTCHAR 21BA
ENCODING 8634
SWIDTH 866 0
DWIDTH 26 0
BBX 20 21 3 0
BITMAP
007FE0
007FE0
087FE0
1C7C00
3C7F00
787780
7071C0
E070C0
E070E0
E00060
E00070
E00070
E00070
E00070
E000E0
7000E0
3801E0
3E07C0
1FFF80
07FE00
01F800
ENDCHAR
STARTCHAR 21BB
ENCODING 8635
SWIDTH 866 0
DWIDTH 26 0
BBX 20 21 3 0
BITMAP
7FC000
7FC000
7FC200
07C300
0EC780
1CC1C0
38C0E0
70C0E0
60C060
E00070
E00070
E00070
E00070
E00060
E000E0
7001E0
7803C0
3E0780
1FFF00
0FFE00
03F800
ENDCHAR
STARTCHAR 21C4
ENCODING 8644
SWIDTH 866 0
DWIDTH 26 0
BBX 21 22 2 0
BITMAP
000300
000780
0003C0
0001E0
0000F0
FFFFF0
FFFFF8
FFFFF0
0000F0
0301E0
0783C0
0F0780
1E0300
3C0000
7FFFF8
FFFFF8
7FFFF8
3C0000
1E0000
0F0000
078000
030000
ENDCHAR
STARTCHAR 21C6
ENCODING 8646
SWIDTH 866 0
DWIDTH 26 0
BBX 21 22 2 0
BITMAP
030000
078000
0F0000
1E0000
3C0000
7FFFF8
FFFFF8
7FFFF8
3C0000
1E0300
0F0780
0783C0
0301E0
0000F0
FFFFF0
FFFFF8
FFFFF0
0000F0
0001E0
0003C0
000780
000300
ENDCHAR
STARTCHAR 2202
ENCODING 8706
SWIDTH 600 0
DWIDTH 18 0
BBX 14 21 2 0
BITMAP
3E00
0F80
07C0
01E0
00F0
00F0
1F78
3FB8
7FF8
F87C
F03C
E03C
E01C
E01C
E01C
E03C
F038
F878
7FF0
3FF0
0FC0
ENDCHAR
STARTCHAR 2206
ENCODING 8710
SWIDTH 666 0
DWIDTH 20 0
BBX 17 21 1 0
BITMAP
01E000
03F000
03F000
03F000
077800
073800
0F3800
0E3C00
0E1C00
1E1C00
1C1E00
1C0E00
3C0E00
380F00
380700
780700
700780
700380
FFFF80
FFFF80
FFFF80
ENDCHAR
STARTCHAR 220F
ENCODING 8719
SWIDTH 700 0
DWIDTH 21 0
BBX 19 27 1 -6
BITMAP
FFFFE0
FFFFE0
FFFFE0
1C0780
1C0780
1C0780
1C0780
1C0780
1C0780
1C0780
1C0780
1C0780
1C0780
1C0780
1C0780
1C0780
1C0780
1C0780
1C0780
1C0780
1C0780
1C0780
1C0780
1C0780
1C0780
1C0780
1C0780
ENDCHAR
STARTCHAR 2211
ENCODING 8721
SWIDTH 533 0
DWIDTH 16 0
BBX 14 27 1 -6
BITMAP
FFFC
FFFC
FFFC
F000
7800
3800
3C00
1E00
0E00
0F00
0780
0380
03C0
01C0
01C0
03C0
0780
0700
0F00
1E00
3C00
3800
7800
F000
FFFC
FFFC
FFFC
ENDCHAR
STARTCHAR 2212
ENCODING 8722
SWIDTH 600 0
DWIDTH 18 0
BBX 14 3 2 8
BITMAP
FFFC
FFFC
FFFC
ENDCHAR
STARTCHAR 2215
ENCODING 8725
SWIDTH 166 0
DWIDTH 5 0
BBX 18 21 -7 0
BITMAP
0001C0
000380
000300
000700
000E00
000C00
001800
003800
007000
006000
00E000
01C000
038000
030000
070000
0E0000
0C0000
1C0000
380000
700000
E00000
ENDCHAR
STARTCHAR 221A
ENCODING 8730
SWIDTH 600 0
DWIDTH 18 0
BBX 16 21 1 0
BITMAP
0007
0007
0007
000E
000E
000E
F81C
F81C
F81C
1C1C
1C38
1C38
1E38
0E30
0E70
0E70
0770
07E0
07E0
03E0
03C0
ENDCHAR
STARTCHAR 221E
ENCODING 8734
SWIDTH 766 0
DWIDTH 23 0
BBX 21 12 1 3
BITMAP
1F03C0
7F8FF0
FFCFF0
F1FC78
E0F838
E07038
E07038
E0F838
F1BC78
FF9FF0
7F0FF0
1E07C0
ENDCHAR
STARTCHAR 222B
ENCODING 8747
SWIDTH 433 0
DWIDTH 13 0
BBX 11 28 1 -6
BITMAP
03E0
07E0
0FE0
0E00
0E00
0E00
0E00
0E00
0E00
0E00
0E00
0E00
0E00
0E00
0E00
0E00
0E00
0E00
0E00
0E00
0E00
0E00
0E00
0E00
0E00
FE00
FE00
F800
ENDCHAR
STARTCHAR 2248
ENCODING 8776
SWIDTH 600 0
DWIDTH 18 0
BBX 14 11 2 4
BITMAP
7C00
FF08
FFFC
43FC
00F8
0000
7C00
FF08
FFFC
43FC
00F8
ENDCHAR
STARTCHAR 2260
ENCODING 8800
SWIDTH 600 0
DWIDTH 18 0
BBX 14 16 2 1
BITMAP
0070
0070
00E0
FFFC
FFFC
FFFC
0380
0380
0700
0700
FFFC
FFFC
FFFC
1C00
3800
3800
ENDCHAR
STARTCHAR 2264
ENCODING 8804
SWIDTH 600 0
DWIDTH 18 0
BBX 12 18 3 0
BITMAP
0010
0070
01F0
07E0
3F80
FE00
F000
F000
FE00
3F80
0FE0
01F0
0070
0010
0000
FFF0
FFF0
FFF0
ENDCHAR
STARTCHAR 2265
ENCODING 8805
SWIDTH 600 0
DWIDTH 18 0
BBX 12 18 3 0
BITMAP
8000
E000
F800
7E00
1FC0
07F0
00F0
00F0
07F0
1FC0
7E00
F800
E000
8000
0000
FFF0
FFF0
FFF0
ENDCHAR
STARTCHAR 25CA
ENCODING 9674
SWIDTH 600 0
DWIDTH 18 0
BBX 16 21 1 0
BITMAP
03C0
03C0
07E0
07E0
0E70
1E78
1C38
381C
381C
700E
F00F
700E
381C
381C
1C38
1E78
0E70
07E0
07E0
03C0
03C0
ENDCHAR
STARTCHAR 2713
ENCODING 10003
SWIDTH 900 0
DWIDTH 27 0
BBX 20 22 4 0
BITMAP
0000C0
0000F0
0000E0
0001E0
0001C0
0003C0
000380
600780
E00700
F00F00
700E00
781E00
381E00
3C1C00
1C3C00
1E3800
0E7800
0E7000
07F000
07E000
03E000
03C000
ENDCHAR
STARTCHAR 274C
ENCODING 10060
SWIDTH 900 0
DWIDTH 27 0
BBX 21 21 3 0
BITMAP
200020
700070
F800F8
7C01F0
3E03E0
1F07C0
0F8F80
07DF00
03FE00
01FC00
00F800
01FC00
03FE00
07DF00
0F8F80
1F07C0
3E03E0
7C01F0
F800F8
700070
200020
ENDCHAR
STARTCHAR 2B0E
ENCODING 11022
SWIDTH 866 0
DWIDTH 26 0
BBX 21 15 2 3
BITMAP
FFFF00
FFFF00
FFFF00
000700
000700
000700
000700
006710
00F338
007B70
003FE0
001FC0
000F80
000700
000200
ENDCHAR
STARTCHAR 2B0F
ENCODING 11023
SWIDTH 866 0
DWIDTH 26 0
BBX 21 16 2 3
BITMAP
000200
000700
000F80
001FC0
003FE0
007B70
007378
00E738
004710
000700
000700
000700
000700
FFFF00
FFFF00
FFFF00
ENDCHAR
STARTCHAR 2B10
ENCODING 11024
SWIDTH 866 0
DWIDTH 26 0
BBX 21 15 2 3
BITMAP
07FFF8
07FFF8
07FFF8
070000
070000
070000
070000
671000
F73800
7B7800
3FF000
1FC000
0F8000
070000
020000
ENDCHAR
STARTCHAR 2B11
ENCODING 11025
SWIDTH 866 0
DWIDTH 26 0
BBX 21 16 2 3
BITMAP
020000
070000
0F8000
1FC000
3FE000
7B7000
777800
E73800
471000
070000
070000
070000
070000
07FFF8
07FFF8
07FFF8
ENDCHAR
STARTCHAR ECE0
ENCODING 60640
SWIDTH 1166 0
DWIDTH 35 0
BBX 30 21 2 0
BITMAP
01F0003C
07F000FC
0FF003FC
1F0007E0
3C000F80
78000F00
70001E00
F0001C00
E0001C00
E0001FF0
E0001FF0
E0001FF0
E0001C00
F0001C00
70001E00
78000F00
3C000F80
1F0007E0
0FF003FC
07F000FC
01F0003C
ENDCHAR
STARTCHAR EFCC
ENCODING 61388
SWIDTH 1033 0
DWIDTH 31 0
BBX 25 21 4 0
BITMAP
FF87F000
FF1FFC00
C03C1F00
C0700780
C0E3E180
C1C7F900
C18E3C00
C39C0800
C3980000
FF180000
FF180000
C3180000
C3980000
C19C0800
C18E3C00
C1C7F900
C0E3E180
C0700780
C03C0F00
C01FFE00
8003F000
ENDCHAR
STARTCHAR F6D7
ENCODING 63191
SWIDTH 0 0
DWIDTH 0 0
BBX 10 10 -5 18
BITMAP
0300
0780
0700
0E00
0C00
1C00
E1C0
F3C0
F3C0
E1C0
ENDCHAR
STARTCHAR F6D8
ENCODING 63192
SWIDTH 0 0
DWIDTH 0 0
BBX 10 10 -5 18
BITMAP
3000
7800
3800
1C00
0C00
0E00
E1C0
F3C0
F3C0
E1C0
ENDCHAR
STARTCHAR FB01
ENCODING 64257
SWIDTH 600 0
DWIDTH 18 0
BBX 15 22 1 0
BITMAP
0F8E
1F9E
3F9E
380E
3800
3800
3800
FFFE
FFFE
FFFE
381E
381E
381E
381E
381E
381E
381E
381E
381E
381E
381E
381E
ENDCHAR
STARTCHAR FB02
ENCODING 64258
SWIDTH 633 0
DWIDTH 19 0
BBX 17 22 1 0
BITMAP
0F8E00
1F8E00
3F8E00
380E00
380E00
380E00
380E00
FF8E00
FF8E00
FF8E00
380E00
380E00
380E00
380E00
380E00
380E00
380E00
380E00
380E00
380F80
380F80
380780
ENDCHAR
ENDFONT
